<?xml version="1.0" encoding="utf-8"?>
<!-- Generator: Adobe Illustrator 26.5.1, SVG Export Plug-In . SVG Version: 6.00 Build 0)  -->
<svg version="1.1" id="Layer_1" xmlns="http://www.w3.org/2000/svg" xmlns:xlink="http://www.w3.org/1999/xlink" x="0px" y="0px"
	 viewBox="0 0 595 525.8" style="enable-background:new 0 0 595 525.8;" xml:space="preserve">
<style type="text/css">
	.st0{fill:#FFFFFF;}
</style>
<path class="st0" d="M45.6,515.1c-0.5-0.1-1.5-0.5-2-0.9c-1.2-0.7-6.1-5.4-10.9-10.5c-2.9-3.1-3.3-3.6-4.3-5.6
	c-0.6-1.2-1.3-2.9-1.5-3.8c-1.1-4.1-1.1-2.7-1-46.3l0-40.5l0.5-2.5c0.7-3.3,1.8-6.8,3.1-9.3c1.1-2.1,5.9-9.8,10.6-16.6
	c3.5-5.2,5.9-7.7,8.8-9.1c3.1-1.5,3.8-1.6,16.9-1.5l11.3,0.1l1.7,0.6c1.9,0.7,3.9,1.8,5.5,3l1.1,0.9l0.7-0.6c1-0.9,3.2-2.3,4.6-2.8
	c2.9-1.1,2.6-1.1,34.5-1c24.6,0,30,0.1,31.1,0.4c1.1,0.2,1.4,0.3,2.4,0c0.8-0.2,3.8-0.3,10.2-0.4c6.6-0.1,9.7-0.2,11.2-0.5
	c6.8-1.1,15.7-1.6,24.4-1.3c3.7,0.1,8.1,0.2,9.8,0.2c3.3,0,4.2,0.2,6.6,1.2c0.8,0.4,1.6,0.6,1.8,0.6c0.2,0-0.5-1.1-2-3l-2.3-2.9
	l-1.9-0.1c-1.1-0.1-7.3-0.1-13.9,0c-13.2,0.1-14.3,0.1-17.4-1.1c-3.7-1.3-16.2-7.3-22.7-10.9c-8.8-4.9-18-11.1-20.5-13.7l-1.2-1.4
	l0.8-0.1c0.5-0.1,4.1-0.2,8.1-0.3c9.8-0.2,20.7,0.2,31.6,1.3c8,0.8,12,1.5,17.6,3.1c1.6,0.5,3,0.9,3,0.9c0.1,0-0.7-1.1-1.6-2.5
	c-2.4-3.4-8.4-12.6-10.1-15.4c-0.8-1.2-1.4-2.2-1.5-2.2c-0.1,0-1.3,0.4-2.7,0.9c-10.3,3.5-16.7,5.1-23.4,6
	c-5.3,0.7-17.3,0.4-26.5-0.6c-9.9-1.1-16.3-2.4-22.7-4.5c-5.7-1.9-5.5-1.5-2-3.6c7.5-4.6,15.7-7.7,27.5-10.3
	c6.8-1.5,12.3-2.4,18.8-2.9c5.6-0.5,17.1-0.2,21.6,0.4l1,0.2l-0.9-1.6c-2.9-5.2-4.7-8.6-7.3-13.9c-1.6-3.3-3.3-6.4-3.8-7
	c-1.1-1.5-2.1-3.7-2.6-5.8c-0.2-1-1.1-3.4-1.9-5.4c-7.2-18-11.1-35-12.4-53.4c-0.1-1.9-0.3-3.8-0.4-4.3l-0.1-0.9L148,213
	c-15.9-1.7-31.7-8.2-44-18.1c-8.3-6.6-16.5-16.6-21.1-25.8l-0.8-1.5h0.6c0.3,0,1.9,0.1,3.4,0.3c11.8,1.4,22.1,4.6,34,10.6
	c7.5,3.7,12,6.5,17,10.6c4.4,3.5,9.5,8.8,12.2,12.6l0.7,1l0.3-5.8c0.1-3.2,0.3-6.7,0.4-7.8l0.2-1.9l-2.9-0.6
	c-7.4-1.5-14.5-4.4-22.5-9.2c-14.4-8.6-25.4-18.7-36.3-33.1c-1.2-1.6-2.5-3.4-2.8-4c-0.6-1.2-1.9-5-1.8-5.1
	c0.3-0.3,6.8,0.8,11.2,1.8c9.8,2.4,18.6,6.4,37.6,17.3l1.2,0.7l-0.2-1.2c-0.1-0.6-0.2-1.4-0.3-1.6c-0.1-0.2-1.2-1.4-2.5-2.7
	c-8.4-8.2-14.9-17.3-20.5-28.5c-3.9-7.8-5.5-12-5.9-15.4c-0.3-2.3-0.3-3.7,0-3.7c0.1,0,0.9,0.3,1.7,0.7c0.8,0.4,3.1,1.5,5.1,2.4
	c7.2,3.3,11,5.3,16.2,8.8c8.5,5.7,15.2,11.7,21.2,19.2c3.9,4.8,6.2,8.6,8,12.9c0.6,1.5,1.2,2.6,1.2,2.5c0.1-0.1,0.4-1,0.7-2
	s1.3-3.6,2.1-5.8c10.3-27.8,27.2-51.5,49.4-69.1c2.2-1.7,7.5-5.6,8.2-6c0.2-0.1-2.2,2.4-5.4,5.6c-11.2,11.1-19,20.9-26.5,33.2
	c-3.5,5.7-7.7,13.4-7,13.1c0.2-0.1,1.7-1.3,3.4-2.7c4.8-3.8,7.1-5.2,11-6.8c2.9-1.2,7.5-2.2,10.8-2.4c2.9-0.2,6.6,0.8,10.7,2.7
	c1,0.5,1.8,0.7,1.8,0.6c0-0.3,13.2-13.5,16.4-16.5c6.9-6.1,16.9-13.8,21.5-16.4l1.3-0.7l-0.4-0.7c-0.2-0.4-0.5-0.9-0.7-1.2
	c-0.3-0.5-0.2-0.6,1.1-1.8c1.9-1.7,3.5-2.5,6-3.1c1.2-0.2,3.5-0.9,5.1-1.4c6.6-2.1,16.8-4.3,21.7-4.7c1.7-0.1,3.2-0.3,3.5-0.5
	c0.3-0.1,1.4-0.9,2.5-1.7c3.3-2.3,6.8-4.3,13-7.4c6.7-3.3,7.6-3.7,9.6-4c2.5-0.4,3.8,0,8.3,2.2c2.2,1.1,4.3,2,4.7,2
	c0.4,0.1,2.6,0.3,5,0.5c2.4,0.2,4.8,0.4,5.4,0.5c0.6,0.1,1.6,0.2,2.3,0.2c3.1,0,6.6,1.4,9.1,3.6c0.8,0.7,2.4,2.3,3.6,3.7l2.3,2.4
	l2.4,0.8c8,2.7,23.2,10.8,27,14.3c0.3,0.3,1,1.1,1.4,1.8c0.4,0.7,1.2,1.6,1.6,2.1l0.8,0.9l2.4-2.4c1.3-1.3,3.1-2.8,3.9-3.4
	c0.8-0.5,1.5-1,1.5-1.2c0-0.1-2.6-2.8-5.7-5.9c-3.2-3.1-5.7-5.7-5.6-5.7c0.5,0,8.8,6.3,13.5,10.3c0.3,0.2,0.6,0.2,2-0.2
	c0.9-0.3,1.7-0.6,1.7-0.7c0-0.1-0.6-0.9-1.4-1.8C390.5,56,388,36.7,397,14.9c0.6-1.6,1.2-3,1.3-3.2c0.1-0.2,0.2-0.4,0.3-0.4
	c0.3,0,5.1,6.5,7.2,9.7c7,10.7,11.7,21.7,14.2,33.5c1.5,7,1.9,11.6,1.5,16.6c-0.4,5.2-0.6,4.6,1.6,5.5c1.1,0.5,1.9,0.7,1.8,0.5
	c-0.3-0.8-0.6-4.9-0.5-6.4c0.5-5.8,3.3-17.4,6.5-26.8c1.4-4.1,5.6-15.7,5.8-15.9c0.1-0.1,0.8,0.9,1.5,2.1c13.1,21.9,15,47.4,5,67.4
	c-1.4,2.8-2.7,5-4.3,7.3l-1.2,1.7l-0.9-1.2c-0.5-0.7-0.9-1.2-0.9-1.2c0,0-0.1,0.8-0.2,1.7c-0.2,2.8-0.8,7.2-1,8.1
	c-0.2,0.9-0.2,1,1.2,3.4c4.1,7.2,8.4,16.9,12,26.8l1.7,4.7l0.5-1.4c0.8-2.2,2.8-6.2,4.3-8.5c7.8-11.9,20.1-22.7,33.9-30.1
	c2-1.1,14.3-6.9,14.6-6.9c0.2,0,0.1,2.8-0.2,4.6c-0.6,3.2-1.7,6-5,12.8c-5.6,11.6-11.6,20.2-20.2,28.9l-3.8,3.8l-0.2,1.4
	c-0.2,1.4-0.2,1.4,0.3,1.2c0.2-0.1,2.6-1.5,5.3-3c17.1-9.7,26-13.4,36.4-15.5c2.9-0.6,7.5-1.2,7.7-1c0.1,0.1-1.2,4.1-1.8,5.1
	c-0.7,1.4-4.2,6-8,10.5c-9.1,10.8-19.2,19.5-31.1,26.7c-8.1,4.8-15.4,7.8-22.7,9.2c-1.4,0.3-2.5,0.5-2.6,0.5c0,0,0,1.6,0.2,3.5
	c0.1,1.9,0.3,5.4,0.4,7.7l0.1,4.3l1.7-2.2c0.9-1.2,3.5-4,5.6-6.1c6.9-6.8,12.7-10.9,23.7-16.3c9.7-4.8,18.5-7.7,27.7-9.3
	c4-0.7,8.9-1.2,9.1-1c0.1,0.1-1.3,2.9-3.1,5.9c-11.4,18.8-29,31.7-50.8,37.3c-3.6,0.9-9.7,2-12.6,2.3l-1.7,0.2l-0.1,2
	c-1.9,25.5-6.5,43.5-17.5,67.8c-2,4.4-7,14.3-9.5,18.9c-1.1,2-2,3.7-2,3.7c0,0,1-0.1,2.2-0.3c8.1-1.1,20.1-0.7,29.8,0.8
	c12.5,2,23.8,5.3,31.9,9.4c2.8,1.5,8,4.6,7.8,4.7c0,0-2.1,0.8-4.6,1.6c-3.4,1.2-5.6,1.8-8.8,2.4c-10.5,2.1-20.4,3.1-31.4,3.1
	c-10.7,0-15.7-0.9-29.6-5.4c-3.2-1-5.8-1.8-5.8-1.8c0,0-0.9,1.4-1.9,3c-1,1.6-2.3,3.7-3,4.7c-1.1,1.7-1.2,1.9-1.1,3.1
	c0.1,2.5-0.7,4.6-2.3,6.4c-1.5,1.7-1.4,1.8,1.9,1c3.6-0.9,7.1-1.5,12.7-2c9.7-1,20.4-1.5,28.7-1.5c5.2,0,12.6,0.3,12.8,0.5
	c0.2,0.2-2.6,2.9-4.8,4.5c-9.4,6.9-22.2,14-36.5,20.3c-5.2,2.3-4.3,2.2-16.7,2.2l-10.8,0.1l-0.1,1c0,0.6-0.2,1.5-0.3,2l-0.2,1l8.9,0
	c9.3,0,13.7,0.3,20.4,1.2c2,0.3,5.1,0.5,8.5,0.6c3,0.1,5.9,0.3,6.6,0.4c1,0.2,1.5,0.2,3.2-0.1c1.7-0.3,3.9-0.3,13.4-0.3
	c12.1,0,13.7,0.1,16.2,1l1.5,0.5l1.7-0.6c2.9-1,4.1-1,20.6-0.9l15.6,0.1l1.5,0.5c2,0.7,4.1,1.8,5.5,2.9l1.2,1l1.3-1.1
	c1.5-1.2,3.8-2.4,5.8-2.9c1.3-0.4,2.6-0.4,13.4-0.4c11,0,12.1,0,13.3,0.4c3,0.9,5.8,2.9,7.9,5.5c2.4,3,12.3,18.1,13.9,21.2
	c1.5,3.1,2.9,7.8,3.4,11.5c0.1,1,0.2,6.6,0.2,12.9c0,8.8-0.1,11.5-0.3,13.2c-0.8,5.3-2.7,9.7-5.5,12.7l-1,1l0.9,1.4
	c2.9,4.6,4.9,10.4,5.7,16.7c0.3,2.3,0.3,23.2,0,25.4c-0.5,3.9-2,7.9-3.7,10.2c-0.5,0.7-3.6,3.9-6.8,7.2c-5.4,5.4-6.1,6.1-7.5,6.8
	c-2,1-4.3,1.2-6.6,0.6c-0.8-0.2-4.6-1.9-9.5-4.3c-4.5-2.2-9.5-4.6-11.2-5.4c-3.9-1.8-5.6-2.9-8.2-5.4c-2.4-2.3-4.2-4.6-6.3-7.9
	l-1.5-2.4l-0.8,0.8c-1.8,1.8-4.7,3-7.4,3.1c-2.1,0-3.9-0.5-9.1-2.5c-2.7-1.1-6.4-2.5-8.2-3.2c-4-1.5-5.9-2.5-7.9-3.9l-1.5-1.1
	l-1.9,0c-1.1,0-2.4-0.1-2.9-0.3c-0.5-0.1-4.9-1.5-9.7-3.1c-4.8-1.6-11.8-3.8-15.5-4.9c-3.9-1.1-7.5-2.3-8.5-2.8
	c-1.3-0.6-2.1-0.8-2.8-0.9c-1.4,0-2.8-0.3-11-2.4c-4-1-10.7-2.6-14.9-3.6c-4.3-1-8.4-2-9.4-2.4c-5.3-2-10-6.3-12.3-10.9
	c-0.9-1.7-1.1-2.6-1.8-5.6l-0.2-0.8l-2.6,1.9c-10.5,7.5-11.5,8.2-14.5,8.9c-1.9,0.5-5.7,0.7-7.8,0.4c-0.7-0.1-1.7-0.2-2.3-0.3
	c-0.5-0.1-2.1-0.3-3.6-0.4c-2.5-0.3-9.9-1.1-13.1-1.3c-4-0.3-8-1.5-11-3.3c-0.8-0.5-2.8-2-4.4-3.3c-1.6-1.4-4.7-3.9-6.8-5.7
	l-3.8-3.2l-0.2,1c-0.6,3-1.6,5.1-3.5,7c-2.1,2.1-4.6,3.5-8,4.5c-2.4,0.7-3.2,0.7-15,0.9c-5.8,0.1-10.6,0.2-10.6,0.2
	c-0.1,0.1-3.6,0.1-7.7,0.2c-5.2,0.1-8,0.2-9.2,0.4c-1,0.2-2.5,0.4-3.4,0.4c-0.9,0.1-2.5,0.2-3.5,0.2c-3.5,0.2-11.4,1-15.1,1.4
	c-2.1,0.2-5.2,0.6-7,0.8c-1.8,0.2-4.3,0.6-5.6,0.9c-1.6,0.4-3.4,0.6-5.5,0.7c-1.7,0.1-3.3,0.2-3.5,0.3c-0.2,0.1-2.6,0.5-5.4,0.9
	c-6.5,1-13.2,2.2-20,3.6c-3,0.6-6.3,1.2-7.5,1.2c-1.1,0.1-2.3,0.2-2.6,0.4c-1.1,0.6-3.3,1.2-8,2.2c-6.5,1.5-12.1,2.9-19.2,4.9
	c-3.5,1-6.6,1.7-7.6,1.8c-1.3,0.1-2.1,0.3-3.6,1.1c-1.1,0.5-4.4,1.7-7.4,2.6c-14,4.2-32.2,10.8-47.3,16.9c-3.2,1.3-6.4,2.6-7.1,2.7
	c-2,0.5-4.7,0.5-6.5-0.2l-1.6-0.5l-0.9,1.2c-1.4,1.9-4.6,4.9-6.5,6.2c-1,0.6-3.6,2-5.9,3.1c-2.3,1.1-7.4,3.5-11.5,5.5
	c-4.3,2.1-7.8,3.7-8.5,3.8C49,515.5,46.9,515.5,45.6,515.1z M54.2,489.6l0.8-0.3c3.1-1.3,7.8-3.2,12.2-5c2.9-1.1,5.5-2.2,5.9-2.3
	c0.5-0.2,1.2-1.2,3.1-4.4c1.4-2.2,3.9-6.3,5.7-9.1l3.2-5v-12.1l-1.6,0.4c-3.6,1-12.2,3.5-12.2,3.5c0,0-0.1,2.1-0.2,4.6l-0.1,4.5
	l-6.8,2.3c-3.7,1.3-6.8,2.3-6.9,2.2c-0.1-0.1,0.2-57.2,0.4-57.3c0.1-0.1,2.9-0.5,6.4-1c3.5-0.5,6.5-0.9,6.9-1l0.6-0.1v4.6
	c0,2.5,0.1,4.6,0.2,4.6c0.1,0,3.2-0.5,7-1.1l6.9-1.1v-12.4l-2.1-2.4c-1.1-1.3-3.6-4.2-5.5-6.5c-2.9-3.4-3.5-4.1-3.9-4.1
	c-0.3,0.1-4.6,0.4-9.7,0.8c-5.1,0.4-9.3,0.8-9.4,0.8c-0.3,0.2-4.9,7-8.2,12.1l-3,4.7L43.5,431c-0.1,11.8-0.1,27.3-0.1,34.4v12.9
	l1,1.1c0.5,0.6,3,3.2,5.4,5.7L54.2,489.6z M554.5,489.5l2-2c1.1-1.1,3.6-3.6,5.5-5.6l3.4-3.6l0-7.2l-0.1-7.2l-6.8-2.2l-6.8-2.2
	l-0.1,4.7c0,2.6-0.1,4.7-0.1,4.7c-0.1,0-13.6-4.5-13.7-4.6c-0.1-0.1-0.6-54.7-0.5-54.8c0.1-0.1,13.6,1.8,13.8,2
	c0.1,0.1,0.2,2.2,0.2,4.8v4.7l6.6,1.2c3.7,0.7,6.8,1.2,7.1,1.2c0.4,0,0.4-0.3,0.2-7.1l-0.2-7.1l-2.1-3.2c-4.5-7.1-9-13.5-9.4-13.6
	c-0.2,0-4.4-0.4-9.2-0.8c-4.8-0.4-9.1-0.7-9.4-0.8c-0.6-0.1-0.8,0.1-2.9,2.6c-2.5,3-7,8.4-8.1,9.5l-0.7,0.8v2.9
	c0,1.6,0.1,15,0.3,29.8l0.3,26.8l3,4.7c1.7,2.6,4.2,6.7,5.6,9.1l2.6,4.3l5.4,2.1c2.9,1.2,7.3,2.9,9.7,3.9L554.5,489.5z M327,487.3
	c-4.2-1-6.6-5.1-6.6-11.2c0-7.5,3.3-11.8,9.2-11.7c5.7,0,8.9,3.6,9.3,10.6c0.4,5.6-1.9,10.5-5.5,11.9
	C332,487.4,328.5,487.7,327,487.3z M360.7,487.2c-2.3-0.8-3.6-1.8-4.6-3.9c-0.9-1.9-1.3-3.5-1.5-6.1c-0.2-3.7,0.7-7.4,2.2-9.4
	c2.1-2.8,5.9-4,9.5-3.1c1.4,0.4,2.9,1.1,3.9,1.9l0.6,0.5l-1.1,1.7c-0.6,0.9-1.2,1.7-1.3,1.8c-0.1,0.1-0.4-0.1-0.8-0.4
	c-1.7-1.4-4.5-1.6-5.9-0.5c-0.8,0.6-1.5,2-1.8,3.2l-0.1,0.8l1.2-0.5c4-1.8,8.6,0,10.1,4c0.5,1.3,0.5,4.1,0,5.5
	c-0.6,1.6-2.2,3.3-3.9,4.1c-1.1,0.5-1.7,0.6-3.4,0.7C362.3,487.5,361.2,487.4,360.7,487.2z M259.2,487.2c-1.7-0.4-2.7-0.9-4.3-2
	c-2.4-1.6-2.4-1.5-0.8-3.5c0.8-0.9,1.5-1.7,1.6-1.8c0.1,0,0.7,0.3,1.3,0.7c2.3,1.8,5.3,2.6,6.8,2c0.9-0.4,1.5-1.2,1.5-1.9
	c0-1.2-0.9-1.7-4.1-2.6c-5.7-1.6-7.4-3.2-7.4-7c0-2.8,1-4.6,3.5-5.8c3.1-1.6,7.9-1.2,11.3,0.8c1.7,1,1.7,1.1,0.4,3
	c-0.6,0.9-1.2,1.7-1.4,1.8c-0.1,0.1-0.4,0-0.6-0.2c-1-0.9-3.8-1.9-5.3-1.9c-1.8,0-3.1,1.2-2.6,2.5c0.3,0.8,1.1,1.3,3.3,1.9
	c4.8,1.3,6.5,2.3,7.5,4.3c0.5,1,0.6,1.5,0.6,2.9c0,2.9-1.4,5-4.1,6.2c-1,0.5-1.6,0.6-3.6,0.6C261.2,487.5,260,487.4,259.2,487.2z
	 M233.5,487.3l0.1-11.2l0.1-11.2l8.1,0l8.1-0.1v4.8h-11v4.3h9.9v4.3h-9.9v4.5h11.5v4.5H233.5z M279.1,487.3v-17.9h-6.3v-4.5h17.7
	v4.5h-6.3v17.9H279.1z M301.4,487.3v-3.7l4.3-4.5c5.4-5.5,5.7-6,5.8-7.6c0.1-1.6-0.5-2.4-2-2.6c-1.4-0.1-2.1,0.2-3.4,1.6l-1.1,1.2
	l-2-1.1c-1.1-0.6-2-1.3-2-1.5s0.8-1.1,1.8-2.1c2.2-2.2,3.2-2.6,6.3-2.6c1.9,0,2.3,0.1,3.4,0.6c1.8,0.9,2.7,1.8,3.4,3.1
	c0.5,1.1,0.6,1.5,0.6,3c0,2.8-0.7,3.9-5.5,9l-2.2,2.4l4.2,0.1l4.2,0.1l0.1,2.3l0.1,2.3H301.4z M345.2,487.3v-17.9h-4.3v-4.6l4.6,0.1
	l4.6,0.1l0.1,11.2l0.1,11.2H345.2z M331.3,482.9c1-0.5,1.9-2.1,2.2-4c0.4-2.1,0.2-5.8-0.4-7.4c-0.5-1.3-1.6-2.5-2.5-2.7
	c-0.9-0.2-2.4,0-3.1,0.5c-2.9,2.1-2.8,11.4,0.2,13.4C328.6,483.3,330.2,483.4,331.3,482.9z M364.8,482.9c2.1-0.9,2.4-3.8,0.7-5.3
	c-0.6-0.6-0.9-0.7-1.9-0.7c-2.1,0-3.4,1.1-3.4,3C360.2,482.3,362.5,483.8,364.8,482.9z M94.8,473.9l8.3-2.8
	c4.6-1.5,10.6-3.5,13.5-4.4l5.2-1.6l0.2-7.6c0.1-4.2,0.1-7.7,0.1-7.7s-1.4,0.2-3.1,0.7l-3,0.8l0.1-5.2c0.1-2.9,0.1-6.4,0.1-7.9v-2.7
	l0.8-0.2c0.9-0.2,12.8-2.6,13-2.6c0.2,0,0.3,3.2,0.1,10.1l-0.1,5l-3,0.7l-3,0.7l-0.2,7.6c-0.1,4.2-0.1,7.6,0,7.7
	c0.1,0.1,0.6,0,1.2-0.2c9.1-2.7,14.5-4.2,22-6.1c2.1-0.5,3.8-1,3.8-1c0,0,0.1-3.2,0.2-7.1l0.1-7l-3.5,0.7c-1.9,0.4-3.5,0.7-3.5,0.7
	c0,0,0.1-8.3,0.2-18.3c0.2-10,0.3-19.8,0.4-21.6l0.1-3.4l3.4-0.3c1.9-0.2,3.4-0.4,3.5-0.4c0.1-0.1,0.2-3.3,0.3-7.1l0.1-7l-2.8,0.1
	c-12.2,0.6-24.2,1.3-24.3,1.4c-0.2,0.2-0.3,15.3-0.1,15.3c0.4,0,3.6-0.3,4.7-0.5l1.1-0.1l-0.1,7.5c-0.1,4.1-0.2,7.5-0.2,7.6
	c-0.1,0.1-13.9,2.2-14,2.2c0,0,0-3.6,0.1-7.9l0.1-7.8l0.6-0.1c0.3-0.1,1.6-0.2,3-0.4l2.4-0.2l0.1-4.5c0.1-2.5,0.1-6,0.1-7.8v-3.2
	l-1.5,0.1c-0.8,0.1-3.2,0.2-5.2,0.3c-8.8,0.5-20.2,1.3-20.3,1.4c-0.1,0.1-0.1,3.9-0.2,8.5l-0.1,8.3l1.3-0.1c0.7-0.1,2.3-0.3,3.5-0.4
	l2.2-0.3v2.8c0,5.5-0.6,46.6-0.7,46.7c0,0-1.6,0.5-3.4,1l-3.4,0.9l-0.1,4.7c-0.1,2.6-0.1,6.4-0.1,8.5V473.9z M506.3,411.5l-0.1-6
	l3.1,0.4c1.7,0.2,3.3,0.4,3.6,0.4l0.4,0l-0.1-8.4c0-4.6-0.1-8.4-0.1-8.4c0-0.1-26.5-1.8-27.5-1.8l-0.5,0l0.1,7.5
	c0,4.2,0.1,7.6,0.2,7.7c0.1,0.1,1.6,0.3,3.4,0.5c1.8,0.2,3.3,0.4,3.4,0.5c0.1,0.1,0.6,28.1,0.5,28.6c0,0.2-0.9-1.5-1.9-3.8
	c-2.8-6.4-8.2-18-11.3-24.6c-2.3-4.9-8.3-17.1-8.5-17.2c0,0-3.9-0.2-8.6-0.5c-4.7-0.2-9.4-0.5-10.5-0.6l-2-0.1v5.6
	c0,3.1,0.1,6.2,0.1,7l0.1,1.4l3.4,0.3c1.9,0.1,3.4,0.3,3.5,0.4c0.1,0.1,0.8,42.3,0.7,42.4c0,0-1.5-0.2-3.4-0.6
	c-1.8-0.4-3.4-0.7-3.5-0.7c-0.2,0-0.2,5.3,0,10.5l0.1,3.4l4.6,1.1c6.7,1.6,12.6,3.2,18.2,4.8c2.7,0.8,5,1.4,5,1.4
	c0.2,0,0.2-10.5,0-13l-0.1-2.1l-3.4-0.8l-3.4-0.8l-0.1-3.4c-0.1-1.9-0.2-8-0.2-13.6l-0.1-10.2l1.4,2.7c3.7,7.3,11.9,25.4,17.6,38.9
	l2.8,6.5l1.9,0.6c1.1,0.3,4.2,1.3,6.9,2.2c2.7,0.9,5,1.6,5,1.6C507.1,471.4,506.5,420.3,506.3,411.5z M186.9,449.2
	c0.5-0.1,1.1-0.2,1.2-0.3c0.1-0.1,0.3-2.4,0.3-6.5c0.1-6.3,0.1-6.3-0.3-6.3c-0.2,0-1.6,0.2-2.9,0.4c-1.4,0.2-2.5,0.4-2.6,0.3
	c-0.1-0.1,0.4-35.4,0.5-37.4c0.1-1.8-0.1-1.7,3.5-1.9l2.5-0.2l0.1-6.4c0.1-3.5,0.1-6.4,0.1-6.4c-0.1-0.1-27,1-27.1,1.2
	c0,0-0.1,3.1-0.2,6.9l-0.1,6.8l1.5-0.1c0.8-0.1,2.4-0.2,3.5-0.3l2-0.1l0,3.1c0,2.2-0.5,31.6-0.6,37.3c0,0.1-1.5,0.5-3.4,0.9
	c-1.8,0.3-3.4,0.7-3.6,0.7c-0.1,0.1-0.2,3.2-0.2,7c-0.1,6,0,6.9,0.2,6.8C164.3,453.8,183.6,449.7,186.9,449.2z M440.7,449.2
	c0-2.1-0.1-5.2-0.1-6.8l-0.1-2.9l-2.9-0.5c-1.6-0.3-2.9-0.6-3-0.7c-0.1-0.4-0.8-39.5-0.6-39.6c0.1-0.1,1.4,0,3,0.1l3,0.2l-0.2-6.7
	c-0.1-3.7-0.2-6.7-0.2-6.8c-0.1-0.1-13.2-0.7-23.2-1l-4-0.2l0.1,4.1c0.1,2.2,0.1,5.1,0.1,6.4v2.3l3.4,0.2c1.9,0.1,3.5,0.2,3.5,0.3
	c0.1,0.1,0.8,38.3,0.6,38.5c0,0-1.5-0.1-3.1-0.4s-3.3-0.5-3.5-0.5c-0.4,0-0.4,0.2-0.3,6.2c0.1,3.4,0.2,6.2,0.2,6.3
	c0.1,0.1,2.7,0.6,5.9,1.2c5.7,1,18.6,3.7,19.8,4C440.7,453.2,440.7,453.4,440.7,449.2z M198.5,447.1l2.8-0.5c4.7-0.8,12.6-2,19-2.9
	c3.4-0.5,6.2-0.9,6.2-0.9c0.1-0.1,0.2-2.8,0.2-6l0.1-5.9l-0.9,0.1c-1.8,0.3-5.9,0.6-6,0.5c-0.1-0.1,0-3.9,0-8.5l0.2-8.4l6.9,13.7
	c3.8,7.6,7,13.7,7.1,13.7c0.1,0,0.8-1.4,1.6-3.2c2.7-5.8,7.7-16.2,10.9-22.5l1.8-3.6l0,16l-1.1,0.1c-0.6,0.1-2.1,0.2-3.3,0.3
	c-1.2,0.1-2.3,0.2-2.4,0.3c-0.1,0.1-0.3,2.4-0.4,5.9l-0.2,5.7l5.1-0.5c6.9-0.7,12.5-1.1,17.9-1.4l4.5-0.3l0.1-1
	c0.1-0.5,0.1-3.1,0.1-5.7v-4.7l-1.7,0.1c-0.9,0.1-2.5,0.2-3.6,0.2l-1.9,0.1v-4.3c0-2.4,0.1-10.1,0.1-17.1L262,394h1.6
	c0.9,0,2.4-0.1,3.5-0.1l2-0.1v-11.2l-10,0.2c-8.6,0.1-10,0.2-10.3,0.5c-0.1,0.2-3.4,6.6-7.2,14.3c-3.8,7.7-7,14-7.1,14
	c-0.1,0-7.1-14.1-11-22.1l-2.8-5.8l-1.8,0c-15.2,0.4-19.3,0.5-19.4,0.6c0,0-0.1,2.9-0.1,6.3c-0.1,4.1,0,6.3,0.1,6.2
	c0.1,0,1.7-0.1,3.5-0.2l3.3-0.2l0,1.9c-0.1,7.2-0.6,35.1-0.7,35.2c-0.1,0.1-1.6,0.3-3.4,0.6c-1.8,0.3-3.4,0.5-3.4,0.6
	s-0.1,2.9-0.2,6.3L198.5,447.1z M377.2,436.7l4.5-3.3v-8.2c0-4.5-0.1-8.3-0.1-8.5c-0.1-0.3-2.8-2.8-6.9-6.3
	c-0.9-0.8-1.8-1.5-1.8-1.6c-0.1-0.1-0.7-0.7-1.5-1.3l-1.4-1.2l-5.3-0.2c-2.9-0.1-6.7-0.3-8.4-0.4l-3-0.1l-0.1-4
	c-0.1-2.2-0.1-4.8-0.1-5.7v-1.7l4.9,0.1c2.7,0.1,5.9,0.2,7.1,0.3l2.2,0.1v5.8h0.6c0.3,0,3.5,0.1,7,0.3c3.6,0.2,6.5,0.3,6.5,0.3
	c0,0,0-1.9,0-4.2l-0.1-4.1l-5.5-4.7c-3-2.6-5.6-4.8-5.8-4.9s-4.7-0.2-10.1-0.3l-9.8-0.2l-3.8,3c-2.1,1.7-4.6,3.6-5.5,4.4l-1.8,1.4
	v15.9l5.7,4.8l5.7,4.8l6,0.4c7.4,0.4,10.9,0.7,11,0.8c0.2,0.2,0.1,11.5,0,11.5c-0.1,0-3.2-0.2-7-0.5l-6.8-0.5l-0.1-2.8
	c0-1.5-0.1-2.8-0.2-2.9c-0.1-0.1-11.5-0.8-13.1-0.8h-0.9v7.9l3,2.6c1.7,1.4,4.3,3.6,5.7,4.9l2.7,2.3l4.8,0.4c2.6,0.2,7,0.6,9.6,0.9
	c2.6,0.3,4.9,0.5,5.2,0.5C370.5,441.6,370.6,441.5,377.2,436.7z M279,438.6l2.2-0.1c1.2-0.1,7.6-0.2,14.3-0.3l12-0.1v-11.2h-7.1v-11
	h17.1l5.6-4.3l5.6-4.3l0.1-15.9l-5.7-4.5l-5.7-4.5h-38.2v11.2h6.9V427l-1.8,0.1c-1,0.1-2.6,0.1-3.6,0.1H279V438.6z M300.4,404.6v-11
	h14l0.1,3.9c0.1,2.2,0.1,4.6,0.1,5.5v1.6H300.4z M334.2,374.9l1.3-1c0.7-0.6,1.3-1.1,1.3-1.2s-0.3-0.2-0.8-0.3
	c-1-0.2-5.3-1.7-6.9-2.4c-0.7-0.3-1.8-0.9-2.5-1.3c-1.2-0.8-1.7-0.8-1.7-0.2c0,0.1,0.3,0.5,0.6,0.8c1.1,1,5.1,3.7,6.9,4.7
	L334.2,374.9z M384.6,372.9L384.6,372.9c0.7-2.7,1.5-4.2,3.1-5.9c0.8-0.9,1.6-1.9,1.8-2.2c0.6-1.1,0.8-2.6,0.5-4
	c-0.3-1.8-0.2-3,0.2-3.8c0.2-0.4,1.7-2.7,3.3-5.1c2.2-3.4,3.4-4.9,4.8-6.3c3.2-3.2,3.5-3.8,3.6-7.6c0.1-3,0.7-4.3,2.3-5.5
	c0.6-0.4,1-0.9,1-1s-0.6-0.3-1.2-0.4c-0.9-0.1-1.2-0.2-1.3-0.6c-0.1-0.4,0-0.6,0.4-1.2c0.3-0.4,0.7-0.9,0.9-1.2
	c0.3-0.6,0.3-2.2-0.1-2.9c-0.2-0.3-0.3-0.7-0.3-1c0-0.4,0.1-0.4,1-0.3c0.6,0.1,1.2,0,1.5-0.1c0.7-0.3,2.2-2.6,2.9-4.6
	c0.7-1.9,1.1-2.4,2.9-4.2c1.8-1.7,2.1-2.4,1.7-3.4c-0.7-1.7-0.3-2.7,1.7-4.8c1.7-1.8,2.4-2.9,2.8-4.7c0.4-1.9-0.2-4.2-1.6-5.8
	l-0.7-0.8l0.8-0.6c1.1-0.8,2.1-1.9,2.1-2.2c0-0.1-0.6-0.9-1.3-1.6s-1.4-1.6-1.5-1.8c-0.8-1.4-1.3-7.1-0.7-7.8
	c0.2-0.2,0.7-0.4,1.2-0.5c0.8-0.2,0.9-0.2,1.1-1c0.1-0.6,0-1.4-0.3-2.8c-0.6-2.2-0.5-3,0.4-3.8c0.6-0.5,1.9-0.6,2.8-0.3
	c0.7,0.3,1.1-0.1,1.3-1.3c0.2-1.5-0.2-2.7-1.2-3.7c-1.1-1.1-1.2-1.6-0.6-3.1c0.4-1,0.5-1.9,0.5-4.3c0.1-4.6,0.6-5.8,3.3-7.8
	c1.6-1.2,1.8-1.8,1.2-3.2l-0.4-0.8l0.6-0.6c0.3-0.3,0.7-0.9,0.8-1.2c0.2-0.9-0.2-4.3-1.3-9.7c-1.2-6.3-1.6-9.4-1.4-12.8
	c0.1-1.5,0.2-3.1,0.3-3.4c0.2-0.6,0.2-0.6,1.8,1.7c0.9,1.3,1.6,2.4,1.6,2.4c0.2,0.3,1-0.6,1.2-1.2c1.3-4.7,1.7-8.3,2.4-19.6
	c0.3-5.6,0.1-17.1-0.3-19.5c-0.5-2.4-0.3-3.3,0.8-4.6c1-1.1,1.1-2,0.5-3.7c-0.4-1.1-0.5-1,1.2-2c0.5-0.3,1.1-0.9,1.4-1.4
	c0.7-1.2,0.9-3.5,0.4-5.1c-0.2-0.7-0.4-1.7-0.4-2.4c-0.1-1.1,0-1.3,0.7-2.4c0.4-0.7,0.8-1.3,0.8-1.5c0-0.6-1.2-5.2-1.6-6.1
	c-0.5-1.1-0.5-2.1,0-2.8c0.4-0.6,0.6-1.2,0.5-2.1c0-0.2-0.5-0.9-1-1.4c-0.6-0.6-1-1.2-0.9-1.4c0.1-0.2,0.8-0.7,1.8-1.3
	c1.6-0.8,1.7-0.9,1.8-1.6c0.1-1-0.7-3.1-2-5.2c-0.5-0.9-1-1.8-1-2c0-0.2,0.2-0.6,0.6-1c0.5-0.6,0.5-0.7,0.3-1.3
	c-0.1-0.4-0.4-0.8-0.6-0.9c-0.6-0.5-1-1.6-1.1-3.3c-0.1-1.9-0.1-1.9-2.2-2.5c-0.7-0.2-1.1-0.5-1.5-1c-0.4-0.7-0.5-1-0.5-3.2
	c0-2.9-0.1-3.2-1.8-4.5c-1.8-1.5-2-2.3-1.1-4.6c0.8-1.9,1.1-3.4,1.5-6.5c0.7-5.2,0.6-9.1-0.4-15.6c-0.6-3.9-1.1-5.2-2.7-6.7
	c-2.5-2.4-8.2-4.2-12.4-3.8c-6.1,0.5-9.1,2.7-13.8,9.7c-1.3,2-2.5,3.7-2.7,3.7c-0.1,0.1-0.6-0.2-1-0.7c-0.4-0.4-1.4-1-2-1.3
	c-1.6-0.7-7.8-6.6-8.6-8.2c-0.5-0.9-0.9-1.3-3.5-3c-4.2-2.8-15.7-8.5-20.4-10.1c-3.6-1.2-5.5-2.3-6.5-3.5c-1.4-1.7-5.5-5.6-6.3-6
	c-0.6-0.3-1.3-0.5-2.6-0.5c-0.9,0-2.2-0.2-2.7-0.3c-1.1-0.3-5.2-0.6-16-1.4c-3.8-0.3-6.9-0.6-7-0.6c-0.1-0.1,0.5-0.7,1.2-1.5
	c0.7-0.8,1.3-1.4,1.3-1.5c0-0.8-4.4,1.1-11.8,5c-3.5,1.9-6.4,3.6-9,5.5c-3,2.2-4.4,2.8-7.1,2.7c-3.9-0.1-14.4,2.1-22.3,4.6
	c-1.7,0.5-3.7,1.1-4.4,1.2c-1.9,0.3-2.4,0.6-3.2,1.4l-0.7,0.8l0.6-0.2c0.8-0.3,3.5-0.3,4.6,0.1l0.9,0.3l-0.8,0.6
	c-0.4,0.3-2.1,1.3-3.8,2.1c-3.7,1.9-6.5,3.7-11.6,7.5c-7.7,5.8-10.8,8.5-18.7,16.4c-4.9,4.8-8.9,9.1-13.2,14.2l-0.6,0.7l-2-1.5
	c-3.7-2.8-8.3-4.8-11.1-4.8c-2.7,0-6.7,0.9-9.7,2.3c-1.9,0.9-3.9,2.2-7.7,5.2c-1.9,1.5-4.5,3.5-5.9,4.5c-3.9,2.9-6.1,5.4-7.8,8.8
	c-1.1,2.3-1.6,4.1-2.3,8c-0.6,3.9-1,5.9-2.5,12.1c-1.9,8.2-2,10.8-0.1,14.7c0.7,1.5,0.8,1.8,0.8,3.7c0,1.1,0.1,3.4,0.3,5
	c0.2,2,0.3,5.5,0.3,11.2c0,9.9,0.3,13.3,1.9,19.9c0.8,3.4,3.1,10.9,3.7,12.2c0.8,1.6,2.2,3.2,3.7,4c0.7,0.4,1.6,1,2,1.4
	c0.9,0.8,2.8,3.7,2.8,4.1c0,0.2-0.2,1-0.5,1.8c-0.7,2-1,4.2-1,7.8c0,3.7-0.4,5.5-2,8.7c-0.6,1.2-2.2,4.4-3.5,6.9
	c-3.6,7.1-5.1,11.5-5.1,15.5c0,4.3,0.9,6.1,3.3,6.9c1.2,0.4,2.9,0.3,4.9-0.2c2.4-0.6,4.4,0,7.4,2.5c0.9,0.7,4.2,2.9,7.5,5
	c11.2,7.1,13.2,8.5,16.9,12.2c3.9,4,5,5.5,14,19.1c4.1,6.1,5.4,8,7.4,10.1c1.3,1.4,1.5,2,1.1,3.6c-0.3,1-0.3,1.4,0,2.2
	c0.4,1.5,1.8,3.5,3.8,5.3c1,0.9,3.1,2.9,4.7,4.4c3.7,3.6,6.8,6.3,11,9.5c8,6.1,14.9,10,21.6,12.4c2.6,1,3.3,1.4,3.9,2.5l0.4,0.9
	h34.4l-0.5-0.8c-0.3-0.4-1.2-2.2-2.1-3.8c-0.9-1.7-2.2-4-3-5.1c-2.1-3-9.4-11.2-14.5-16.4c-2.1-2.1-2.7-3.1-2.7-4.5
	c0-1.1-0.6-1.8-2.3-2.6c-1.8-0.8-3-1.9-3.6-3.3c-0.4-0.8-0.5-1.4-0.5-3.7c0-1.5,0.1-3.2,0.2-3.9c0.1-0.7,0.2-2.2,0.3-3.3
	c0.1-1.8,0-2.4-0.3-3.8c-0.2-0.9-1-3.7-1.6-6.2c-0.7-2.5-1.5-5.7-1.9-7.2c-1.9-6.7-1.9-7.4,0.3-13.4c1.4-3.7,2-5,3.5-6.9
	c1-1.3,1.9-3.1,1.9-3.8c0-0.1-0.6,0.3-1.3,1c-0.7,0.7-1.3,1.2-1.3,1.2s1.5-3,3.2-6.6c1.8-3.6,3.2-6.6,3.2-6.7c0-0.2-0.5-0.2-1.6-0.2
	c-2.3,0-3.3,0.6-5.4,2.9c-0.9,1-2.1,2.5-2.5,3.2c-0.5,0.7-0.9,1.2-1,1.2c-0.2-0.1,0.1-1.7,0.6-3.3c0.5-1.7,1.4-3.1,3.2-5
	c0.9-1,2.1-2.4,2.8-3.2l1.1-1.4l1.6,1.6c0.9,0.9,1.7,1.6,1.8,1.6c0.2,0-0.5-1.8-1.8-4.5l-1.1-2.2l1.8-2.3c4.1-5.4,8.1-12.1,9.9-16.8
	l0.4-1.1l-2.1,2.1c-4.3,4.2-9.5,11.1-12.6,16.6l-0.9,1.5l2.3,2.7l-1.3,1c-2.9,2.1-5.6,5.1-6.8,7.6c-0.6,1.2-1.8,3-2,3
	c-0.4,0-0.3-2.1,0.3-3.8c0.2-0.8,0.6-2.6,0.8-4c1-8.3,2.5-11.8,6.5-15.7c0.8-0.8,1.4-1.5,1.4-1.6c0-0.3-1.4-0.2-2.9,0.3
	c-1.3,0.4-4.3,2.1-4.8,2.8c-0.1,0.2-0.3,0.6-0.4,0.9c-0.1,0.3-0.6,1.5-1.1,2.7c-3.2,7-4.8,14.7-3.9,18.8c0.6,2.5,0.1,2.7-1.7,1
	c-1.4-1.3-2.5-3.5-3-5.9c-0.5-2.4-0.4-9.2,0.3-12.6c0.5-2.6,2.3-8.2,2.8-8.7c0.3-0.3,0.3-0.3,0.6,0c0.3,0.3,0.3,0.5,0,1.8
	c-0.2,1.1-0.3,1.7-0.1,2.5c0.2,1.3,1,3,1.3,3c0.4,0,0.9-1,0.9-1.9c0-0.5,0.2-2.5,0.5-4.5c0.3-2.1,0.6-4.6,0.6-6.3l0.1-2.8l1.3-2.7
	c0.7-1.5,2-4.1,2.7-5.7c1.5-3.4,2.4-4.8,4.5-7.2c1.9-2.2,4.1-3.9,9.1-7.3c3.4-2.3,4.4-2.8,5.6-3.1c2-0.5,3.9-1.5,6.1-3.2
	c1-0.8,1.9-1.3,2-1.3c0.1,0.1,0.2,1,0.2,2.1c0.1,2.2,0.4,3,1.2,3c0.6,0,1-1,1.3-3.6c0.3-2.6,0.6-3.8,1.6-5.7c1.1-2.2,3.1-4.2,7-7.1
	c5-3.7,7.9-6.9,8.2-8.7c0.1-0.7,0.1-0.9-0.3-0.9c-0.6,0-1.2,0.4-3,2.1c-2.1,2-3.8,3.3-4.3,3.3c-0.6,0-0.6-0.3-0.1-0.8
	c1-0.9,2.8-3.8,3.4-5.4c0.3-0.9-0.1-0.8-0.8,0.2c-0.4,0.5-1.5,1.6-2.5,2.4c-2.7,2.2-3.3,2.8-5.5,5.5c-3.5,4.3-5.6,5.9-13,10
	c-2.3,1.3-4.6,2.6-5.2,3c-0.6,0.5-1.3,0.8-2,0.9c-1.7,0.2-2.5,0.5-3.4,1.3c-1.3,1.1-1.7,1.2-3.6,1.2c-3.8,0-6.8,0.9-12,3.4
	c-3,1.5-3.7,1.9-5,3.2l-1.5,1.4l1.5-4.4c0.8-2.4,1.7-4.9,2-5.6c0.2-0.6,0.4-1.2,0.4-1.2s-0.5,0.2-1.1,0.6c-1.2,0.7-2.5,2.1-4.6,4.8
	c-2.1,2.6-2.1,2.6-2.5,2.4c-0.2-0.1-0.7-0.2-1.1-0.2c-0.8,0-1.1-0.4-1.1-1.1c0-0.7-0.5-0.6-1,0.2l-0.4,0.7l-0.5-0.6
	c-0.7-0.8-0.7-1.5,0.2-3.9c2.1-6,3.6-9.3,5.5-11.4c0.8-0.9,1.4-1.7,1.4-1.8c0-0.4-1.4,0.1-2.4,0.8c-1.6,1.2-3.6,3.4-5.3,6.1
	c-1.6,2.5-3.1,4.1-3.3,3.5c-0.1-0.5,1.1-4,2.1-5.9c0.7-1.5,6.7-12,8-14.1c0.3-0.4,0.5-0.8,0.5-0.9c0-0.2-1.6,0.3-2.4,0.7
	c-0.8,0.4-7.4,6.9-9.3,9c-0.9,1-1.7,1.8-1.9,1.8s-0.4-0.1-0.4-0.1c0-0.4,1.2-5.6,1.5-6.8c0.6-2,2.1-4.7,3.1-5.8c2-2,2.3-4.2,1.4-8.2
	c-0.7-2.8-0.7-3.2-0.1-4.8c0.2-0.7,0.4-1.3,0.4-1.3c-0.1-0.1-0.5-0.2-1-0.3c-1.4-0.2-1.3-0.7,0.3-2.4c1.4-1.4,1.8-2.2,1.2-2.2
	c-0.1,0-0.6-0.1-1-0.1c-0.4,0-0.8-0.1-0.8-0.2c-0.1-0.1,0.1-0.5,0.5-0.9c1-1.3,1.1-1.4,0.8-1.6c-0.1-0.1-0.7-0.3-1.3-0.3
	c-1.2-0.1-2-0.3-2-0.6c0-0.1,1.9-2.1,4.1-4.5l4.1-4.3l-0.5-0.8c-0.4-0.7-0.4-0.8-0.2-1.1c0.2-0.2,1.5-1.8,3-3.6
	c4.6-5.6,7.9-8.7,11.5-11.1c4.8-3.1,10-4.7,16.4-4.9c5.1-0.1,7.4-0.9,12.7-4.4c5.8-3.8,14.5-7.5,19.4-8.3c2.5-0.4,11.2-0.5,12.2-0.1
	c0.3,0.1,0.9,0.7,1.2,1.2c0.4,0.5,0.7,0.9,0.8,0.9c0.1,0,0.8-0.3,1.4-0.7c1-0.5,1.5-0.7,2.8-0.7c2,0,3.2-0.3,7.8-2.2
	c4.2-1.7,5.2-1.9,6.6-1.2c1,0.5,1,0.5,2.8-0.4c2.9-1.3,4.1-1.5,8.8-1.5c6,0,8.7,0.5,17.9,3.1c2.1,0.6,5.4,1.4,7.4,1.9
	c2,0.4,4.3,1.1,5.3,1.4c2.4,0.9,5.5,2.5,7.7,4.1c1,0.7,2.1,1.4,2.3,1.6c0.3,0.2,0.2,0.3-0.8,0.5c-1.4,0.3-2.8,1-3.1,1.5
	c-0.3,0.6-0.3,2.1,0.2,5.8c0.9,7.4,1.9,11.2,5.3,22.7c0.8,2.5,1.4,4.8,1.4,5.1c0,0.4-0.1,0.4-0.9,0.3c-0.5-0.1-1.8-0.2-2.9-0.3
	c-1.6-0.1-2.2,0-3.4,0.4c-1.5,0.5-3.2,1.4-3.2,1.7c0,0.1,0.5,0.8,1.1,1.6c1.1,1.5,1.8,3,1.7,3.8c-0.1,0.4-0.3,0.6-1.1,0.8
	c-0.6,0.1-1.1,0.3-1.3,0.4c-0.9,0.6-0.6,3.4,0.6,6.4c0.5,1.1,1,2.5,1.2,3.2c0.4,1.4,1.5,2.5,2.4,2.7c1.3,0.3,1.7,0.6,2.9,2.9
	c1.8,3.2,2.2,4.7,2.1,7.5c-0.1,1.8-0.2,2.6-0.6,3.4c-0.6,1.3-0.8,1.4-1.7,1.1c-0.5-0.2-0.7-0.2-1,0.1c-0.2,0.2-0.8,2.8-1.5,5.7
	c-1.8,7.9-2.7,11.4-3.6,14.1c-1.1,2.9-2.8,6.6-3,6.5c-0.1,0-0.2-1.3-0.3-2.8c-0.1-2.3-0.2-2.8-0.7-3.8c-0.6-1.3-3.5-4.9-3.9-4.9
	c-0.1,0-0.5,0.3-0.8,0.7c-0.3,0.4-0.8,0.6-1,0.6c-0.3,0-0.5-0.2-0.7-1.6c-0.1-0.9-0.4-2.8-0.4-4.2c-0.2-3.2-0.5-4.3-1.5-6.5
	c-1.9-4-7.2-9.8-9.7-10.6c-0.6-0.2-0.7-0.2-0.9,0.2c-0.4,0.7,0.1,1.5,2.6,4c3.2,3.3,6.3,8,7.3,11.1c0.3,0.9,0.4,2.2,0.4,5
	c0.1,6.5,1.2,10.8,4.4,17.6c4.6,9.8,6.2,16.4,5.6,23.7c-0.2,2.8-1,7.6-1.3,8.2c-0.1,0.2-0.7-0.7-1.8-3c-0.9-1.8-2.2-4.2-2.9-5.3
	c-1.8-2.7-6.2-8.2-7.7-9.5c-4.7-4.2-17.2-7.1-28.4-6.4c-8.1,0.5-14.7,1.5-18.8,2.8c-1.1,0.3-2.2,0.6-2.4,0.6c-0.2,0-0.8,0.2-1.2,0.4
	c-0.4,0.2-1,0.4-1.3,0.4c-1,0-4.4,1.2-7.4,2.7c-3.2,1.6-6.6,3.8-9.4,6.1c-3,2.5-7.6,7.1-8.5,8.5c-0.4,0.7-1.1,1.4-1.4,1.7
	c-0.4,0.2-1.5,1.6-2.6,2.9c-1.8,2.3-2.5,3-3.9,3.9c-1,0.6-1.2,1.2-1,2.5c0.2,1,0.2,1.2-0.3,1.9c-0.3,0.5-1,1.8-1.5,3
	c-0.8,1.9-1.1,2.2-2.1,3c-1.8,1.3-1.8,1.4-1.7,4.2c0.1,2.2,0.1,2.5-0.4,3.7c-0.3,0.7-0.8,2.3-1,3.5c-0.3,1.2-0.8,3.5-1.2,5.2
	c-0.9,4-1.3,7.1-1.6,12.2c-0.1,2.3-0.3,4.3-0.3,4.5c-0.2,0.7-0.1,14,0,14.1c0.1,0.1,0.3,0,0.5-0.2c0.3-0.3,0.4-1,0.5-3.7
	c0.1-1.8,0.2-3.5,0.4-3.7c0.3-0.5,1.2-1.3,1.2-1.1c0,0.1,0.5,2.4,1.1,5.2c1.4,6.6,2.7,11.5,4.4,17.5c0.8,2.7,1.6,5.4,1.8,6
	c0.3,1,0.4,1.1,0.5,0.6c0.3-1.1,0.2-3.2-0.4-5.1c-0.3-1.1-0.8-3.5-1.1-5.5c-0.3-2-0.7-4.6-1-5.8c-0.2-1.2-0.7-4.4-1-7.1
	c-0.3-2.7-0.6-5.5-0.8-6.2c-0.1-0.7-0.3-2.4-0.3-3.7c-0.1-1.3-0.3-3.4-0.4-4.7c-0.4-2.6-0.2-3.2,0.5-2.4c0.3,0.3,0.5,1.1,0.8,2.5
	c0.9,4.9,2,9,4.3,15.8c1.3,3.9,2.9,8.2,3.5,9.6c2.5,6.4,7.2,14.4,11.2,19.3c3.5,4.2,8.1,7.4,13.3,9c5,1.6,9.4,2.4,13.5,2.6
	c1.5,0.1,3.2,0.2,3.7,0.3c0.5,0.1,2.7,0.2,4.9,0.1c3.9-0.1,7.6-0.5,15-1.7c1.8-0.3,3.2-0.4,3.2-0.4c0,0.1-0.9,1.1-2.1,2.3l-2.1,2.2
	l1.1,0c1.7,0,4.3,0.5,6,1c1.9,0.6,4.7,2.2,6.6,3.7c1,0.8,1.8,1.5,1.9,1.5C384.1,374.7,384.3,373.9,384.6,372.9z M234.8,374l1.1-1
	c0.6-0.5,1.7-1.4,2.5-1.8c0.8-0.5,2.2-1.1,3.2-1.5c3-1.1,5-1.3,13.7-1.3l7.8,0l-1.9-1.1c-3-1.8-6.9-4.5-11.1-7.6
	c-4.7-3.6-6.9-5.4-11.7-10c-2.1-2-4.6-4.4-5.6-5.3c-2-1.9-3.8-4.4-4.7-6.6c-0.6-1.5-1.2-3.8-1.2-4.9c0-0.5-0.3-1.1-1.3-2.4
	c-0.7-0.9-3.2-4.5-5.5-8c-8.1-12.3-9.3-13.9-12.6-17.4c-3.3-3.4-4.6-4.4-15.9-11.4c-3.2-2-6.4-4.1-7.2-4.7c-1.2-0.9-1.5-1.1-2-1
	l-0.6,0.1l1.8,3.7c9.9,20.6,26.5,47.7,46.2,75.3L234.8,374z M381.9,368.4c-0.3-0.5-0.4-3-0.1-3.7c0.4-1,1-1.5,3.7-2.9l2.1-1.1l0,0.9
	c0,2.1-1.4,4.3-3.7,6C382.3,368.7,382.1,368.8,381.9,368.4z M350.5,362.3c-0.6-0.2-1.8-0.5-2.6-0.8c-1.9-0.7-2.1-0.7-3.7,0
	c-1.7,0.7-3.4,0.7-5,0c-0.7-0.3-1.6-0.6-2-0.7c-1.1-0.2-1.9-0.7-2.3-1.3c-0.3-0.5-0.3-0.6,0-0.9c0.3-0.3,0.4-0.3,1-0.1
	c0.5,0.2,0.7,0.2,0.9,0c0.2-0.2,0.1-0.4-0.4-0.8c-0.8-0.7-1.4-0.6-2.9,0.8c-1.3,1.2-1.7,1.3-3.7,0.6c-2.6-0.9-2.3-1.6,0.9-2.4
	c1.2-0.3,3.1-1,4.4-1.6c1.2-0.6,2.3-1.1,2.3-1c0,0,0.2,0.8,0.4,1.7c0.4,1.8,1.2,3.6,1.7,4.1c0.3,0.3,0.6,0.2,2.4-0.3
	c1.2-0.4,2.2-0.8,2.5-1.1c0.3-0.3,1-0.9,1.7-1.3c0.7-0.4,1.3-0.9,1.3-1.1s0.2-0.3,0.3-0.3c0.1,0,0.7,0.8,1.4,1.9
	c1.2,1.8,2.2,2.7,2.9,2.7c0.6,0,2.3-1,4.4-2.5c2.1-1.6,2.2-1.6,3.5,0c1.1,1.2,2.4,2.1,3.1,2.1c0.4,0,1-0.5,2.5-2
	c1.6-1.6,2-1.9,2.6-1.9c0.4,0,0.8,0.2,1.1,0.4c0.2,0.2,0.8,0.7,1.3,1c1.1,0.6,1.3,0.6,3-1c0.6-0.6,1.2-1.1,1.3-1
	c0.1,0,0.8,0.3,1.6,0.7c1.5,0.7,1.9,1.3,1.2,1.9c-0.3,0.2-0.5,0.2-1.2-0.1c-0.9-0.3-0.9-0.3-1.1,0c-1,1.7-2,2.1-4.2,2
	c-1.8-0.1-2.9,0.1-4.7,1c-1.1,0.5-1.8,0.7-3.1,0.8c-2.3,0.1-3.2-0.2-4.1-1.7c-0.7-1.2-0.7-1.1-1.2-0.8c-0.3,0.2-0.4,0.4-0.3,1.1
	l0.1,0.9l-1.3,0.6c-1.3,0.6-3.4,1-4.4,1C351.9,362.6,351.1,362.4,350.5,362.3z M352.5,357.3c-0.1,0-0.6-0.1-1-0.2
	c-1.2-0.2-1.9-1-1.9-2.2c0-0.8,0.1-1.1,0.8-1.7c0.4-0.4,1-0.7,1.2-0.7c0.6,0,1.2-0.4,1.5-1c0.3-0.8,1.2-1.1,1.9-0.6
	c0.6,0.4,0.6,1-0.2,1.2c-0.4,0.1-0.3,0.2,0.9,0.5c0.8,0.2,1.8,0.4,2.2,0.4c0.8,0,1.4,0.5,1.4,1.1c0,0.7-1.2,2.1-2.4,2.7
	C355.8,357.2,353.1,357.6,352.5,357.3z M340.1,356.5c-1.2-0.5-1.4-1.8-0.7-3.8c0.5-1.3,1.9-2.7,2.6-2.7c0.2,0,0.8,0.3,1.3,0.8
	c1.2,1.1,2.6,1.7,4.1,1.6c0.7,0,1.4,0.1,1.7,0.2c0.4,0.2,0.3,0.3-1,1.6c-2,1.9-3.1,2.4-5.5,2.5C341.5,356.7,340.4,356.7,340.1,356.5
	z M360.3,356c-0.3-0.3-0.6-0.8-0.6-1.1c0-0.7,0.7-1.6,1.5-2c0.6-0.3,0.8-0.3,2.1,0.1c1.4,0.5,1.5,0.5,2.3,0.1
	c0.4-0.2,1.1-0.8,1.5-1.2c0.6-0.8,0.8-0.8,1.7-0.8c0.7,0,1.1-0.1,1.1-0.3c0.1-0.2,0.5-0.3,1.4-0.3c1.4,0,2.5-0.4,3-0.9
	c0.1-0.2,0.4-0.9,0.5-1.6c0.2-1.2,0.3-1.3,1-1.6c0.4-0.2,0.9-0.6,1.1-0.9c1.8-2.9,3.3-5,4.8-6.4c1.8-1.9,5.3-4.9,5.6-4.9
	c0.3,0,1.4,1.2,1.4,1.5c0,0.4,0.4,0.3,0.5-0.2c0.2-0.7,0.2-2.8,0-3.1c-0.3-0.4-1-0.5-1.6-0.3c-0.3,0.1-1.4,1-2.4,2
	c-1.6,1.4-1.9,1.7-2.1,1.4c-0.5-0.6-0.9-2.3-0.9-4c0-0.9-0.1-2.4-0.2-3.3c-0.1-0.9-0.4-3.3-0.5-5.4c-0.2-2.1-0.5-5.3-0.6-7.1
	c-0.5-4.8-0.6-12-0.4-14.6c0.1-1.2,0.3-3.2,0.5-4.5c0.1-1.3,0.4-2.9,0.6-3.6c0.2-0.6,0.6-2.8,0.9-4.6c1.5-8.7,1.9-10.3,2.5-10.3
	s0.7,0.6,0.6,2.9c-0.1,1.3-0.2,2.5-0.3,2.6c-0.1,0.1-0.3,1.5-0.5,2.9c-0.3,2.6-0.9,5.7-1.4,7c-0.2,0.5-0.2,0.7,0,0.8
	c0.1,0.1,0.3,0.1,0.4,0.1c0.2-0.1,2.3-4.5,2.6-5.5c0.1-0.5,0.4-0.9,0.5-1.1c0.4-0.4,0.6,0.3,0.6,2.5c0,2.1-0.2,3.1-2.1,10.1
	c-0.6,2.2-1.2,4.6-1.4,5.4l-0.3,1.4l0.5-0.6c0.3-0.4,1-1.7,1.7-2.9c0.6-1.2,1.2-2.3,1.4-2.3c0.1-0.1,0.3,0.2,0.4,0.5
	c0.2,0.8-1.2,6.2-1.9,7.6c-0.6,1.1-0.5,2.2,0.1,2.2c0.2,0,0.4-0.2,0.5-0.5c0.1-0.3,0.5-1.1,0.9-1.8c1.2-2,3.3-7.3,3.7-9.5
	c0.2-0.9,0.9-1.8,1.2-1.5c0.1,0.1,0.2,0.7,0.1,1.7c-0.4,4.5-0.6,5.8-0.9,7c-0.4,1.5-0.3,1.9,0.3,1.2c0.4-0.4,1.9-5.5,2.1-7.2
	c0.1-0.7,0.7-1.2,1.3-1c0.4,0.2,0.7-0.7,0.7-2.1c0-0.6,0.1-1.5,0.3-1.9c0.2-0.7,0.3-0.4,0.4,2.5l0.1,3.2l0.5-0.8c1-1.6,2-6.6,2.2-11
	c0.1-1.8,0.2-3.3,0.3-3.4c0.3-0.3,1.1,2.9,1.2,5.3c0.1,2.4,0.2,2.5,0.5,2.1c0.3-0.3,0.4-0.8,0.4-4c0-2.4,0.1-4,0.3-4.9
	c0.2-0.7,0.3-1.7,0.3-2.1c0-1.6,1-0.6,1.3,1.5c0.3,1.4,0.5,2,0.9,2c0.3,0,0.3-3.4,0-4.6c-0.1-0.5-0.4-1.7-0.6-2.8
	c-0.2-1-0.5-2.2-0.7-2.6c-0.6-1.6-0.2-2.5,0.7-1.7c0.3,0.3,0.6,0.5,0.6,0.4c0.1-0.1-0.2-1-0.5-2c-0.5-1.4-0.6-2.2-0.5-2.7
	c0.2-1.1,2-4.3,2.5-4.3c0.6,0,2.5,2.2,2.8,3.2c0.4,1.4,0.3,4.9-0.3,8.5c-0.3,1.9-0.5,4.1-0.5,5c0,0.9-0.1,1.8-0.2,1.9
	c-0.1,0.2-0.5,0.4-0.9,0.4c-1.1,0.2-1.1,1.1,0,3.9c0.6,1.5,1,2.8,1.1,3.9c0.1,1,0.4,2.1,0.8,2.9c0.4,1,0.5,1.4,0.4,2
	c-0.1,0.4-1.1,2.5-2.2,4.7c-2.2,4.3-3.1,6.7-3.7,9.5c-0.4,2.2-0.6,2.8-1.6,4.2c-0.4,0.6-0.9,1.6-1.1,2.4c-0.4,1.2-1.1,5.4-1.5,9.9
	c-0.1,1-0.3,2.1-0.4,2.5c-0.1,0.3-1,1.4-1.9,2.4c-1,1.1-2,2.4-2.6,3.5c-2.6,4.8-8,13.5-8.3,13.6c-0.6,0.2-1.2-0.3-1.2-0.9
	c0-0.3,0.3-1.1,0.6-1.9c0.7-1.6,3.1-8.8,3.4-10c0.1-0.7,0.1-0.7-0.3-0.5c-0.6,0.4-1.1,1.4-1.1,2.2c0,1.1-0.3,2.1-1.2,3.4
	c-0.4,0.7-0.9,2-1.2,3c-0.9,3.6-4.1,9.2-5.7,10c-0.8,0.4-1.5,0.1-2.9-1.1c-0.7-0.6-1.4-1.1-1.5-1.1c-0.2,0-0.9,0.6-1.7,1.3
	c-0.9,0.8-1.6,1.3-1.9,1.3c-0.3,0-1.1-0.4-1.7-0.8l-1.2-0.8l-0.6,0.6c-0.9,0.9-2.7,1.4-4.8,1.6C360.9,356.6,360.8,356.6,360.3,356z
	 M324.2,355.8c-0.9-0.6-1.9-2.1-1.9-2.9c0-0.3-0.2-1-0.4-1.7c-0.7-1.9-0.6-2.3,0.5-3.1l1-0.7l0.1,1.2c0.3,2.5,0.8,5.1,1.3,6.3
	c0.3,0.7,0.5,1.3,0.4,1.3C325.1,356.3,324.7,356.1,324.2,355.8z M326.7,355.5c-0.7-0.3-1.6-3-1.6-5.2c0-1.5,0.5-2.4,1.7-3.2
	c3.3-2.3,8.2-6.7,8.2-7.4c0-0.2-0.1-0.5-0.3-0.6c-0.2-0.2-0.1-0.4,0.7-1.1c3-2.4,5.5-5.4,5-5.9c-0.2-0.1-0.9,0.5-2.4,2.1
	c-2.1,2.2-2.9,2.7-3.3,2.1c-0.1-0.1-0.3-0.2-0.6-0.2c-0.3,0-0.4,0.1-0.4,0.6c0,1.6-1.5,2.1-2.2,0.7c-0.2-0.4-0.4-1-0.4-1.2
	c0-0.3-0.5-1.5-1.1-2.7c-1.1-2.3-1.6-3.9-1.9-5.9c-0.1-0.6-0.3-1.3-0.4-1.6c-0.2-0.3-0.4-1.3-0.5-2.3c-0.3-3-1.7-8-2.4-8.7
	c-0.1-0.1-0.2-0.5-0.2-0.9c0-1.2,0.5-0.8,2.4,2.1c0.3,0.5,0.6,0.9,0.7,0.8c0.2-0.2-0.8-3.4-1.2-4.1c-0.2-0.3-1-1-1.9-1.5
	c-2-1.1-2.9-2-3.1-3.1c-0.2-1.1-0.6-1.2-3.4-1.4c-1.1-0.1-2.1-0.1-2.1-0.2c0-0.5,0.8-2.1,1.3-2.6c3.6-3.8,6.4-5.6,9-6.1
	c0.7-0.1,1.7-0.4,2.3-0.6c1.7-0.6,4.8-0.5,6.6,0.1c0.8,0.3,1.7,0.7,2.1,1c0.4,0.3,1.4,0.9,2.2,1.5c3.2,2.1,4.5,4.8,7.2,14.6
	c0.8,3,1.6,5.6,1.7,5.8c0.6,0.9-0.3-3.5-1.7-9c-0.1-0.5-0.4-1.8-0.6-2.7c-0.2-0.9-0.5-2-0.7-2.4c-0.7-1.5-3.5-5.5-4.6-6.5
	c-0.6-0.5-1.1-1.1-1-1.1c0.4-0.4,4.4-1.2,6.6-1.3c3.8-0.2,6.7,0.6,9.8,2.7c0.7,0.5,1.4,0.9,1.5,0.9c1,0,5.2,5.8,7,9.6
	c1.4,2.9,1.6,4.2,1.4,10.3l-0.1,5.3l0.8,2.2c0.5,1.2,1.2,2.9,1.7,3.8c1.1,2.2,1.6,4,1.7,7l0.1,2.4l-1.1,1.4
	c-1.7,2.1-3.4,3.2-7.2,4.1c-3.6,0.9-9.3,1.1-12.6,0.5c-2.4-0.4-6.5-1.6-6.6-2c-0.2-0.4,0.3-0.9,0.8-0.9c0.2,0,0.7,0.1,1.1,0.3
	c0.4,0.2,0.7,0.3,0.9,0.2c0.3-0.2-0.3-1.3-1.1-2l-0.7-0.6l0.6-2.6c0.8-3.1,0.9-4.7,0.5-5c-0.3-0.2-0.4-0.1-0.6,0.9
	c-0.2,0.6-0.4,2-0.6,3c-0.3,2.5-1.1,5.1-2.4,8c-1.3,2.9-1.9,4-2.6,4.4c-0.3,0.1-0.8,0.6-1.1,1c-1.1,1.3-3.6,2.3-7.8,3.1
	C327.8,355.7,327.2,355.7,326.7,355.5z M187.6,351.6c0.5-0.2,1.4-0.9,2.1-1.5l1.2-1l-0.9-2.2c-0.5-1.2-1-2.2-1.1-2.3
	c-0.1-0.1-6.4,1.8-6.6,2c-0.1,0.1,0.9,3.5,1.2,4.1c0.4,0.7,1.8,1.4,2.7,1.4C186.4,352,187.1,351.8,187.6,351.6z M423.5,351.7
	c1.1-0.4,2-1.9,2.5-4.6l0.1-0.6l-3.3-1c-1.8-0.6-3.4-1-3.4-0.9c-0.1,0.1-0.6,1.1-1.1,2.3l-0.9,2.1l1.1,0.9c1.3,1.1,3,2.1,3.8,2
	C422.5,352,423.1,351.8,423.5,351.7z M317.4,348c-0.6-0.4-1.1-1.4-1.1-2.1c0-0.3-0.3-0.8-0.6-1.2c-0.3-0.4-1-1.3-1.4-2.1
	s-1.1-1.7-1.5-2.1c-0.6-0.7-0.7-0.8-0.6-2.3c0-1.4,0.1-1.6,0.7-2.1c0.4-0.3,0.6-0.8,0.6-1c0-0.7,0.7-1.1,1.8-1.1
	c0.5,0,1.1,0.1,1.2,0.2c0.4,0.3,0.7,1.1,0.7,1.8c0,0.6,0,0.6,0.8,0.5c1-0.2,1.3,0.5,0.6,1c-0.3,0.2-0.9,0.7-1.3,1.1
	c-0.6,0.5-1,0.7-1.3,0.6c-0.3-0.1-0.5,0-0.8,0.4c-0.4,0.6-0.4,1.3-0.1,1.3c0.3,0,4-2.7,5-3.7c0.9-0.9,2.6-1.1,3.2-0.5
	c0.9,1,0.2,3.4-2.5,8.4C318.9,348.4,318.5,348.8,317.4,348z M371.4,342.3L371.4,342.3c-0.4-1,0-5,0.6-5.7c0.5-0.6,3.7-2.1,4.4-2.1
	c0.8,0,1.7,0.8,2.1,1.7c0.4,1,0.4,3.4,0,3.7c-0.2,0.1-0.7,0.2-1.1,0.2l-0.8-0.1l0-1c0-0.6,0-1,0-1c0,0-0.8,0.9-1.6,1.9
	c-1.3,1.7-2.7,3.1-3.1,3.1C371.7,342.9,371.5,342.6,371.4,342.3z M370.6,334.9L370.6,334.9c-0.4-0.6-0.4-1.6,0-2
	c0.5-0.6,1.7-0.4,2.2,0.2c0.5,0.7,0.6,1.1,0.1,1.8c-0.2,0.4-0.6,0.5-1.2,0.5C371.2,335.3,370.9,335.2,370.6,334.9z M310,335
	c-0.1-0.2-0.3-0.7-0.4-1.1c-0.1-0.5-0.5-1.1-1.1-1.6c-1.2-1.1-1.2-1.8-0.3-3.1c0.3-0.5,0.7-1.3,0.9-1.8c0.4-1.5,1.1-1.4,2.5,0.3
	c0.9,1.1,0.8,1.5-0.4,1.7c-0.5,0.1-0.6,0.3-0.6,0.5c0.1,0.6,0.9,0.5,2.1-0.1c1.7-0.9,2.7-0.7,3.1,0.7c0.2,0.7,0,1.1-0.8,1.5
	c-0.4,0.2-1.4,1-2.2,1.8C311.3,335.4,310.4,335.7,310,335z M291.3,333.8c-0.1-0.5-0.2-1.9-0.2-3.2c-0.1-1.2-0.2-3.9-0.3-6
	c-0.1-2-0.3-4.6-0.3-5.7c-0.2-3.7-0.3-13.5-0.1-15.8c0.5-5.9,2.5-12.6,10.8-34.9c3-8.1,6.1-16.5,6-16.7c0-0.2-1.8,2.9-3.7,6.5
	c-8.3,15.9-14.7,32.4-16.1,41.6c-0.5,3.4-0.3,11.2,0.4,16.9c0.5,3.5,1,7.2,1.4,9.2c0.6,2.9,2,9.1,2.1,9.1
	C291.4,334.7,291.4,334.3,291.3,333.8z M266.1,331.3c-0.2-0.2-0.5-0.6-0.6-1c-0.3-0.8-0.8-1-1.4-0.4c-1.1,1-1.6,0.4-1.6-2
	c0-1.6-0.2-2.1-0.8-2.1c-0.4,0-0.9,1.1-0.9,2.1c0,1.8-0.6,1.7-1.6-0.2c-0.5-1-0.8-1.3-1.3-1.4c-0.5-0.1-0.7-0.3-0.9-0.9
	c-0.3-1.2-1.1-2.1-3.1-3.2c-3-1.8-6-4.4-7.4-6.5c-0.3-0.5-1.1-1.2-1.7-1.6c-0.6-0.4-1.4-1.1-1.7-1.6c-1.2-1.8-1.7-2.2-2.9-2.8
	c-0.7-0.3-1.7-0.9-2.3-1.3c-0.6-0.5-1.4-1-1.7-1.2c-0.8-0.4-1.7-1.4-2-2.2c-0.3-0.8-0.3-4.8,0-5.3c0.3-0.4,0.1-1.1-0.2-1.1
	c-0.1,0-0.3,0.2-0.4,0.5c-0.4,0.9-1,0.7-1.9-0.8c-1.1-1.8-1.2-2.4-0.9-3.6c0.4-1.2,0.4-2.4,0.1-2.9c-0.2-0.3-0.3-0.2-0.9,0.2
	c-0.4,0.3-0.8,0.5-1,0.4c-0.4-0.1-0.6-2.3-0.4-4c0.3-2.7,0.3-2.9-0.4-3c-0.8-0.1-1.2-0.8-1.4-2.4c-0.1-0.8-0.3-2.2-0.4-3.1
	c-0.2-0.9-0.3-2.4-0.3-3.1c0-1.6-0.2-2.2-1.6-3.8c-1.4-1.6-1.6-2.5-1.1-4.4l0.4-1.5l-0.5-0.8c-0.5-0.7-0.5-1.1-0.7-3.7
	c-0.1-3.4-0.5-4.9-2.6-11.9c-0.8-2.6-1.6-5.3-1.7-6.1c-0.4-1.9-0.4-5.5,0-7.2c0.2-0.7,0.3-1.6,0.3-1.9c0-0.4,0.3-0.9,0.9-1.5
	c0.5-0.5,1.3-1.7,1.8-2.6c1-1.8,1.4-2.4,1.6-2.4c0.1,0,0.3,0.3,0.5,0.8c0.4,1,0.9,1,1.1,0c0.1-0.4,0.6-1.6,1.1-2.5
	c1.2-2.2,2.1-4.9,2.7-7.6c0.5-2.4,1-3.2,2.1-3c0.3,0.1,0.6,0.2,0.7,0.3c0.1,0.1-0.1,0.8-0.4,1.6c-0.9,2.3-1.9,6.8-1.6,7.1
	c0.3,0.3,0.5-0.2,1.4-3.1c0.3-1.1,0.8-2.3,1-2.7l0.4-0.7l0.2,0.6c0.1,0.4,0.3,1.3,0.3,2.2c0,1.3-0.2,2.2-1.9,7.4
	c-1.8,5.6-3.2,9.7-4.2,12c-1,2.4-1.3,3.7-1.4,6.2l-0.1,2.5l1-1.5c3.7-5.8,4.9-7.3,7.4-9l1.5-1.1l0.1,1.3c0,0.8-0.1,1.9-0.4,3
	c-2.3,8.6-2.8,11.4-3,16.4c-0.1,3.1,0,4,0.3,5.7c0.2,1.1,0.4,1.9,0.5,1.6c0-0.2,0.4-3,0.8-6c0.8-5.3,1-6.3,1.8-7.7
	c0.2-0.3,0.4-0.9,0.5-1.3c0.1-0.9,0.7-1.3,1.1-0.7c0.3,0.4,0.2,2.6-0.4,7.2c-0.5,4.3-0.6,9.9-0.2,13.4c0.2,1.3,0.4,2.4,0.4,2.4
	c0.4,0,0.7-1.4,0.8-3.3c0.1-1.5,0.2-2.6,0.6-3.6c2.4-6.8,2.7-7.5,3.3-8c0.3-0.3,0.6-0.5,0.7-0.4c0,0-0.1,0.5-0.3,1
	c-0.2,0.6-0.4,2.3-0.5,4.1c-0.1,1.7-0.3,3.4-0.4,3.7c-0.3,0.8-0.3,14.9-0.1,16.9c0.2,1.5,0.4,2.3,1.3,6.4c0.2,1.1,0.6,2.7,0.8,3.6
	c0.4,2,2.2,5.5,3.5,7.1c0.6,0.7,1.2,1.3,1.3,1.4c0.6,0.2,0.6-3.1-0.1-7c-0.6-3.1-0.6-5.8-0.1-8.2c0.2-1,0.3-2,0.3-2.4
	c0-0.4,0.2-0.8,0.4-1c0.5-0.4,0.6-0.3,1.3,1c1,2,1.2,2.9,1.2,6.4c0.1,3.6,0,3.4,2.4,11c0.8,2.5,0.9,3.7,0.6,6.1
	c-0.2,2.1,1,5.2,2.8,7c1.2,1.3,3.1,2.5,3.4,2.2c0.1-0.1,0.3-1,0.5-1.9c0.6-2.7,2-7,2.4-7.2c0.2-0.1,0.7,0.1,1.1,0.4s1,0.6,1.1,0.6
	c0.5,0,1.1,0.7,1.1,1.3c0,0.9,0.4,2.1,0.8,2.1c0.2,0,0.7-0.2,1.2-0.4c0.5-0.2,0.9-0.4,1-0.4c0.1,0,0.1,0.5,0.1,1.2
	c0,1.7,0.7,2.2,3.2,2.2c2,0,2.2,0.3,4.5,4.8c1.1,2.1,2.2,4.2,2.4,4.6l0.5,0.7l-0.5,0.1c-0.3,0.1-1,0.2-1.6,0.2
	c-2.7,0.3-6.1,2-8.7,4.4c-0.8,0.7-1.6,1.4-1.7,1.4C266.5,331.7,266.2,331.5,266.1,331.3z M369.2,331L369.2,331
	c-1.2-1.2-0.6-2.3,1.4-2.5c1.7-0.1,2.3,0.2,2.2,1.2c0,0.5-0.3,0.8-0.9,1.3C370.8,331.8,370,331.8,369.2,331z M388.5,327.7
	c0.5-3,0.2-10.1-0.4-11.3c-0.6-1.2-1,9-0.5,11.9C387.9,330,388.1,329.9,388.5,327.7z M367.5,327.4c-0.7-0.8-0.8-1.1-0.5-1.6
	c0.3-0.4,1.2,0,1.7,0.8c0.5,0.8,0.6,1.2,0.1,1.4C368.3,328.3,368.2,328.2,367.5,327.4z M302.7,309.5c-0.4-1.5-0.7-3.4-0.7-4.5
	c0-0.6-0.2-2.5-0.4-4.1c-0.2-1.7-0.5-4.6-0.6-6.6l-0.1-3.6l0.6-0.8c0.4-0.6,0.6-1.1,0.6-1.7c0-0.8,0.8-2.8,1.1-2.8
	c0.1,0,0.3,0.2,0.5,0.4c0.4,0.4,0.4,0.5,0,2.1c-0.2,1-0.4,3-0.5,4.9c-0.1,3.3,0.3,10.9,0.6,11.8c0.3,0.7,0.5,4.4,0.3,5.1
	c-0.1,0.4-0.3,0.6-0.7,0.6C303,310.3,302.9,310.1,302.7,309.5z M376.5,306.3c-0.4-1.2-0.8-4.9-0.8-7.6c0-3.5,0.5-6.3,1.5-9.1
	c0.3-0.9,0.8-2.1,1-2.7c0.4-1.2,1.1-1.7,1.6-1.2c0.3,0.3,0.3,0.6-0.4,2.7c-1.2,4-1.5,6.1-1.8,9.8c-0.1,2-0.4,4.4-0.5,5.5
	c-0.2,1.1-0.4,2.2-0.4,2.5C376.7,306.7,376.7,306.7,376.5,306.3z M118.9,300.5L118.9,300.5c-6-0.4-13.2-1.2-17.1-2
	c-3-0.6-7.9-2.2-11.2-3.7c-2.9-1.3-8.9-4.7-9-5c-0.1-0.4,4.2-2.5,7.3-3.6c7.2-2.6,14.5-4.3,22.7-5.3c3.9-0.4,18.8-0.6,23.9-0.3
	c8.1,0.5,14.4,1.8,21.3,4.1c5.9,2,8.8,3.8,12.7,7.7l1.9,1.9l-2.6,1.1c-2.9,1.2-6,2.2-8.4,2.7c-3.6,0.7-13.9,1.8-21.5,2.3
	C134.6,300.8,123.3,300.8,118.9,300.5z M468.6,300.5c-8.5-0.5-18.6-1.7-22.5-2.7c-3.7-1-9.2-3.1-9.2-3.6c0-0.4,4.8-4.7,6.7-5.9
	c5-3.3,14.6-6.2,25-7.4c2.7-0.3,5-0.4,13.7-0.4c10.7,0,12.4,0.1,18.5,1c8.7,1.3,19.2,4.4,24.6,7.3c0.7,0.4,1.3,0.8,1.3,0.8
	c0.3,0.4-8.3,5-12.3,6.5c-6.1,2.4-13.4,3.6-25.6,4.3C484.6,300.8,473.4,300.8,468.6,300.5z M366.6,290.8L366.6,290.8
	c-0.8-0.8-1.8-1.1-3.9-1.1c-1.5,0-1.7,0-2-0.5c-0.5-0.8-0.7-2.1-0.6-4.1c0.1-1.5,0.1-1.7,0.6-2c0.8-0.5,1.4-0.1,1.4,0.9
	c0,0.4,0.1,0.8,0.2,0.8s0.2-0.6,0.2-1.3c0-2,0.1-2.4,0.8-2.2c0.9,0.2,1.1,0.6,1.3,1.7c0.1,0.5,0.2,1.1,0.4,1.1
	c0.1,0.1,1.5,0.2,3.1,0.2h2.8l0.7,0.6c0.5,0.5,0.7,0.8,0.7,1.5c0,1-0.8,2.3-1.6,2.6c-0.4,0.1-0.6,0-2.4-1.5c-1-0.9-1.5-0.9-2.4-0.3
	c-0.7,0.5-0.1,1,1.2,1c0.9,0,1.2,0.1,1.7,0.6c0.8,0.8,0.8,1.1,0.1,2C368.2,291.7,367.4,291.7,366.6,290.8z M426.2,288.2l0.6-1.2
	c0.4-0.7,1.4-2.8,2.2-4.8c11-24.4,16-43.4,18-68c0.4-4.5,0.4-21.9,0-26.7c-0.6-7.8-1.1-12.3-2.3-19.2c-0.7-4.2-0.9-5.2-1-4.2
	c0,0.2-0.2,0.9-0.4,1.6c-0.3,1-0.4,1.4-0.2,2.9c0.4,3.6-0.4,7.8-2.1,10.1c-0.5,0.6-0.8,1.4-0.9,2.1c-0.1,0.6-0.4,1.7-0.7,2.5
	c-0.6,1.6-0.6,1.1-0.4,9.1c0.1,4.1,0.1,8.1-0.1,11.2c-0.1,2.7-0.3,5.9-0.4,7.1c-0.2,4.9-0.6,7.6-1.4,11.7c-1.2,6-1.8,7.5-3.9,9.4
	l-0.9,0.8l0.7,3.6c1.4,7,1.7,10.3,1.2,12.6c-0.2,0.8-0.4,2.2-0.5,3.1c-0.4,3.1-1.4,5-3.6,7.1l-1.3,1.2l0,2.4c0,2,0,2.6,0.5,3.7
	c1.1,2.8,1.1,5.6,0.1,10.6c-0.2,1.1-0.4,2.1-0.4,2.1c0,0-0.7,0.4-1.5,0.9c-1.3,0.7-1.5,0.9-1.5,1.4c0,0.8-0.6,2.8-1.1,3.7l-0.4,0.8
	l0.8,1.2L426.2,288.2z M372.1,284.3c-0.4-0.6-2-1-3.8-1c-2.1,0-2.6-0.2-3.2-1.4c-0.2-0.5-0.4-1.2-0.3-2.4c0-2.4,0.1-2.6,1.4-2.6h1.1
	v-0.7c0-0.9,0.8-1.6,1.8-1.6c0.6,0,0.6,0,0.6-1.1c0-1.4,0.5-2.4,1.2-2.4c0.4,0,0.6,0.2,0.8,0.7c0.2,0.5,0.3,0.6,0.3,0.3
	c0-0.2,0-0.5,0-0.6c-0.1-0.6,0.3-1.7,0.9-2.4c1.2-1.3,2.8-0.9,3.3,0.8c0.1,0.3,0.5,1,1,1.7c0.7,1.1,1.1,1.3,2.6,2
	c0.9,0.4,1.8,0.9,1.9,1.1c0.1,0.3-1.1,1.8-1.5,1.8c-0.1,0-0.7-0.5-1.4-1.1c-0.9-0.7-1.5-1.1-1.9-1.1c-0.7,0-2.2,0.7-1.7,0.8
	c0.2,0,0.8,0.1,1.4,0.2c1.3,0.2,2.3,1,2.3,2c0,1-1.3,1.5-2.2,0.8c-0.5-0.4-1.1-0.4-1.3-0.1c-0.1,0.1,0.2,0.6,0.8,1
	c1.1,1,1.2,1.7,0.2,2.5c-0.8,0.7-1.1,0.7-1.7,0c-1.2-1.3-3.1-1.7-5-1c-1,0.3-1,0.3-1.5-0.1c-0.6-0.6-1.3-0.5-1,0.2
	c0.2,0.4,0.5,0.4,3.1,0.5c2.7,0.1,2.9,0.1,3.6,0.6c0.8,0.6,1,1.1,0.8,1.7C374.3,284.3,372.5,284.9,372.1,284.3z M333.2,281.6
	c-1.2-1.2-2.3-3-2.9-4.5c-0.2-0.6-0.6-1.2-0.8-1.3c-0.7-0.4-1-1.4-0.9-3.4c0-1.9,0-2.1-1.1-5c-0.6-1.7-1.4-4.1-1.7-5.4
	c-0.5-2-0.5-2.4-0.3-3.1c0.3-0.9,0.1-1.6-0.8-3.4c-0.7-1.5-0.7-2.2,0.4-3.4c1.2-1.5,2.1-1.8,4.4-1.7c2,0.1,3.2,0.6,4.8,1.9l0.9,0.7
	l0.1-1.2c0.1-1.2,0.1-1.2,0.8-1.2c0.5,0,0.9-0.2,1.4-0.7c1.1-1.1,1.2-1.4,1.4-2.3c0.2-1.1,1-1.6,3.4-2.2c3.1-0.7,4-0.6,6,1
	c0.5,0.4,0.9,0.7,1,0.7c0.1,0,0.8-0.5,1.4-1.1c1-0.9,1.3-1.1,1.9-1c0.4,0,0.7,0.1,0.7,0.2c0,0.3-3.3,4.7-3.5,4.7
	c-0.1,0-0.9-0.5-1.6-1.1c-1.7-1.4-2.7-1.9-3.9-2.1c-0.9-0.1-1-0.1-2.4,1.2c-1.2,1.1-1.6,1.7-2.5,3.5c-0.6,1.2-1.2,2.6-1.3,3.2
	c-0.2,0.8-0.3,1-0.7,1c-0.3,0-0.6-0.2-0.7-0.5c-0.2-0.4-0.2-0.4-0.1,0.4c0.1,0.5,0.2,1.6,0.4,2.6c0.4,2,0.4,3.9,0.1,6
	c-0.1,0.8-0.3,3.8-0.4,6.6c-0.1,2.8-0.3,5.7-0.5,6.5c-0.1,0.8-0.3,2.1-0.4,3c-0.1,1.1-0.3,1.7-0.6,1.9
	C334.4,282.8,334.1,282.7,333.2,281.6z M389.7,282.5c0-0.1-0.5-1.1-0.9-2.2c-1-2.5-1.1-4.1-0.3-6.1c0.6-1.7,0.6-2.3-0.2-4.5
	c-1.1-3.3-1.8-7-2.4-12.7c-0.3-2.5-0.2-3.6,0.3-4.6c0.4-0.7,1.7-1.9,2.1-1.9c0.4,0,2.1,1.9,3.1,3.4c1.2,1.9,1.6,3.3,1.5,5.5
	c-0.1,1-0.2,5.2-0.3,9.4c-0.1,5.5-0.3,7.9-0.5,8.9C391.5,279.7,390,282.9,389.7,282.5z M310.2,275.5L310.2,275.5
	c-1.5-1.3-1.9-3.7-0.9-5.8c0.8-1.6,2.7-4.4,3.7-5.5c1-1.1,1.6-1.2,3.7-0.5c1.8,0.6,3.3,2,4,3.6c0.4,1,0.5,1.7,0.5,3.7
	c0,2.8-0.3,3.7-1.3,4.1c-0.8,0.3-4.8,0.3-5.7,0c-0.6-0.2-0.8-0.2-1.3,0.3C312.1,276.3,311.1,276.3,310.2,275.5z M119,274.2
	c-1-0.1-3.7-0.5-6.2-0.9c-12.7-2.1-23.2-5.3-33.2-10.1c-5.5-2.6-9-5.4-11.3-8.8l-1.1-1.6l0.5-0.3c0.8-0.4,5.7-2,8.3-2.7
	c3.1-0.8,7.1-1.6,10.6-2.1c4-0.6,14-0.6,17.9,0c14.8,2,27.6,7.8,39.6,17.8c2,1.7,7,6.5,7,6.7c0,0.1-0.9,0.6-2.1,1.1l-2.1,0.9
	l-13.1,0.1C126.6,274.3,120,274.3,119,274.2z M460.5,273.8c-2-0.8-3.5-1.5-3.5-1.6c0-0.1,1.2-1.3,2.8-2.8
	c15.8-15.1,34.7-22.8,54.8-22.2c6.6,0.2,12,1,18.4,2.8c3.3,0.9,7.4,2.3,7.8,2.6c0.3,0.3-1.8,3.2-3.4,4.9c-2.6,2.6-6.3,4.8-13,7.6
	c-9.2,3.9-19.1,6.6-32.1,8.7c-2.9,0.5-3.6,0.5-16.7,0.5C461.9,274.3,461.7,274.3,460.5,273.8z M379.1,272.8c-0.3-0.2-0.6-1.4-1.3-5
	c-0.5-2.6-0.9-5-0.9-5.2c0-0.7,1.6-2.4,2.3-2.4c0.7,0,0.7,0.3,0.5,2c-0.2,1.3-0.2,1.5,0.3,2.4c0.8,1.7,1.2,0.9,0.8-1.7
	c-0.2-1.3,0.2-1.9,1.3-1.9c0.8,0,0.9,0.1,1.7,2.4c0.5,1.4,0.6,1.9,0.6,4.3c0,2.6,0,2.8-0.6,3.6c-0.8,1.2-1.1,1.3-1.7,0.6
	c-0.2-0.3-0.6-0.6-0.9-0.6c-0.4,0-0.4,0.1-0.3,0.9l0.2,0.9h-0.7C379.8,273.1,379.3,273,379.1,272.8z M122.3,266.8
	c1.1-0.5,1.9-1.7,2.1-3.1c0.1-0.8,0.1-0.9-0.8-1.8c-1.2-1.1-2.1-1.6-2.9-1.6c-1.6,0-3.3,1.8-3.3,3.6c0,1.2,0.6,2.6,1.3,3
	C119.5,267.4,121.2,267.3,122.3,266.8z M489.9,266.7c0.2-0.2,0.6-0.9,0.8-1.5c0.4-1.5,0.1-2.6-1-3.8c-1.5-1.5-2.7-1.4-4.7,0.2
	l-1.2,1l0.1,1.1c0.1,1.3,0.9,2.5,2.1,3.2C487,267.4,489.2,267.3,489.9,266.7z M317.2,262.8c-1.4-0.8-1.9-1.3-1.7-1.4
	c0.2-0.1,0.9-0.4,1.7-0.7c1.4-0.5,1.5-0.5,2.1-0.1c0.6,0.3,0.8,0.3,1.4,0c1-0.5,1.3-0.1,1.2,1.4c-0.1,1.6-0.5,1.9-1.5,1
	c-1-0.8-1.2-0.7-1.1,0.2c0.1,0.4,0.1,0.8,0,0.8C319.2,264,318.3,263.5,317.2,262.8z M510.9,261.7l0.9-0.1c0.5,0,1.4-0.3,1.9-0.6
	c0.6-0.3,1.2-0.8,1.5-1.1c0.5-0.7,0.8-2.3,0.5-3.5c-0.2-1.1-1.4-2.3-2.5-2.7c-1.4-0.4-2.4,0-4.1,1.6l-1.5,1.4l1.7,2.5L510.9,261.7z
	 M98.9,259.2c1.9-2.8,1.9-2.5-0.2-4.2c-1.9-1.6-3.5-1.8-5-0.6c-1.2,1-1.8,3.2-1.1,4.8c0.6,1.4,2.3,2.5,4,2.5
	C97.2,261.6,97.4,261.5,98.9,259.2z M342,260.8c-0.1-0.2-0.5-1.5-0.8-3c-0.3-1.4-0.7-3.1-0.9-3.7c-0.2-0.6-0.3-1.4-0.3-1.6
	c0-1.2,1.8-2.5,4.2-3.1c1.4-0.3,1.5-0.3,2.4,0.1c2,0.9,2.9,2.8,3.1,6.2c0.1,2.2,0.2,2.1-1.8,3.6c-1,0.7-1.4,0.8-2,0.2
	c-0.6-0.7-0.9-0.5-1.8,0.6C343.3,261.3,342.4,261.6,342,260.8z M458.6,260c0.1-0.2,0.4-1.8,0.8-3.6c0.8-4,1.2-5.5,2.8-9.6
	c2.1-5.3,4.8-10.4,7.9-14.7c6.9-9.6,17.8-18.4,28.5-22.9c4.9-2,15.1-5,19.3-5.5c2.8-0.4,7,0,7,0.7c0,0.7-3.4,8.5-5.2,12
	c-5.1,9.9-7.1,12.5-14.3,18.5c-8.5,7-19.9,13.3-33.2,18.2c-6.1,2.2-10.6,4.6-12.7,6.6C458.6,260.4,458.4,260.5,458.6,260z
	 M148.9,259.8c-0.9-1-4.7-3.4-7.1-4.4c-1.3-0.6-4.1-1.7-6.2-2.5c-16.8-6.3-29.4-13.9-38.7-23.5c-2.8-2.9-4-4.6-7-10.2
	c-3.4-6.3-7.1-14.8-6.5-15.1c0.6-0.4,3.8-0.7,5.6-0.6c4.1,0.3,14.5,3.2,20.1,5.5c5,2.1,10.3,5.2,15.6,9.3c3.2,2.4,9.8,9,12,11.9
	c4.5,5.9,7.9,12.5,10.6,20.3c0.5,1.4,2.3,9.6,2.2,9.8C149.5,260.3,149.2,260.1,148.9,259.8z M382.7,257.9c-0.2-0.2-1.4-1.1-2.6-1.9
	c-2.9-1.9-3.7-3.2-3.7-5.4c0-1.4,0.6-2.4,1.8-3c0.7-0.3,1.2-0.4,1.7-0.3c1,0.2,2.2,1.1,2.9,2.1c0.6,0.9,0.6,0.9,0.7,5
	c0,2.2,0,4-0.1,4C383.3,258.4,383,258.1,382.7,257.9z M170.1,253.7c0.6-1.2,1.8-3.5,2.7-5.1c2.4-4.4,2.5-4.8,2.5-8.5
	c0-1.8,0.1-4,0.3-5l0.3-1.8l-1-0.7c-1.8-1.1-4.1-3.9-5.3-6.2c-1.7-3.3-4.4-12.3-5.5-18.5c-1.1-6-1.1-6.4-1.3-17.4
	c-0.2-10.6-0.4-14.3-0.7-13.2c-0.2,0.6-0.7,6.1-1.1,11.1c-0.4,5.6-0.3,20.6,0.1,26.1c0.9,10.9,2.4,20.4,4.7,30.2
	c0.9,3.8,3,11.3,3.2,11.2C169,255.9,169.5,254.9,170.1,253.7z M351.5,254.9c-0.5-1.1-0.5-2.9-0.1-4.5c0.7-2.4,3.3-4.2,6.1-4.5
	c2.5-0.2,3.5,0.3,5.3,2.5c0.4,0.5,0.6,0.7,0.7,0.5c0.1-0.2,0.3-0.4,0.5-0.7c0.5-0.5,0.3-1.3-0.2-1.3c-0.2,0-0.8-0.3-1.2-0.8
	c-0.5-0.4-1.4-1.2-2.2-1.6c-1.4-0.9-1.4-1-1.2-1.6c0.1-0.3,0.6-0.3,3.2-0.3c2.7,0,3.2-0.1,4.1-0.5c0.7-0.3,1.5-0.5,2.6-0.5
	c1.5,0,1.7,0.1,3.5,1c1.1,0.6,2.1,1,2.3,1c0.2,0,0.6,0.2,1,0.6c0.7,0.6,0.7,0.6,1.5,0.2c0.9-0.4,2.9-0.7,4-0.5
	c0.9,0.2,2.8,1.8,3.4,3c0.5,1,1.1,1.3,2.1,1.2c0.7-0.1,0.9-0.1,1.1,0.3c0.2,0.3,0.1,0.5-0.3,0.9c-0.3,0.3-0.9,1-1.3,1.6
	c-1.1,1.6-1.4,1.9-1.5,1.8c-0.1-0.1-0.5-1.1-0.9-2.3c-1.2-3.6-2.4-5.2-3.9-5.2c-0.8,0-1.2,0.2-3,1.6c-0.6,0.4-1.2,0.8-1.4,0.8
	c-0.2,0-0.9-0.6-1.7-1.4c-1.9-1.9-3.1-2.7-4.2-2.7s-3.5,1-3.6,1.5c-0.1,0.6,0.5,0.7,2.1,0.5c2.6-0.3,4.9,0.6,6,2.4
	c0.3,0.5,0.8,1.6,1,2.4c0.5,1.7,0.4,1.8-1.1,1.9c-5.5,0.2-5.4,0.2-6.8,0.8c-1.5,0.8-1.8,0.7-2.5-0.7c-0.7-1.4-1.1-1.2-1.1,0.5
	c0,0.5-0.1,0.9-0.4,1.2c-0.4,0.3-0.4,0.3-0.9-0.1c-0.7-0.5-2.7-0.6-4.9-0.1c-1.8,0.4-2.4,0.6-3.6,1.5
	C352.6,256.1,352,256,351.5,254.9z M314.5,253.9l1.4-1c0.8-0.6,2.9-2,4.7-3.3c8.6-5.8,17.4-9.4,28.2-11.9l3.2-0.7l-1.3-0.2
	c-2.1-0.3-8-0.2-10.3,0.2c-9.5,1.7-18.1,6.5-23.4,13.2c-1,1.2-2,2.6-2.2,2.9L314.5,253.9z M395.8,248.1L395.8,248.1
	c-0.9-2.4-2.1-4.1-4.3-6.3c-1.2-1.2-2.8-2.6-3.5-3c-3.3-1.9-7.2-3.1-10.4-3l-1.7,0l2.5,0.7c7.2,2.1,12.3,5.4,16.3,10.6
	c0.7,0.9,1.3,1.6,1.3,1.6S395.9,248.4,395.8,248.1z M398.7,248.6l0.1-1.1c0-0.6,0-1.7-0.2-2.5c-0.9-5.1-6-10.1-12.4-12.1
	c-2.1-0.7-2.4-0.6-0.8,0.3c4.9,2.8,9.2,6.5,11.1,9.7c1,1.6,1.2,2.4,1.9,4.7L398.7,248.6z M291.3,241.4c0.8-0.4,1.5-1.6,1.3-2.3
	c-0.2-0.5-0.7-0.5-1,0c-0.3,0.5-0.9,0.6-1.1,0.2c-0.1-0.1,0.3-0.8,0.8-1.6c1.2-1.8,2.2-4.5,2.2-5.9c0-0.8-0.1-1.4-0.6-2.2
	c-0.4-0.7-0.5-1.2-0.4-1.5c0.1-0.2,1.2-1.5,2.5-2.8c2.3-2.3,2.3-2.4,2.2-3.2c-0.1-0.4,0-1.2,0.2-1.8c0.5-1.8,0-1.6-3.1,1.6
	c-5.3,5.4-12.2,15.5-11.4,16.7c0.1,0.2,0.3,0.2,0.9-0.2c0.6-0.4,0.9-0.5,2.3-0.5c2,0,2.4,0.3,2.6,2.1c0.1,1.1,0.2,1.3,0.7,1.5
	C290,241.8,290.5,241.8,291.3,241.4z M322.9,236.9c0.4-0.3,0.5-0.5,0.5-1.9v-1.6l-2-1.2c-2.7-1.6-4.2-2.8-5.8-4.7
	c-2.8-3.2-4.2-5.9-4.5-8.8l-0.1-1.3l-0.6,0.3c-0.5,0.2-0.6,0.5-0.8,1.4c-0.6,3.2-0.5,4.7,0.6,7c0.5,1.1,1.3,2,3.7,4.3
	c1.6,1.6,3,3.1,3,3.2c0,0.1-0.4,0.2-1,0.2c-1.5,0-2.4,1.1-1.5,1.9c0.5,0.4,1.8,1,3.2,1.4C319,237.5,322.2,237.3,322.9,236.9z
	 M203.8,234.3c-1.8-0.4-4.4-1.5-6.1-2.6c-0.7-0.5-1.8-1.2-2.5-1.6c-1.3-0.8-1.8-1.5-2.5-3.7c-0.4-1.3-2-3-3.2-3.6
	c-0.5-0.2-1.4-0.5-2.1-0.7c-4.2-0.9-5.9-4.2-8.5-17c-0.7-3.3-0.8-4.1-0.9-8.6c-0.1-2.7-0.2-6.2-0.3-7.8c-0.1-1.5-0.2-5.6-0.2-9.1
	c0-5.5-0.1-6.6-0.5-9.2c-0.7-3.8-0.7-10.9-0.1-15.1c0.2-1.5,0.5-3.9,0.7-5.3c0.9-7.5,3-12.6,7.4-17.8c3.4-4.1,9.6-9.1,13.5-10.9
	c5.1-2.3,11.3-1.8,16.3,1.5c2.3,1.5,6.2,5.6,7.7,8c0.6,1.1,1.7,2.5,2.3,3.1c1.2,1.3,1.6,1.9,1.6,2.6c0,0.3-0.5,1.8-1,3.4
	c-0.9,2.6-1,3-0.7,3.6c0.6,1.5,0.6,1.8,0.2,2.7c-0.5,1-4.5,5.3-6.4,6.7c-1.2,1-1.3,1-0.7,1.1c0.3,0,0.8-0.1,1.1-0.3
	c0.6-0.4,1.4-0.5,1.1-0.1c-0.1,0.1-0.4,1-0.7,1.9s-0.7,1.8-0.9,2.1c-0.2,0.2-0.4,0.5-0.3,0.6s0.9-0.6,1.8-1.4c1.2-1,1.7-1.4,1.7-1.2
	c0,0.2-0.5,1.5-1.1,2.9c-1.9,4.3-1.8,4.1-1.6,4.5c0.5,0.7,0.9,0.8,1.6,0.3c1.1-0.8,1.2-0.3,0.4,1.5c-0.4,0.9-1.1,2.7-1.7,4.2
	c-0.6,1.4-1.4,3.3-2,4.2c-0.5,0.9-1.5,2.7-2.1,3.9c-1.3,2.6-1.4,2.7-3.7,2.9c-2.6,0.2-4.5,1.6-6.8,5c-1.1,1.6-1.1,2.3-0.2,5.8
	c0.7,2.8,1.2,4,2.3,6.2c0.8,1.6,1.6,2.3,2.6,2.1c0.6-0.1,0.6-0.8-0.2-2.6c-0.6-1.3-0.6-1.6-0.6-3.9c0-2.2,0.1-2.6,0.4-3.1
	c0.2-0.3,0.5-0.6,0.7-0.7c0.3-0.1,4.2,7.9,4.3,8.9c0.3,2-0.9,4.4-3.5,7.2c-2.3,2.4-8.1,7.2-8.4,6.9c0,0-0.4-0.6-0.9-1.3
	c-0.8-1.1-3-3.4-3.4-3.4c-0.1,0-0.4,0.2-0.6,0.4c-0.6,0.6-0.6,2.2,0,3.5c0.5,1.2,0.7,2.5,0.7,6.5c0,3.5,0.1,3.6,1.5,3.1
	c2.3-0.9,4.9-2.9,9.2-7.2l4.2-4.1l0.5,0.7c1.5,2,1.7,3.6,0.6,6.1c-0.8,1.8-0.8,2.4-0.3,3.8c0.2,0.6,0.3,1.8,0.4,3.6
	c0,2.6,0,2.6-0.7,3.7c-0.4,0.6-0.8,1.4-0.9,1.8c-0.3,0.9-0.2,2.7,0.1,2.7c0.1,0,0.8-0.8,1.4-1.9c1-1.6,2.6-3.1,2.6-2.7
	c0,0.4-1.6,3.2-2.5,4.4c-1.2,1.7-2.4,2.6-3.8,2.9C208.7,234.7,205.6,234.6,203.8,234.3z M365.4,232.6c0.8-0.7,0.7-1.1-0.2-3.3
	c-0.5-1.3-0.8-2.4-0.9-3.7c-0.1-1.6-0.2-1.8-0.7-2.1c-0.7-0.4-1.5-0.1-1.8,0.7c-0.6,1.6,0.5,6.4,1.8,8.4
	C364.2,233.2,364.7,233.3,365.4,232.6z M374.3,231.4c0.8-0.3,1.2-0.8,2.6-3c0.9-1.4,2.3-3.6,3.1-4.7c1.8-2.8,2.2-3.6,2.4-5.1
	c0.1-0.7,0.4-1.9,0.7-2.7c1.7-3.9,1.9-8.4,0.6-13.1c-0.6-2.3-1.4-3.6-3-5.2c-1.6-1.6-3.4-2.7-6.2-3.7c-1.7-0.6-2.2-0.7-4-0.7
	c-3.3,0-6.1,1.2-6.9,2.9c-0.2,0.5-0.7,1.5-1,2.2l-0.6,1.3l1-0.3c0.5-0.2,1.3-0.3,1.6-0.3c0.4,0,1.6-0.2,2.6-0.5
	c2.5-0.6,4.9-0.5,6.4,0.2c0.5,0.3,1.4,0.5,1.8,0.5c1.3,0,2.1,0.6,2.8,2c1.2,2.5,2.3,7.5,2.3,10.3c0,1.1-0.4,2.1-1.1,2.9
	c-0.2,0.2-0.5,0.9-0.6,1.4c-0.3,1.5-1.1,2.4-3.4,4.1c-4.1,3.1-5.5,4.8-5.5,6.9c0,0.9,0.7,3.1,1.3,4.1c0.4,0.6,0.5,0.7,1.3,0.7
	C373,231.8,373.9,231.6,374.3,231.4z M350.6,226.6L350.6,226.6c0.7-0.8,2.2-3.2,2.7-4.2c0.6-1.3,0.6-3.4,0-4.9
	c-0.2-0.6-0.9-1.9-1.5-2.9c-1-1.8-1-1.8-2.4-2.3c-0.8-0.3-2.2-0.9-3.1-1.4c-0.9-0.5-2.3-1-2.9-1.2c-2.7-0.9-4.2-1.9-5.5-3.9
	c-0.8-1.2-1.8-1.8-2.1-1.3c-0.2,0.3-0.1,1.7,0.1,3.2c0.1,0.6,0,0.9-0.6,1.8c-2.1,2.9-2,2.6-2,4.4c0,2,0.7,4.3,1.7,5.8
	s2.6,2.3,4.4,2.2c0.7,0,1.6-0.2,2-0.4c0.4-0.2,1.1-0.6,1.6-0.8l1-0.5l2.1,0.5c3,0.7,3.8,1.1,4.3,2.4c0.3,0.9,0.3,1,0,2
	c-0.4,1.1-0.5,2.2-0.2,2.2C350.1,227,350.3,226.8,350.6,226.6z M328.1,225.9L328.1,225.9c0.1-0.4-0.3-1.1-0.9-2.2
	c-2.6-4.2-2.8-5.7-1.2-9.5c0.9-2.1,1-2.4,1-4.4c0.1-2.5,0.5-3.5,2-5c1.3-1.3,3.1-2.4,7.1-4.1c4-1.8,4.6-1.8,6.5-0.3
	c1.7,1.3,2.5,1.7,3.6,1.7c1.1,0,1.8-0.3,1.1-0.5c-0.3-0.1-1.4-1-2.4-2c-2.9-2.7-4.1-3.1-7.1-2.2c-0.8,0.2-2.7,0.7-4.2,1
	c-3.3,0.6-4.1,1-6,2.7c-2.7,2.5-4.1,4.6-5.7,9c-0.6,1.6-1.4,3.6-1.9,4.5c-0.9,1.8-0.9,2.5-0.4,4.1c0.8,2.3,3.4,5.3,6.1,7.2
	C326.8,226.8,328,226.8,328.1,225.9z M361.7,222.1c0.2-0.2,1-1.4,1.8-2.6c0.8-1.2,2.1-3.1,3-4.1c1.8-2.2,2.4-3.2,3.2-5.4
	c0.8-2,1.4-2.8,2.9-4c1-0.8,1.2-1,1.2-1.6c0-1-0.9-2.4-1.5-2.5c-0.7-0.1-1,0.3-1.2,1.4c-0.1,0.5-0.2,1.1-0.4,1.3
	c-0.1,0.2-1.5,1-3,1.8c-4,2.1-5.9,3.9-6.9,6.8c-0.4,1.2-0.5,1.8-0.4,5c0,2,0.1,3.8,0.2,3.9C360.7,222.6,361.3,222.6,361.7,222.1z
	 M223,218.6l-0.6-1.2l0.5-0.9c1.4-2.4,2.1-1.6,1.3,1.4C223.7,219.9,223.6,220,223,218.6z M221.4,215.4c-0.4-1-0.3-1.7,0.3-2.3
	c0.7-0.7,1.9-2.9,1.9-3.3c0-0.2-0.2-0.5-0.4-0.8l-0.4-0.5l-1,1.1c-0.6,0.6-1.1,1.1-1.2,1.1c-0.5,0,0-1.4,1-2.7
	c0.5-0.7,1.4-3.6,1.4-4.7c0-0.4-0.2-0.7-0.5-1c-1.1-0.7-1-1.2,0.7-3s1.9-2.3,1.6-3.5c-0.3-1.1,0.2-2.1,1.4-2.8
	c0.9-0.6,2.2-0.5,3.1,0.1c0.7,0.4,0.7,1,0.2,2.3c-1.8,4.3-2.4,5.8-3,8c-0.9,3-1,3.6-1.1,6.6c-0.1,1.6-0.2,2.6-0.4,3
	c-0.3,0.6-2.8,3.1-3,3.1C221.7,216,221.5,215.7,221.4,215.4z M186.2,211.8L186.2,211.8c-0.5-1.6-1.3-4-1.7-5.2l-0.8-2.3l-0.2-5.5
	c-0.1-3-0.3-7.4-0.4-9.7c-0.1-2.3-0.2-6.4-0.2-9c0-2.8-0.1-5.6-0.3-6.9c-0.4-2.9-0.3-6.8,0.3-9.1c0.6-2.2,2.2-5.6,3.7-7.5
	c0.9-1.2,1-1.5,0.7-1.5c-0.5,0-2.2,1.7-3.4,3.5c-1.7,2.4-2.4,4.4-3.3,9c-0.4,2.1-0.4,3-0.4,10.6c0,5.6,0.1,9.2,0.3,11.1
	c0.2,1.6,0.4,4.3,0.4,6.2c0.2,6.2,1.1,10.2,3.4,16.2c0.7,1.8,1,2.3,1.5,2.6C187.2,215.2,187.3,215,186.2,211.8z M354.9,206.6
	c0.1-0.3,0.7-1.6,1.3-2.8c1.1-2.4,1.4-4.1,1-5.6c-0.2-0.5-0.3-3.1-0.4-7c-0.1-4.7-0.2-6.5-0.5-7.5c-0.9-3.1-2.7-5.6-5.2-7.2
	c-0.7-0.5-1.5-1-1.7-1.2c-0.4-0.5-0.3-1.8,0.2-4.4c0.2-1.1,0.5-2.4,0.5-2.8l0.1-0.8l-0.8,0.7c-1.2,1.1-1.7,2.1-3,6.1
	c-0.7,2-1.5,4.3-1.9,5.2c-0.5,1.3-0.7,1.9-0.7,3c0,1.9,0.5,3,2.6,5.3c2.1,2.3,3.1,4,3.9,6.4c1.7,5.7,2.8,9.1,3.5,11
	C354.6,207.1,354.6,207.2,354.9,206.6z M295,204.8c1.9-1.4,5.1-4,7.5-6.4l2-1.9l-1.7,0.8c-0.9,0.4-2.4,1.2-3.2,1.7
	c-3.8,2.3-8,6.8-6.4,6.8C293.4,205.9,294.2,205.4,295,204.8z M198.8,204.9c0.1-0.2-0.2-0.9-0.5-1.6c-0.9-1.8-1.8-4.4-1.8-5.4
	c0-0.9-1.1-3.6-1.5-3.7c-0.4-0.1-1.7,0.7-1.7,1.1c0,0.6,1,4.3,1.5,5.7c0.7,1.8,1.8,3.4,2.6,3.8C198.3,205.3,198.7,205.3,198.8,204.9
	z M399.4,200.1c1.4-0.4,2.9-1.7,3.8-3.2c0.9-1.5,0.8-1.8-0.3-1c-1.9,1.3-2.8,1.6-4.4,1.7c-2.6,0-2.6,0-0.1-2.8
	c3.4-3.9,4.9-6.5,5.3-9c0.2-1,0.3-1.1-1.6,0.5c-1,0.9-2.6,1.7-3.9,2.1c-1.5,0.4-5.5,0.9-9.2,1.1c-3.3,0.2-4.8,0.4-4.8,0.9
	c0,0.1,0.7,0.4,1.6,0.6c0.9,0.3,1.8,0.6,2.2,0.8c1.2,0.6,2.4,1.9,3.2,3.5c1.6,3.2,4,5.1,6.5,5.2
	C398.1,200.4,398.8,200.3,399.4,200.1z M287.9,194.6c0.1-1.1,0.4-1.1,1.9-0.2l1.5,0.8h3.6c3.1,0,3.8-0.1,5.4-0.5
	c3.1-0.9,4.2-2.5,1.4-2c-2.7,0.5-5.7,0.7-6.6,0.6c-1.5-0.2-2.8-0.9-3.9-2c-0.5-0.5-1.7-1.5-2.6-2.1c-0.9-0.6-1.8-1.4-2-1.7
	c-0.2-0.3-1.2-2.4-2.2-4.8c-1.7-4-1.8-4.3-1.8-5.8c0-1.3,0.1-1.8,0.6-2.8c0.7-1.3,0.7-2.2,0.2-3.4c-0.5-1.2-0.3-2,1.3-4.2
	c0.8-1.2,1.6-2.6,1.9-3.5c0.9-2.6,1.9-3.4,4.6-3.4c2.5,0,5.4,0.8,7,1.9l0.5,0.3l-1.2,0.7c-2.8,1.6-4.7,3.7-7.9,8.9
	c-2.7,4.4-3,5.3-1.5,5.3c1,0,3.1,0.6,4,1.1c0.4,0.3,1.5,1,2.3,1.7c1.9,1.5,3.3,2,5.4,2c2,0,6.2-1.1,8.5-2.2c1-0.5,1.8-0.8,1.8-0.8
	c0,0.3-0.7,1.4-1.2,1.9c-0.9,0.9-1.8,1.2-4.1,1.7c-3.5,0.7-4.1,1.5-1.2,1.5c2.1,0,4.2-0.6,5.6-1.6c0.6-0.4,2.6-2.4,4.6-4.4
	c3.5-3.5,3.6-3.7,4.5-3.7c0.9,0,1.4,0.2,3.1,1.8c1.3,1.2,2.5,1.7,4.1,1.7c1.2,0,1.4-0.1,1.5-0.4c0.2-0.6-0.4-1.4-1.1-1.8
	c-0.6-0.3-1.1-0.9-0.9-1.1c0.1-0.1,0.9-0.1,1.8-0.1c0.9,0,2-0.1,2.5-0.2c0.7-0.2,1-0.1,1.9,0.5c1.2,0.7,2,0.8,2.5,0.4
	c0.2-0.2,1.2-1.2,2.2-2.4c2.1-2.4,4-5.1,4.8-6.9c1.4-3.1,2.2-7.4,1.6-8.8c-0.3-0.8-1.5-1.7-1.5-1.1c0,0.1-0.8,1.2-1.7,2.4
	c-1,1.2-2.1,2.9-2.5,3.7c-1.8,3.4-7.5,6.6-11.8,6.6c-1.4,0-1.9,0.4-1.7,1.5c0.2,1-0.2,1.6-0.9,1.6c-0.5,0-2.1-1.4-2.1-1.8
	c0-0.4-0.9-1.1-2.3-1.8c-1.9-0.9-2.8-1.6-5-3.4c-3.5-2.9-6-4.2-12.1-6.1c-1.8-0.6-3.5-1.2-3.8-1.4l-0.5-0.4l0.6-0.2
	c0.4-0.1,1.1-0.1,1.6-0.1c0.5,0.1,1.1,0.1,1.4,0c0.4-0.1,0.4-0.2,0.1-0.6c-0.7-0.8-1.7-1.2-3.4-1.6c-2.4-0.5-3.5-0.2-5.1,1.3
	c-0.8,0.8-1.3,0.8-1.3,0.1c0-0.7-1.2-1.8-2.6-2.5c-1.7-0.8-1.9-0.7-1.6,1.2c0.3,1.6,0.1,2.1-1.2,2.8c-1.3,0.7-3.7,2.9-5.4,5
	c-0.9,1.1-1.7,2-1.8,2c-0.1,0-0.2-0.2-0.3-0.4c-0.2-0.7-1.3-1.4-2.5-1.7c-2.9-0.7-4.5-4.3-3.9-8.5c0.3-1.9,0.9-3.3,3-6.7l1.5-2.5
	l-0.6-0.1c-0.9-0.1-1.4,0.2-2.3,1.7c-0.5,0.7-1.5,2.3-2.4,3.5c-2.2,3-3.2,4.9-4,6.8c-0.7,1.8-1.4,4.4-1.2,4.9c0,0.2,0.4,0.4,0.8,0.6
	c0.7,0.2,0.8,0.3,1,1.8c0.3,1.9,0.7,2.6,1.7,3.5c1.1,0.9,2.6,1.3,5.2,1.3c2.6,0,3.7,0.4,4.7,1.9c0.9,1.2,1,3.1,0.3,4
	c-0.5,0.7-0.7,0.7-2.6,0.1c-0.8-0.2-1.4-0.2-3,0c-1.1,0.2-3.5,0.4-5.4,0.4c-1.9,0.1-3.6,0.3-3.9,0.4c-1.8,0.9,0,4.3,2.2,4.3
	c1.1,0,2.5,0.9,4.2,2.8c1,1,2.3,2.7,3.1,3.8c1.5,2.2,2.4,2.9,4.3,3.5c1.2,0.4,1.6,0.6,4,3c1.5,1.4,2.9,2.7,3,2.8
	c0.2,0.1,1,0.1,1.7,0.1C287.8,195.2,287.9,195.1,287.9,194.6z M305.7,193.1c0.3-0.2,0.5-0.3,0.6-0.3c0,0-0.1-0.8-0.3-1.7
	c-0.5-2.3-0.5-2.5,1.7-3.6c3.6-1.8,7.1-5.2,8.1-7.9c0.3-0.7,0.4-1.3,0.4-1.3c-0.2-0.2-2.4,0.9-2.8,1.4c-0.2,0.2-0.7,1-1.1,1.7
	c-1.6,2.7-4.2,4.7-7.1,5.4c-2.3,0.6-3.6,1.4-4,2.3c-0.1,0.3,0,0.4,0.6,0.2c1.3-0.2,1.8,0.3,3,3.2
	C305.2,193.3,305.3,193.3,305.7,193.1z M192.1,192.6c0.5-0.5,0.2-2-1-5.8c-0.7-2.1-1.5-4.6-1.7-5.6l-0.5-1.8l0.7-4.6
	c0.7-4.7,1.3-7.9,2.3-10.8c1.7-5.4,3.9-9.9,6.8-13.8l1.3-1.8l-0.8,0.1c-1.1,0.2-2.8,0.9-3.9,1.6c-1.2,0.8-3.5,4.1-5.1,7.3
	c-1,1.9-1.6,3.7-2.6,7c-2.4,8.3-3.6,14.4-3.8,19.1c-0.2,4.6,0.5,7.2,2.2,8C187.8,192.7,191.6,193.2,192.1,192.6z M222.2,192.6
	c-0.1-0.2,0.3-1.1,0.8-2c0.5-0.9,0.9-2,0.9-2.4c0-0.7,0-0.7-0.8-0.7c-0.8,0-0.8,0-0.7-0.5c0.4-1.8,0.4-2.3-0.2-2.8
	c-0.5-0.4-0.6-0.5-0.3-1.1c0.2-0.5,0.2-0.8,0-1.3c-0.4-1.2-0.3-2.8,0.3-4c0.3-0.6,0.5-1.3,0.4-1.5c-0.4-1-1.9,0.2-2.3,1.8
	c-0.1,0.5-0.6,1.2-1,1.6l-0.8,0.8l-0.1-0.6c-0.2-1.6,2.2-4.7,5.5-7.2c1.6-1.2,1.9-1.6,2.6-3.7c0.3-0.8,7.9-8.4,10.9-11
	c2.3-2,7.6-7.2,8-7.9c0.2-0.4,0.2-0.6,0-1c-0.1-0.2-0.3-1-0.4-1.6l-0.1-1.2l-0.8,0.1c-1.8,0.1-0.5-1.3,1.9-2.2
	c1.6-0.6,1.7-0.6,2-0.2c0.2,0.2,0.3,0.8,0.3,1.4c0,0.8,0.1,1,0.3,1c1.1,0,7.8-2.7,10.6-4.2c0.6-0.3,1.6-0.9,2.2-1.2
	c2.4-1.3,6-3.6,9.4-6c5.4-3.8,5.7-3.9,16.1-5.6c7.9-1.3,11.6-2,13.3-2.5c1.2-0.4,2.2-0.4,2.2-0.1c0,0.3-1.2,1.3-2.2,1.7
	c-1.1,0.5-6.1,1.4-9.6,1.8c-5.9,0.6-10,1.9-13.7,4.4c-1.4,1-8.8,8.3-12.9,12.8c-2,2.2-4.2,4.5-5,5.3c-1.9,1.7-4.8,3.7-6.2,4.2
	c-2.5,0.9-4.3,2.3-7.2,5.9c-0.9,1.1-2.8,3.1-4.2,4.5c-3.2,3.3-4.7,5.1-6.4,7.6c-0.7,1.2-2.4,3.2-3.7,4.6c-3.7,4-5.2,6.2-5.8,8.6
	c-0.3,1.4-0.6,1.8-1.8,3.5C223.1,192.9,222.4,193.3,222.2,192.6z M378.1,187.6L378.1,187.6c0-1.1-1.2-3.2-2.3-4.3
	c-0.6-0.5-2.4-1.8-4-2.8c-5.7-3.4-7-4.4-7.7-5.9c-0.5-1.1-0.5-1.9-0.1-2.9c0.7-1.6,2.2-1.1,4.2,1.6c1.5,2,2.5,2.5,5.5,2.9
	c2.2,0.3,4.1,0.1,6.2-0.5c1.1-0.3,2.2-1.1,2.2-1.4c0-0.1-1.9-0.2-4.3-0.3c-3.9-0.1-4.4-0.1-5.4-0.6c-0.6-0.3-1.3-0.7-1.6-1l-0.4-0.5
	l1-0.5c0.7-0.4,1.6-0.5,3.3-0.6c3.9-0.2,5.5-0.8,8.5-3c0.9-0.7,2.1-1.5,2.8-1.8c2.6-1.3,2.8-2.3,1.2-6.6c-0.7-1.8-1.8-3.6-2.9-4.8
	c-0.5-0.5-0.9-0.9-0.8-1c0-0.1,1.2-0.5,2.7-1c1.8-0.6,2.6-0.8,2.7-0.6c0.1,0.5,1.4,1.7,2.2,2.1c1.3,0.7,1.3,1.3,0.3,3.2
	c-0.8,1.5-1.6,2.5-2.3,2.7c-0.2,0.1-0.2,0.2,0,0.7c0.1,0.4,0.7,0.9,1.7,1.4c2,1.2,2.2,1.6,1.1,3.6c-0.4,0.7-0.6,1.4-0.6,1.6
	s0.6,0.4,1.1,0.4c2.2,0.3,2.9,1.1,2.5,2.7c-0.3,1.2-1.3,3.1-2.1,4c-0.3,0.4-0.9,1.1-1.4,1.7c-1,1.3-3,2.3-4.9,2.5
	c-1.9,0.2-2.8,0.5-3.7,1.2c-1,0.8-1.1,1.7-0.4,2.1c0.7,0.3,2.9,0.1,4.6-0.5c4-1.5,6.6-4.1,9.2-9.4c1.5-3.1,2.9-4.9,4.2-5.7l0.6-0.4
	l-1-0.8c-0.6-0.5-1-1-1-1.3c0-0.3,0.8-1.2,2.7-3c2.9-2.8,3.6-3.7,4.8-6.5c0.9-2.2,0.9-2.4,0.2-3.2l-0.5-0.6l-0.6,0.8
	c-1.6,2.1-2.5,2.9-3.6,3.1c-0.6,0.1-2.2,0.7-3.7,1.3c-3.6,1.4-4.3,1.4-3.2-0.1c0.7-1.1,0.7-1.7-0.1-2.9c-0.5-0.8-0.6-1.1-0.5-1.8
	c0.2-1.4,2.1-4.9,2.7-4.9c0.1,0,0.5,0.2,0.8,0.5c1.2,1,1.8,0.6,1.2-0.8c-0.4-1.1-0.8-1-3.5,0.1c-2.8,1.2-7.5,2.9-11.7,4.1
	c-3.8,1.1-3.7,1.1-6,2.7c-2.2,1.6-4.3,2.7-7.3,4c-2.8,1.1-6.7,2.5-7.2,2.5c-0.7,0-0.5-0.6,0.7-2.5c0.7-1.1,1.4-2.4,1.6-2.9
	c0.5-1.2,0.5-3.3,0-4.4c-0.4-0.9-1.8-2.9-2.9-4.2l-0.6-0.8v4c0,2.2-0.1,4-0.2,4c-0.4,0-0.7-0.4-1.5-1.9c-1.5-2.9-3-5.1-5.8-7.9
	c-2.4-2.5-2.8-3.2-2.8-5.9c0-1.9-0.1-2.1-0.9-3.8c-1.9-3.9-4-6.3-6.1-7c-1.9-0.7-9-1.5-10.9-1.2c-1.3,0.2-1.1,0.7,0.5,1.1
	c4,1.1,6.1,2.3,8.5,4.6c2,2,3.1,3.8,3.8,6.2c0.7,2.5,0.1,5.4-2,9.7c-2.6,5.1-4.7,7.4-7.2,7.7c-1.2,0.1-1.4,0.3-1.6,1.7
	c-0.1,0.9,0.2,1.8,0.7,2c0.1,0,0.9-0.5,1.7-1.2c0.8-0.7,1.7-1.4,2-1.4c0.3-0.1,0.6-0.4,0.8-0.6c0.6-1.1,2.7-2.2,5.1-2.7
	c1.8-0.4,2.6-0.8,4.1-2.4c0.7-0.7,1.3-1.3,1.4-1.3c0.7,0,2.3,2.3,3.5,4.9c1.3,2.8,1.6,4.6,1.6,8.3c0,3.2,0,3.4-0.5,4.4
	c-0.3,0.6-0.7,1.2-0.9,1.4c-0.7,0.6-0.1,2.2,0.8,2.2c0.7,0,1.7-1.2,2.2-2.6c0.2-0.6,0.8-2.1,1.4-3.1l1-2l0.8,0.6
	c1,0.8,1.2,1.5,0.9,2.4c-0.1,0.4-0.7,1.8-1.2,3.3c-0.8,2.4-0.9,2.8-0.9,4.8c0,1.9,0.1,2.3,0.6,3.4c1.2,2.4,3,3.9,9.5,7.5
	c3.3,1.8,5.5,3.4,6.6,4.4C377.8,188.7,378.1,188.6,378.1,187.6z M331.8,187c0.9-0.1,1.2-0.3,3.3-2.4c1.3-1.2,2.8-2.6,3.3-3
	c0.6-0.4,1-0.9,1-1.1c0-0.3-0.2-0.4-1.2-0.4c-1.8,0-1.8-0.2-1.3-3.9c0.2-1.2-0.1-1.7-1.1-1.7c-0.6,0-0.8,0.1-1.1,0.7
	c-0.2,0.4-0.4,1-0.5,1.5c0,0.4-0.5,1.6-0.9,2.6c-0.5,1-0.9,2-0.9,2.2c0,0.2-0.4,1.5-0.9,2.8c-0.5,1.4-0.9,2.6-0.9,2.7
	C330.8,187,331.2,187.1,331.8,187z M200.2,180.7c0.1-0.2,0.4-0.8,0.6-1.4c0.4-1.2,2.1-3.8,3-4.7c0.6-0.6,0.8-0.7,2-0.6
	c1.1,0,1.7,0.2,3.2,0.8c2.7,1.2,3.1,1.3,4,0.9c0.4-0.2,1.1-0.7,1.4-1.1l0.6-0.8l-0.8-0.9c-0.6-0.7-0.9-1.2-1-2
	c-0.2-1.4,0.1-13.2,0.4-15.4c0.6-4.2,0-13.5-1.1-16.9c-0.6-2.1-1.9-4-3.7-5.6c-3.5-3.3-8.1-4.5-12.3-3.3
	c-7.7,2.2-12.8,6.9-15.4,14.2c-0.4,1-1.1,3.7-1.7,5.8c-0.8,3.3-1,4.4-1.1,6.7c-0.1,2.4-0.1,2.8,0.3,3.1c0.5,0.5,0.9,0.5,1.8-0.1
	c0.7-0.4,1.3-1.2,2.9-3.7c1.2-1.9,3.9-4.7,6.1-6.2c2-1.4,5.9-3.4,7.5-3.8c2.1-0.6,5.5-0.4,8.1,0.5c2.4,0.8,3.2,3.1,2.5,6.6
	c-0.3,1.6-0.5,1.8-1.7,1.5c-1.4-0.3-2.5-0.3-3.2,0.1c-0.8,0.4-2.4,2.6-3.4,4.4c-0.9,1.7-2.1,5.7-2.6,8.2c-0.6,2.9-0.5,6.5,0.2,9.4
	c0.3,1.3,0.6,2.6,0.7,2.8c0.1,0.2,0.3,0.8,0.5,1.1c0.3,0.6,0.6,0.7,1.2,0.7C199.6,181,200.1,180.9,200.2,180.7z M456,177l0.4-0.6
	c0.2-0.4,1-1.7,1.8-3c2.3-4,4.3-6.4,10.4-13.2c2-2.2,3.7-4.2,3.8-4.3c0-0.1-0.1-0.4-0.3-0.7c-0.3-0.4-0.6-0.2-6.3,2.9
	c-6.4,3.5-8,4.3-10.4,4.9c-0.8,0.2-1.6,0.4-1.7,0.5s0.2,1.9,0.6,4c0.4,2.1,0.9,4.8,1.1,5.9c0.2,1.1,0.4,2.4,0.5,2.8L456,177z
	 M153,172.5c0.4-2.3,0.9-5.2,1.2-6.6l0.5-2.4l-0.9-0.2c-2.5-0.6-5.1-1.8-8.6-3.6c-9.5-5.2-8.7-4.8-9.2-4.4c-0.5,0.5-0.6,0.4,3.1,4.5
	c4.3,4.7,6.1,6.8,7.9,9.2c1.6,2.1,4.8,7.3,4.8,7.8c0,0.1,0.1,0.2,0.1,0.1C152.2,176.7,152.6,174.8,153,172.5z M298.9,174.7
	c-1.1-0.3-2.4-0.7-3-0.8c-1-0.1-1.5-0.5-1.5-1.3c0-0.2,0.5-0.9,1.1-1.5c2-2.2,5.1-3.2,8.2-2.7c1.9,0.3,2.4,0.5,4.3,2.2
	c1.6,1.4,1.9,2,1.5,3c-0.5,1.2-1.5,1.5-5.3,1.6C300.9,175.4,300.8,175.3,298.9,174.7z M199.7,174.5c-1-4.2,0.6-12.1,3.3-16
	c1-1.4,1.3-1.3,2.3,0.5c1.2,2.3,2.3,2.9,3.3,1.9c0.6-0.7,0.9-1.6,1-3c0.1-1.3,0.3-1.8,0.9-1.6c0.4,0.1,0.4,0.9,0.4,6.1
	c0,2.9-0.6,9.8-0.8,9.8c0,0-0.9-0.2-1.9-0.5c-3.2-0.9-3.7-0.8-6.7,2c-0.8,0.7-1.5,1.3-1.5,1.3S199.8,174.7,199.7,174.5z M370.4,168
	c-0.2-0.4-0.7-1.1-1.1-1.7l-0.7-1.1l0.8-0.7c0.9-0.8,7.9-4.7,8.8-4.8c0.3-0.1,0.9,0,1.3,0.2c0.4,0.2,1,0.4,1.2,0.5
	c0.5,0.1,0.5,0.2,0.4,1.4c-0.1,1.2-0.1,1.2-1.4,2.3c-1.1,0.8-8.3,4.7-8.9,4.7C370.8,168.7,370.6,168.4,370.4,168z M346,165
	c0.4-0.7,1-2.1,1.4-3.2c0.6-1.8,0.7-2.4,0.8-4.9c0.1-2.1,0-2.9-0.1-2.9c-0.1,0-0.6,0.2-1.1,0.4c-0.8,0.4-0.8,0.4-1.4,2.8
	c-0.8,3.6-1.9,8.7-1.9,9.2c0,0.3,0.1,0.6,0.3,0.8C344.3,167.5,344.8,166.9,346,165z M181.3,152.7c0.3-1.8,2.2-6.8,3.4-9.2
	c3.2-6.5,8.3-10.9,13.3-11.6c1.4-0.2,2-0.2,3.4,0.1c4.6,0.9,7.5,3.7,8.7,8.2c0.3,1.2,0.5,5.9,0.2,5.9c-0.1,0-0.5-0.4-1-0.8
	c-1.7-1.7-3.7-2.2-8-2.2c-4.4,0-7.1,0.7-10.3,2.6c-1.6,1-5.4,4.2-7.9,6.7c-0.9,1-1.8,1.8-1.9,1.8
	C181.1,154.2,181.1,153.5,181.3,152.7z M228.2,150.2l0.2-0.6c0.3-1.2,1.3-2.6,3.3-4.7c1.5-1.5,2.5-2.3,3.5-2.8
	c2.3-1.1,2.4-0.8,0.4,0.9c-1,0.8-2.6,2.3-3.5,3.4c-1,1-2.2,2.3-2.8,2.8L228.2,150.2z M251.9,142.3c0-0.7,7.4-9.3,8-9.3
	c0.3,0,0.2,1.3-0.2,2.2c-0.5,0.9-0.6,1.7-0.2,1.7c0.1,0,0.8-0.5,1.5-1c0.7-0.6,2.3-1.7,3.6-2.6c1.8-1.2,3.1-2.3,5.1-4.3
	c3-3,5.4-5.1,9.4-7.9c1.4-1,3.2-2.3,4-2.8c1.7-1.2,3.4-1.9,4.9-1.9c1.6,0,1.6,0.4-0.2,1.6c-1.2,0.8-2.3,1.9-2,1.9
	c0.1,0,1.1-0.4,2.3-0.9c2.7-1.1,4.2-1.3,6-0.8c1.2,0.4,4.2,1.8,4.2,2c0,0.4-1.8,0.9-5.1,1.4c-4.8,0.8-5.6,1-6.3,1.4
	c-0.6,0.4-0.6,0.5-0.2,1.1c0.3,0.4,0.7,0.4,6.1,0.5c5.2,0.1,5.8,0.1,5.9,0.5c0.1,0.4-0.6,0.7-3.4,1.1c-1,0.2-3.6,0.6-5.7,1
	c-4.5,0.8-7.7,1.3-8.6,1.3c-0.8,0-0.8-0.4,0.2-1.3c1.4-1.3,0.8-1.8-1.1-1.1c-1.8,0.7-2.7,1.2-5.8,3.7c-5.2,4.1-12.4,8.6-18.4,11.5
	C253.2,142.4,251.9,142.8,251.9,142.3z M137.6,141.1c1.6-0.8,2.7-2.6,2.4-3.9c-0.2-0.8-1.2-1.8-2.2-2.3c-1.7-0.8-3.9-0.4-4.7,1
	c-0.2,0.4-0.5,1.3-0.6,2.1c-0.2,1.2-0.1,1.4,0.2,1.9c0.6,0.7,2.5,1.6,3.4,1.6C136.6,141.4,137.2,141.3,137.6,141.1z M474.6,140.5
	l1.2-0.8l-0.1-1.2c-0.2-1.6-0.9-3-1.8-3.5c-2.2-1.3-5.8,0.5-5.7,2.9c0,0.9,0.4,1.9,1.1,2.5C471,141.7,472.7,141.8,474.6,140.5z
	 M239.3,132.1c2.1-2.2,2.1-1.4,0.1,1.5c-1,1.4-3.6,3.7-3.6,3.2C235.9,136.5,238.2,133.3,239.3,132.1z M157,128.4
	c-5-1.7-7.1-3.3-11.5-9c-5.7-7.2-9.9-16-11.7-24.4c-0.7-3.1-1.6-8.8-1.9-12.2c-0.4-3.7-0.1-10.3,0.7-18.1c0.7-6.5,1.1-9.4,2.3-14.2
	l0.6-2.4l2.1,2.7c11.8,15.4,19.7,32,22.6,47.4c0.9,5.2,1.3,8.8,1.3,14.2c0,5.4-0.2,8.3-1.1,13c-0.6,3.2-0.7,3.7-0.9,3.7
	C159.3,129.1,158.2,128.8,157,128.4z M448.3,127.6c-1.1-5-1.3-7.5-1.3-15c0-7.5,0.1-9,1.2-14.6c2.5-13,8.1-26,16.7-39
	c2.5-3.8,7.7-10.8,7.8-10.6c0.1,0.1,1.3,5,1.8,7.5c0.2,1.1,0.7,5,1.1,8.5c0.6,5.7,0.7,7.3,0.7,12.9c0,5.6-0.1,6.8-0.5,9.7
	c-0.6,4.3-1.6,9.1-2.3,11.5c-2,7-6,14.7-10.8,20.9c-4.7,6-7.2,7.8-13.6,9.6C448.7,129.1,448.6,129,448.3,127.6z M243.7,127.1
	c0.3-1.3,1.1-2.7,2.9-4.9c1-1.3,1.8-2.4,1.8-2.6c0-0.7-1-0.1-3.7,1.9c-1.6,1.2-3.1,2.4-3.3,2.6c-0.5,0.4-1.6,0.8-1.6,0.5
	c0-0.1,2.2-2.4,5-5c2.7-2.7,5-5,5-5.1c0-0.5-0.6-0.3-1.6,0.5c-3.7,2.7-5.1,3.6-5.4,3.6c-0.2,0-0.4-0.3-0.5-0.7
	c-0.1-0.6-0.2-0.6-0.7-0.3c-0.3,0.2-0.7,0.3-0.8,0.2c-0.9-0.4,0.4-2.7,2.4-4.1l1.4-1.1l-0.7-0.1c-0.9-0.1-2.4,0.5-4,1.5
	c-0.8,0.5-1.4,0.8-1.5,0.8c-0.2-0.2,0.4-2.6,0.8-3.3c1.8-2.6,18.9-15,23.9-17.4l1.8-0.9l0.9,0.5c1.3,0.6,1.9,0.5,5.8-1.2
	c1.8-0.8,4.6-2,6.3-2.7c3.7-1.5,5.4-1.7,4.1-0.5c-0.7,0.7-1.6,1-3.6,1.5c-2.1,0.5-3.5,1.2-4.9,2.4c-0.6,0.5-1.9,1.2-3,1.7
	c-2.5,1.1-3.5,1.7-5.6,4c-2.2,2.2-7.4,8.6-7.4,8.9c0,0.3,0.7,0.1,2.1-0.7c1.1-0.6,1.7-0.8,2.5-0.8c0.7,0,1.5-0.2,2.3-0.5
	c1.4-0.6,2.4-0.7,2.3-0.3c0,0.1-2.6,2.4-5.7,4.9c-9.3,7.6-12.7,10.9-15.9,15.2C243.5,127.9,243.6,127.9,243.7,127.1z M419.5,118.8
	c-0.4-0.2-0.7-0.5-0.8-0.6c-0.1-0.1,0.2-0.7,0.6-1.3c0.9-1.3,1.1-2,1.5-4.9c0.5-3.3,0.6-6.3,0.3-8c-0.4-2.3-1.8-5.1-2.7-5.1
	c-0.8,0-4.4,4.9-5.8,7.8c-0.5,1-1,2.4-1.2,3.1c-0.4,1.5-0.6,1.8-1.1,1.8c-0.5,0-2.5-1.4-3.8-2.6c-1.4-1.3-3.3-2.4-5.4-3.2
	c-2.7-1-3.1-1.2-3.5-1.8c-0.4-0.6-0.4-0.6,0.1-2.1c0.8-2.3,2.6-5.9,3.8-7.4c2-2.5,3.7-3.4,5.7-2.9c0.6,0.2,3.1,0.3,5.9,0.4
	c4.4,0.1,5,0.2,5.9,0.6c1.5,0.7,2.2,1.2,2.6,2.1c0.8,1.7,1.5,13.5,1,17.9c-0.2,2.3-1.1,5.8-1.6,6.4
	C420.8,119.3,420.3,119.2,419.5,118.8z M254.8,118.5c-0.1-0.1-0.1-0.3-0.1-0.3c0,0,2.6-2.1,5.7-4.7c6.1-5.1,12-9.5,13.4-10.2
	c0.5-0.2,1.6-0.5,2.5-0.7c0.9-0.2,2-0.5,2.5-0.7c1.7-0.9,3.3-1.2,5.5-1.1c2.1,0.1,5.6,0.9,5.6,1.3c0,0.5-1.7,1.7-4.9,3.5
	c-1.9,1-3.9,2.3-4.5,2.8c-1.6,1.3-1.9,1.4-3.2,1.2c-0.9-0.1-1.3-0.3-1.9-0.8c-0.6-0.6-0.7-0.7-1.3-0.4c-0.5,0.2-0.7,0.2-1-0.2
	c-0.6-0.6-1-0.5-1.9,0.5c-0.9,1-2.3,1.7-4.5,2.2c-2.1,0.5-2.6,0.8-4.9,3c-2.1,2-3.7,3.3-5.4,4.3C255.3,118.8,255,118.9,254.8,118.5z
	 M380.9,113.9L380.9,113.9c-0.5-0.2-1.2-0.3-1.6-0.4c-0.8-0.2-0.8-0.9,0-1.2c0.5-0.2,0.8-0.2,1.6,0.1c0.6,0.2,1.3,0.4,1.6,0.4
	c0.8,0,1.1,0.5,0.8,1.1C383,114.3,382.4,114.3,380.9,113.9z M360.2,108.8c0-0.1,0.3-0.7,0.7-1.2c1.9-2.8,2-3.2,1.1-3.7
	c-0.3-0.2-1.1-0.9-1.7-1.6l-1.1-1.2l-1.2,0.1l-1.2,0.1l0.1-1.3c0.1-1.2,0.1-1.3-0.7-2.2c-1.4-1.5-2-1.4-4.6,0.8
	c-0.8,0.7-1.5,1.3-1.6,1.3c-0.3,0-0.1-1.5,0.3-2.6c1-2.7,1-2.7-0.6-2.9c-1.3-0.2-2-0.7-2-1.6c0-0.7-0.3-0.9-1.6-0.9
	c-1.2,0-1.7-0.3-2.1-1.1c-0.4-0.8-0.7-0.8-1.8-0.1c-1.4,0.9-1.6,0.8-1.6-0.8c0-0.8-0.1-1.5-0.3-1.7c-0.1-0.2-1.1-0.3-2.3-0.4
	c-1.6-0.1-2.2-0.2-3.2-0.8c-1.4-0.8-1.8-1.3-1.6-2.3c0.2-0.9-0.1-1.6-0.8-1.8c-0.7-0.2-2.3,0.7-3.8,2c-0.8,0.7-1.5,1.3-1.6,1.3
	c-0.5,0-0.5-0.5-0.2-1c0.3-0.5,0.3-0.6,0-0.9c-0.2-0.2-0.5-0.3-0.8-0.2c-0.4,0.2-2.7,2.3-3.8,3.6c-0.5,0.6-0.7,0.7-1.2,0.6
	c-0.8-0.2-4.8-2.1-4.8-2.3c0-0.1,0.2-0.4,0.5-0.6c2.2-1.9,4.5-4.2,5.3-5.5c0.5-0.8,1.1-1.6,1.4-1.7c0.2-0.1,1.4-0.2,2.6-0.2
	c2.4,0,2.7,0.2,1.5,1.1c-0.4,0.3-0.7,0.6-0.8,0.8c-0.2,0.6,1.8,0.9,7.2,1.3c2.9,0.2,5.5,0.4,5.8,0.5s0.5,0.5,0.6,0.9
	c0.2,0.8,0.3,0.8,4.4,1.3c2.8,0.3,3.6,0.7,5.1,2.8c1.8,2.4,2.8,3,5.7,3.4c0.5,0.1,1.5,0.6,2.5,1.3c2,1.4,3,1.7,4.3,1.6l1-0.1
	l1.9,1.8c3,2.8,4.6,3.9,11.6,7.7c1.8,1,3.1,1.8,3.4,2.2c0.5,0.7,1.1,2.3,0.9,2.5c0,0-1.9-0.2-4-0.6c-3-0.5-4.8-0.7-7.5-0.8
	c-3.4-0.1-3.6-0.1-3.7,0.3c-0.1,0.3,0,0.6,0.6,1.1c0.8,0.7,0.8,0.7,0.3,0.9C365.7,108.8,360.2,109.4,360.2,108.8z M168.7,103.9
	c-5.4-8.1-8.5-16.8-9.7-26.6c-0.4-3.7-0.4-11.3,0-15c1-9.2,3.6-17.9,7.8-26.3c1.8-3.5,4.3-8,4.6-8c0.2,0,2.6,6.4,5.3,14.2
	c3.2,9.1,6,20,6.9,26.9c0.4,2.6,0.2,6.1-0.5,9.3c-2.4,11.7-4.6,16.8-10.5,25.2c-1,1.5-1.9,2.7-2.1,2.7S169.6,105.2,168.7,103.9z
	 M189.6,84.9c-0.1-0.3-0.6-1.7-0.9-3c-2.4-8-2.7-15.9-1-25.2c2.9-15.3,9.1-28.8,19.5-42.6c1.2-1.6,2.2-2.9,2.3-2.9
	c0.2,0,2.1,4.4,3.2,7.5c2.8,7.8,3.9,14.7,3.7,22.2c-0.2,5.6-0.8,9.4-2.6,14.6c-0.9,2.8-3.3,7.6-4.9,10.3c-3,4.7-7.7,10.2-12.1,14.2
	c-2.7,2.4-6.3,5.4-6.6,5.4C189.9,85.5,189.7,85.2,189.6,84.9z M231.3,54.2l0.1-0.6c0.1-0.3,0.6-2,1.2-3.7l1-3.1l-3-2.2
	c-1.7-1.2-3.1-2.3-3.1-2.4c-0.1-0.1,1.6-0.2,3.8-0.2h3.9l1.1-3.6c0.6-2,1.2-3.6,1.3-3.6s0.6,1.6,1.3,3.6L240,42h3.9
	c2.1,0,3.9,0.1,3.9,0.2c0,0.1-1.4,1.1-3,2.3c-1.7,1.2-3,2.3-3,2.4c0,0.1,0.5,1.7,1.1,3.5c0.6,1.8,1.1,3.4,1,3.5c0,0.1-1.4-0.7-3-1.9
	c-1.6-1.2-3-2.2-3.2-2.2c-0.1,0-1.4,0.8-2.8,1.8c-1.4,1-2.8,2-3.1,2.2L231.3,54.2z M369,53.9c0-0.2,0.5-1.8,1.1-3.5
	c0.6-1.8,1.1-3.3,1.1-3.5c0-0.1-1.4-1.2-3-2.4c-1.7-1.2-3-2.2-3-2.3c0-0.1,1.7-0.2,3.8-0.2h3.9l1.1-3.6c0.6-2,1.2-3.6,1.3-3.6
	c0.1,0,0.6,1.6,1.3,3.6l1.1,3.6h3.9c2.1,0,3.9,0.1,3.8,0.2c-0.1,0.1-1.5,1.2-3.1,2.4l-3,2.2l1.2,3.5c0.6,1.9,1.1,3.6,1.1,3.7
	s-1.4-0.8-3.1-2s-3.1-2.2-3.2-2.2c-0.2,0-3.9,2.7-5.9,4.2C369.1,54.1,369,54.1,369,53.9z M335.6,34.7c0.6-2,1.2-3.7,1.2-3.7
	c0-0.1-1.4-1.1-3-2.3c-1.7-1.2-3-2.2-3-2.3c0-0.1,1.7-0.2,3.8-0.2l3.8-0.1l1.2-3.5c0.6-1.9,1.2-3.5,1.4-3.4c0.1,0.1,0.7,1.7,1.3,3.6
	l1.1,3.4l7.8,0.1l-3.1,2.3c-1.7,1.2-3.1,2.3-3.2,2.3c0,0,0.5,1.7,1.1,3.7c0.6,2,1.1,3.7,1.1,3.7c0,0-1.5-1-3.2-2.2
	c-1.9-1.4-3.2-2.2-3.3-2.1c-0.7,0.5-6,4.4-6,4.4C334.5,38.3,335,36.7,335.6,34.7z M276.2,36.9c-1.1-0.8-2.5-1.8-3.1-2.3l-1.1-0.8
	l-3.1,2.3c-2.9,2.1-3.2,2.3-3.2,2.2c0,0,0.5-1.7,1.2-3.7c0.6-2,1.2-3.7,1.1-3.7c0,0-1.5-1-3.2-2.3l-3.1-2.3l3.9-0.1l3.9-0.1l1.1-3.4
	c0.6-1.9,1.2-3.5,1.3-3.6s0.7,1.4,1.3,3.4l1.2,3.5l3.8,0.1c2.1,0,3.8,0.1,3.8,0.2c0,0.1-1.4,1.1-3,2.3c-1.7,1.2-3,2.2-3,2.3
	c0,0.1,0.5,1.7,1.2,3.7c0.6,2,1.1,3.6,1.1,3.6S277.4,37.7,276.2,36.9z M297.5,33.5c0-0.1,0.7-2.4,1.6-5.1c0.9-2.7,1.6-5.1,1.5-5.2
	c-0.1-0.1-2-1.6-4.3-3.3c-2.3-1.7-4.2-3.1-4.2-3.2c0-0.1,2.4-0.2,5.4-0.2h5.5l1.7-5.2c0.9-2.9,1.8-5.1,1.8-5
	c0.1,0.1,0.9,2.4,1.8,5.2l1.6,5h5.5c3,0,5.5,0.1,5.4,0.2c0,0.1-1.9,1.5-4.2,3.2c-2.3,1.7-4.3,3.1-4.3,3.3c-0.1,0.1,0.6,2.5,1.5,5.3
	c0.9,2.8,1.6,5.1,1.6,5.1c0,0-2-1.3-4.4-3c-2.4-1.7-4.4-3.1-4.5-3.1s-2.1,1.4-4.5,3.1C297.8,33.5,297.5,33.7,297.5,33.5z"/>
</svg>
