<?xml version="1.0" encoding="utf-8"?>
<!-- Generator: Adobe Illustrator 26.5.1, SVG Export Plug-In . SVG Version: 6.00 Build 0)  -->
<svg version="1.1" id="Layer_1" xmlns="http://www.w3.org/2000/svg" xmlns:xlink="http://www.w3.org/1999/xlink" x="0px" y="0px"
	 viewBox="0 0 595 841" style="enable-background:new 0 0 595 841;" xml:space="preserve">
<path fill="currentColor" d="M45.6,628.5c-0.5-0.1-1.5-0.5-2-0.9c-1.2-0.7-6.1-5.4-10.9-10.5c-2.9-3.1-3.3-3.6-4.3-5.6c-0.6-1.2-1.3-2.9-1.5-3.8
	c-1.1-4.1-1.1-2.7-1-46.3l0-40.5l0.5-2.5c0.7-3.3,1.8-6.8,3.1-9.3c1.1-2.1,5.9-9.8,10.6-16.6c3.5-5.2,5.9-7.7,8.8-9.1
	c3.1-1.5,3.8-1.6,16.9-1.5l11.3,0.1l1.7,0.6c1.9,0.7,3.9,1.8,5.5,3l1.1,0.9l0.7-0.6c1-0.9,3.2-2.3,4.6-2.8c2.9-1.1,2.6-1.1,34.5-1
	c24.6,0,30,0.1,31.1,0.4c1.1,0.2,1.4,0.3,2.4,0c0.8-0.2,3.8-0.3,10.2-0.4c6.6-0.1,9.7-0.2,11.2-0.5c6.8-1.1,15.7-1.6,24.4-1.3
	c3.7,0.1,8.1,0.2,9.8,0.2c3.3,0,4.2,0.2,6.6,1.2c0.8,0.4,1.6,0.6,1.8,0.6c0.2,0-0.5-1.1-2-3L218,476l-1.9-0.1
	c-1.1-0.1-7.3-0.1-13.9,0c-13.2,0.1-14.3,0.1-17.4-1.1c-3.7-1.3-16.2-7.3-22.7-10.9c-8.8-4.9-18-11.1-20.5-13.7l-1.2-1.4l0.8-0.1
	c0.5-0.1,4.1-0.2,8.1-0.3c9.8-0.2,20.7,0.2,31.6,1.3c8,0.8,12,1.5,17.6,3.1c1.6,0.5,3,0.9,3,0.9c0.1,0-0.7-1.1-1.6-2.5
	c-2.4-3.4-8.4-12.6-10.1-15.4c-0.8-1.2-1.4-2.2-1.5-2.2c-0.1,0-1.3,0.4-2.7,0.9c-10.3,3.5-16.7,5.1-23.4,6
	c-5.3,0.7-17.3,0.4-26.5-0.6c-9.9-1.1-16.3-2.4-22.7-4.5c-5.7-1.9-5.5-1.5-2-3.6c7.5-4.6,15.7-7.7,27.5-10.3
	c6.8-1.5,12.3-2.4,18.8-2.9c5.6-0.5,17.1-0.2,21.6,0.4l1,0.2l-0.9-1.6c-2.9-5.2-4.7-8.6-7.3-13.9c-1.6-3.3-3.3-6.4-3.8-7
	c-1.1-1.5-2.1-3.7-2.6-5.8c-0.2-1-1.1-3.4-1.9-5.4c-7.2-18-11.1-35-12.4-53.4c-0.1-1.9-0.3-3.9-0.4-4.3l-0.1-0.9l-2.4-0.3
	c-15.9-1.7-31.7-8.2-44-18.1c-8.3-6.7-16.5-16.6-21.1-25.8l-0.8-1.5h0.6c0.3,0,1.9,0.1,3.4,0.3c11.8,1.4,22.1,4.6,34,10.6
	c7.5,3.7,12,6.5,17,10.6c4.4,3.5,9.5,8.8,12.2,12.6l0.7,1l0.3-5.8c0.1-3.2,0.3-6.7,0.4-7.8l0.2-1.9l-2.9-0.6
	c-7.4-1.5-14.5-4.4-22.5-9.2c-14.4-8.6-25.4-18.7-36.3-33.2c-1.2-1.6-2.5-3.4-2.8-4c-0.6-1.2-1.9-5-1.8-5.1
	c0.3-0.3,6.8,0.8,11.2,1.8c9.8,2.4,18.6,6.4,37.6,17.3l1.2,0.7l-0.2-1.2c-0.1-0.6-0.2-1.4-0.3-1.6c-0.1-0.2-1.2-1.5-2.5-2.7
	c-8.4-8.2-14.9-17.3-20.5-28.5c-3.9-7.8-5.5-12-5.9-15.4c-0.3-2.3-0.3-3.7,0-3.7c0.1,0,0.9,0.3,1.7,0.7c0.8,0.4,3.1,1.5,5.1,2.4
	c7.2,3.3,11,5.3,16.2,8.8c8.5,5.7,15.2,11.7,21.2,19.2c3.9,4.8,6.2,8.6,8,12.9c0.6,1.5,1.2,2.6,1.2,2.5c0.1-0.1,0.4-1,0.7-2
	s1.3-3.6,2.1-5.8c10.3-27.8,27.2-51.5,49.4-69.1c2.2-1.7,7.5-5.6,8.2-6c0.2-0.1-2.2,2.4-5.4,5.6c-11.2,11.1-19,20.9-26.5,33.2
	c-3.5,5.7-7.7,13.4-7,13.1c0.2-0.1,1.7-1.3,3.4-2.7c4.8-3.8,7.1-5.2,11-6.8c2.9-1.2,7.5-2.2,10.8-2.4c2.9-0.2,6.6,0.8,10.7,2.7
	c1,0.4,1.8,0.7,1.8,0.6c0-0.3,13.2-13.5,16.4-16.5c6.9-6.1,16.9-13.8,21.5-16.4l1.3-0.7l-0.4-0.7c-0.2-0.4-0.5-0.9-0.7-1.2
	c-0.3-0.5-0.2-0.6,1.1-1.8c1.9-1.7,3.5-2.5,6-3.1c1.2-0.2,3.5-0.9,5.1-1.4c6.6-2.1,16.8-4.3,21.7-4.7c1.7-0.1,3.2-0.3,3.5-0.5
	c0.3-0.1,1.4-0.9,2.5-1.7c3.3-2.3,6.8-4.3,13-7.4c6.7-3.3,7.6-3.7,9.6-4c2.5-0.4,3.8,0,8.3,2.2c2.2,1.1,4.3,2,4.7,2.1
	c0.4,0.1,2.6,0.3,5,0.4c2.4,0.2,4.8,0.4,5.4,0.5c0.6,0.1,1.6,0.2,2.3,0.2c3.1,0,6.6,1.4,9.1,3.6c0.8,0.7,2.4,2.3,3.6,3.7l2.3,2.4
	l2.4,0.8c8,2.7,23.2,10.8,27,14.3c0.3,0.3,1,1.1,1.4,1.8c0.4,0.7,1.2,1.6,1.6,2.1l0.8,0.9l2.4-2.4c1.3-1.3,3.1-2.8,3.9-3.4
	c0.8-0.5,1.5-1,1.5-1.2c0-0.1-2.6-2.8-5.7-5.9c-3.2-3.1-5.7-5.7-5.6-5.7c0.5,0,8.8,6.3,13.5,10.3c0.3,0.2,0.6,0.2,2-0.2
	c0.9-0.3,1.7-0.6,1.7-0.7c0-0.1-0.6-0.9-1.4-1.8c-14.1-16.9-16.6-36.2-7.6-58c0.6-1.6,1.2-3,1.3-3.2c0.1-0.2,0.2-0.4,0.3-0.4
	c0.3,0,5.1,6.5,7.2,9.7c7,10.7,11.7,21.7,14.2,33.5c1.5,7,1.9,11.6,1.5,16.6c-0.4,5.2-0.6,4.6,1.6,5.5c1.1,0.5,1.9,0.7,1.8,0.5
	c-0.3-0.8-0.6-4.9-0.5-6.4c0.5-5.8,3.3-17.4,6.5-26.8c1.4-4.1,5.6-15.8,5.8-15.9c0.1-0.1,0.8,0.9,1.5,2.1c13.1,21.9,15,47.4,5,67.4
	c-1.4,2.8-2.7,5-4.3,7.3l-1.2,1.7l-0.9-1.2c-0.5-0.7-0.9-1.2-0.9-1.2c0,0-0.1,0.8-0.2,1.7c-0.2,2.8-0.8,7.2-1,8.1
	c-0.2,0.9-0.2,1,1.2,3.4c4.1,7.2,8.4,16.9,12,26.8l1.7,4.7l0.5-1.4c0.8-2.2,2.8-6.2,4.3-8.5c7.8-11.9,20.1-22.8,33.9-30.1
	c2-1.1,14.3-6.9,14.6-6.9c0.2,0,0.1,2.9-0.2,4.6c-0.6,3.2-1.7,6-5,12.8c-5.6,11.6-11.6,20.2-20.2,28.9l-3.8,3.8l-0.2,1.4
	c-0.2,1.4-0.2,1.4,0.3,1.2c0.2-0.1,2.6-1.5,5.3-3c17.1-9.7,26-13.4,36.4-15.5c2.9-0.6,7.5-1.2,7.7-1.1c0.1,0.1-1.2,4.1-1.8,5.1
	c-0.7,1.4-4.2,6-8,10.5c-9.1,10.9-19.2,19.5-31.1,26.7c-8.1,4.8-15.4,7.8-22.7,9.2c-1.4,0.3-2.5,0.5-2.6,0.5s0,1.6,0.2,3.5
	c0.1,1.9,0.3,5.4,0.4,7.7l0.1,4.3l1.7-2.2c0.9-1.2,3.5-4,5.6-6.1c6.9-6.9,12.7-10.9,23.7-16.3c9.7-4.8,18.5-7.7,27.7-9.3
	c4-0.7,8.9-1.2,9.1-1c0.1,0.1-1.3,2.9-3.1,5.9c-11.4,18.8-29,31.7-50.8,37.3c-3.6,0.9-9.7,2-12.6,2.3l-1.7,0.2l-0.1,2
	c-1.9,25.5-6.5,43.5-17.5,67.8c-2,4.4-7,14.3-9.5,18.9c-1.1,2-2,3.7-2,3.7c0,0,1-0.1,2.2-0.3c8.1-1.1,20.1-0.7,29.8,0.8
	c12.5,2,23.8,5.3,31.9,9.4c2.8,1.4,8,4.6,7.8,4.7c0,0-2.1,0.8-4.6,1.6c-3.4,1.2-5.6,1.8-8.8,2.4c-10.5,2.1-20.4,3.1-31.4,3.1
	c-10.7,0-15.7-0.9-29.6-5.4c-3.2-1-5.8-1.8-5.8-1.8c0,0-0.9,1.4-1.9,3c-1,1.6-2.3,3.7-3,4.7c-1.1,1.7-1.2,1.9-1.1,3.1
	c0.1,2.5-0.7,4.6-2.3,6.4c-1.5,1.7-1.4,1.8,1.9,1c3.6-0.9,7.1-1.5,12.7-2c9.7-0.9,20.4-1.5,28.7-1.5c5.2,0,12.6,0.3,12.8,0.5
	c0.2,0.2-2.6,2.9-4.8,4.6c-9.4,6.9-22.2,14-36.5,20.3c-5.2,2.3-4.3,2.2-16.7,2.2l-10.8,0l-0.1,1c0,0.5-0.2,1.4-0.3,2l-0.2,1l8.9,0
	c9.3,0,13.7,0.3,20.4,1.2c2,0.3,5.1,0.5,8.5,0.6c3,0.1,5.9,0.3,6.6,0.4c1,0.2,1.5,0.2,3.2-0.1c1.7-0.3,3.9-0.3,13.4-0.3
	c12.1,0,13.7,0.1,16.2,1l1.5,0.5l1.7-0.6c2.9-1,4.1-1,20.6-0.9l15.6,0.1l1.5,0.5c2,0.7,4.1,1.8,5.5,2.9l1.2,1l1.3-1.1
	c1.5-1.2,3.8-2.4,5.8-2.9c1.3-0.4,2.6-0.4,13.4-0.4c11,0,12.1,0,13.3,0.4c3,0.9,5.8,2.9,7.9,5.5c2.4,3,12.3,18.1,13.9,21.2
	c1.5,3.1,2.9,7.8,3.4,11.5c0.1,1,0.2,6.6,0.2,12.9c0,8.8-0.1,11.5-0.3,13.2c-0.8,5.3-2.7,9.7-5.5,12.7l-1,1l0.9,1.4
	c2.9,4.6,4.9,10.4,5.7,16.7c0.3,2.3,0.3,23.2,0,25.4c-0.5,3.9-2,7.9-3.7,10.2c-0.5,0.7-3.6,3.9-6.8,7.2c-5.4,5.4-6.1,6.1-7.5,6.8
	c-2,1-4.3,1.2-6.6,0.6c-0.8-0.2-4.6-1.9-9.5-4.3c-4.5-2.2-9.5-4.6-11.2-5.4c-3.9-1.8-5.6-2.9-8.2-5.4c-2.4-2.3-4.2-4.6-6.3-7.8
	l-1.5-2.4l-0.8,0.8c-1.8,1.8-4.7,3-7.4,3.1c-2.1,0-3.9-0.5-9.1-2.5c-2.7-1.1-6.4-2.5-8.2-3.2c-4-1.5-5.9-2.5-7.9-3.9l-1.5-1.1
	l-1.9,0c-1.1,0-2.4-0.1-2.9-0.3c-0.5-0.1-4.9-1.5-9.7-3.1c-4.8-1.6-11.8-3.8-15.5-4.9c-3.9-1.2-7.5-2.3-8.5-2.8
	c-1.3-0.6-2.1-0.9-2.8-0.9c-1.4,0-2.8-0.3-11-2.4c-4-1-10.7-2.6-14.9-3.6c-4.3-1-8.4-2-9.4-2.4c-5.3-2-10-6.3-12.3-11
	c-0.9-1.7-1.1-2.6-1.8-5.5l-0.2-0.8l-2.6,1.9c-10.5,7.5-11.5,8.2-14.5,8.9c-1.9,0.5-5.7,0.7-7.8,0.4c-0.7-0.1-1.7-0.2-2.3-0.3
	c-0.5-0.1-2.1-0.3-3.6-0.4c-2.5-0.3-9.9-1.1-13.1-1.3c-4-0.3-8-1.5-11-3.3c-0.8-0.5-2.8-2-4.4-3.3c-1.6-1.4-4.7-3.9-6.8-5.7
	l-3.8-3.2l-0.2,1c-0.6,3-1.6,5.1-3.5,7c-2.1,2.1-4.6,3.5-8,4.5c-2.4,0.7-3.2,0.7-15,0.9c-5.8,0.1-10.6,0.2-10.6,0.2
	c-0.1,0.1-3.6,0.1-7.7,0.2c-5.2,0.1-8,0.2-9.2,0.4c-1,0.2-2.5,0.4-3.4,0.4c-0.9,0.1-2.5,0.2-3.5,0.2c-3.5,0.2-11.4,1-15.1,1.4
	c-2.1,0.2-5.2,0.6-7,0.8c-1.8,0.2-4.3,0.6-5.6,0.9c-1.6,0.4-3.4,0.6-5.5,0.7c-1.7,0.1-3.3,0.2-3.5,0.3c-0.2,0.1-2.6,0.5-5.4,0.9
	c-6.5,1-13.2,2.2-20,3.6c-3,0.6-6.3,1.2-7.5,1.2c-1.1,0.1-2.3,0.2-2.6,0.4c-1.1,0.6-3.3,1.2-8,2.2c-6.5,1.5-12.1,2.9-19.2,4.9
	c-3.5,1-6.6,1.7-7.6,1.8c-1.3,0.1-2.1,0.3-3.6,1.1c-1.1,0.5-4.4,1.7-7.4,2.6c-14,4.2-32.2,10.8-47.3,17c-3.2,1.3-6.4,2.6-7.1,2.7
	c-2,0.5-4.7,0.5-6.5-0.2l-1.6-0.5l-0.9,1.2c-1.4,1.9-4.6,4.9-6.5,6.2c-1,0.6-3.6,2-5.9,3.1s-7.4,3.5-11.5,5.5
	c-4.3,2.1-7.8,3.7-8.5,3.8C49,628.8,46.9,628.8,45.6,628.5z M54.2,602.9l0.8-0.3c3.1-1.3,7.8-3.2,12.2-5c2.9-1.1,5.5-2.2,5.9-2.3
	c0.5-0.2,1.2-1.2,3.1-4.4c1.4-2.2,3.9-6.3,5.7-9.1l3.2-5v-12l-1.6,0.4c-3.6,1-12.2,3.5-12.2,3.5c0,0-0.1,2.1-0.2,4.6l-0.1,4.5
	l-6.8,2.3c-3.7,1.3-6.8,2.3-6.9,2.2c-0.1-0.1,0.2-57.2,0.4-57.3c0.1-0.1,2.9-0.5,6.4-1c3.5-0.5,6.5-0.9,6.9-1l0.6-0.1v4.6
	c0,2.5,0.1,4.6,0.2,4.6c0.1,0,3.2-0.5,7-1.1l6.9-1.1v-12.3l-2.1-2.4c-1.1-1.3-3.6-4.3-5.5-6.5c-2.9-3.5-3.5-4.1-3.9-4.1
	c-0.3,0-4.6,0.4-9.7,0.8c-5.1,0.4-9.3,0.8-9.4,0.8c-0.3,0.2-4.9,7-8.2,12.1l-3,4.7l-0.1,21.5c-0.1,11.8-0.1,27.3-0.1,34.3v12.9
	l1,1.1c0.5,0.6,3,3.2,5.4,5.7L54.2,602.9z M554.5,602.8l2-2c1.1-1.1,3.6-3.6,5.5-5.6l3.4-3.6l0-7.2l-0.1-7.2l-6.8-2.2l-6.8-2.2
	l-0.1,4.7c0,2.6-0.1,4.7-0.1,4.7c-0.1,0-13.6-4.5-13.7-4.6c-0.1-0.1-0.6-54.7-0.5-54.8c0.1-0.1,13.6,1.8,13.8,2
	c0.1,0.1,0.2,2.2,0.2,4.8v4.7l6.6,1.2c3.7,0.7,6.8,1.2,7.1,1.2c0.4,0,0.4-0.3,0.2-7.1l-0.2-7.1l-2.1-3.2c-4.5-7.1-9-13.5-9.4-13.6
	c-0.2-0.1-4.4-0.4-9.2-0.8c-4.8-0.4-9.1-0.7-9.4-0.8c-0.6-0.1-0.8,0.1-2.9,2.6c-2.5,3-7,8.4-8.1,9.5l-0.7,0.8v2.9
	c0,1.6,0.1,15,0.3,29.8l0.3,26.8l3,4.7c1.7,2.6,4.2,6.7,5.6,9.1l2.6,4.3l5.4,2.1c2.9,1.2,7.3,2.9,9.7,3.9L554.5,602.8z M327,600.6
	c-4.2-1-6.6-5.2-6.6-11.2c0-7.5,3.3-11.8,9.2-11.7c5.7,0,8.9,3.6,9.3,10.6c0.4,5.6-1.9,10.5-5.5,11.9C332,600.8,328.5,601,327,600.6
	z M360.7,600.6c-2.3-0.8-3.6-1.8-4.6-3.9c-0.9-1.9-1.3-3.5-1.5-6.2c-0.2-3.7,0.7-7.4,2.2-9.4c2.1-2.8,5.9-4,9.5-3.1
	c1.4,0.3,2.9,1.1,3.9,1.9l0.6,0.5l-1.1,1.7c-0.6,0.9-1.2,1.7-1.3,1.8c-0.1,0.1-0.4-0.1-0.8-0.4c-1.7-1.4-4.5-1.7-5.9-0.5
	c-0.8,0.6-1.5,2-1.8,3.2l-0.1,0.8l1.2-0.5c4-1.8,8.6,0,10.1,4c0.5,1.3,0.5,4.1,0,5.5c-0.6,1.6-2.2,3.3-3.9,4.1
	c-1.1,0.5-1.7,0.6-3.4,0.7C362.3,600.8,361.2,600.8,360.7,600.6z M259.2,600.5c-1.7-0.4-2.7-0.9-4.3-2c-2.4-1.6-2.4-1.5-0.8-3.5
	c0.8-0.9,1.5-1.7,1.6-1.8c0.1,0,0.7,0.3,1.3,0.7c2.3,1.8,5.3,2.6,6.8,2c0.9-0.3,1.5-1.2,1.5-1.9c0-1.2-0.9-1.7-4.1-2.6
	c-5.7-1.6-7.4-3.2-7.4-7c0-2.8,1-4.6,3.5-5.8c3.1-1.6,7.9-1.2,11.3,0.8c1.7,1,1.7,1.1,0.4,3c-0.6,0.9-1.2,1.7-1.4,1.8
	c-0.1,0.1-0.4,0-0.6-0.2c-1-0.9-3.8-1.9-5.3-1.9c-1.8,0-3.1,1.2-2.6,2.5c0.3,0.8,1.1,1.3,3.3,1.9c4.8,1.3,6.5,2.3,7.5,4.3
	c0.5,1,0.6,1.5,0.6,2.9c0,2.9-1.4,5-4.1,6.2c-1,0.5-1.6,0.6-3.6,0.6C261.2,600.8,260,600.8,259.2,600.5z M233.5,600.7l0.1-11.2
	l0.1-11.2l8.1-0.1l8.1-0.1v4.8h-11v4.3h9.9v4.3h-9.9v4.5h11.5v4.5H233.5z M279.1,600.7v-17.9h-6.3v-4.5h17.7v4.5h-6.3v17.9H279.1z
	 M301.4,600.7v-3.7l4.3-4.5c5.4-5.5,5.7-6,5.8-7.6c0.1-1.6-0.5-2.4-2-2.6c-1.4-0.2-2.1,0.2-3.4,1.6l-1.1,1.2l-2-1.2
	c-1.1-0.6-2-1.3-2-1.5c0-0.2,0.8-1.1,1.8-2.1c2.2-2.2,3.2-2.6,6.3-2.6c1.9,0,2.3,0.1,3.4,0.6c1.8,0.9,2.7,1.8,3.4,3.1
	c0.5,1.1,0.6,1.5,0.6,3c0,2.8-0.7,3.9-5.5,9l-2.2,2.4l4.2,0.1l4.2,0.1l0.1,2.3l0.1,2.3H301.4z M345.2,600.7v-17.9h-4.3v-4.6l4.6,0.1
	l4.6,0.1l0.1,11.2l0.1,11.2H345.2z M331.3,596.2c1-0.5,1.9-2.1,2.2-4c0.4-2.1,0.2-5.8-0.4-7.4c-0.5-1.3-1.6-2.5-2.5-2.7
	c-0.9-0.2-2.4,0-3.1,0.5c-2.9,2.1-2.8,11.4,0.2,13.4C328.6,596.7,330.2,596.7,331.3,596.2z M364.8,596.2c2.1-0.9,2.4-3.8,0.7-5.3
	c-0.6-0.6-0.9-0.7-1.9-0.7c-2.1,0-3.4,1.1-3.4,3C360.2,595.7,362.5,597.2,364.8,596.2z M94.8,587.3l8.3-2.8
	c4.6-1.5,10.6-3.5,13.5-4.4l5.2-1.6l0.2-7.6c0.1-4.2,0.1-7.7,0.1-7.7s-1.4,0.2-3.1,0.7l-3,0.8l0.1-5.2c0.1-2.9,0.1-6.4,0.1-7.9v-2.7
	l0.8-0.2c0.9-0.2,12.8-2.6,13-2.6c0.2,0,0.3,3.2,0.1,10.1l-0.1,5l-3,0.7l-3,0.7l-0.2,7.6c-0.1,4.2-0.1,7.6,0,7.7
	c0.1,0.1,0.6,0,1.2-0.2c9.1-2.7,14.5-4.2,22-6.1c2.1-0.5,3.8-1,3.8-1c0,0,0.1-3.2,0.2-7.1l0.1-7l-3.5,0.7c-1.9,0.4-3.5,0.7-3.5,0.7
	c0,0,0.1-8.3,0.2-18.3c0.2-10,0.3-19.8,0.4-21.6l0.1-3.4l3.4-0.3c1.9-0.2,3.4-0.4,3.5-0.4c0.1-0.1,0.2-3.3,0.3-7.1l0.1-7l-2.8,0.1
	c-12.2,0.6-24.2,1.3-24.3,1.4c-0.2,0.2-0.3,15.3-0.1,15.3c0.4,0,3.6-0.3,4.7-0.5l1.1-0.1l-0.1,7.5c-0.1,4.1-0.2,7.5-0.2,7.6
	c-0.1,0.1-13.9,2.2-14,2.2c0,0,0-3.6,0.1-7.9l0.1-7.8l0.6-0.1c0.3-0.1,1.6-0.2,3-0.4l2.4-0.2l0.1-4.5c0.1-2.5,0.1-6,0.1-7.8V501
	l-1.5,0.1c-0.8,0.1-3.2,0.2-5.2,0.3c-8.8,0.5-20.2,1.3-20.3,1.4c-0.1,0.1-0.1,3.9-0.2,8.4l-0.1,8.3l1.3-0.1c0.7-0.1,2.3-0.3,3.5-0.4
	l2.2-0.3v2.8c0,5.5-0.6,46.6-0.7,46.7c0,0-1.6,0.5-3.4,1l-3.4,0.9l-0.1,4.7c-0.1,2.6-0.1,6.4-0.1,8.5V587.3z M506.3,524.8l-0.1-6
	l3.1,0.4c1.7,0.2,3.3,0.4,3.6,0.4l0.4,0l-0.1-8.4c0-4.6-0.1-8.4-0.1-8.4c0-0.1-26.5-1.8-27.5-1.8l-0.5,0l0.1,7.6
	c0,4.2,0.1,7.6,0.2,7.7c0.1,0.1,1.6,0.3,3.4,0.5c1.8,0.2,3.3,0.4,3.4,0.5c0.1,0.1,0.6,28.1,0.5,28.6c0,0.2-0.9-1.5-1.9-3.8
	c-2.8-6.4-8.2-18-11.3-24.6c-2.3-4.9-8.3-17.1-8.5-17.2c0,0-3.9-0.2-8.6-0.5c-4.7-0.2-9.4-0.5-10.5-0.6l-2-0.1v5.6
	c0,3.1,0.1,6.2,0.1,7l0.1,1.4l3.4,0.3c1.9,0.1,3.4,0.3,3.5,0.3c0.1,0.1,0.8,42.3,0.7,42.4c0,0-1.5-0.2-3.4-0.6
	c-1.8-0.4-3.4-0.7-3.5-0.7c-0.2,0-0.2,5.3,0,10.5l0.1,3.4l4.6,1.1c6.7,1.6,12.6,3.2,18.2,4.8c2.7,0.8,5,1.4,5,1.4
	c0.2,0,0.2-10.5,0-13l-0.1-2.1l-3.4-0.8l-3.4-0.8l-0.1-3.4c-0.1-1.9-0.2-8-0.2-13.6l-0.1-10.2l1.4,2.7c3.7,7.3,11.9,25.4,17.6,38.8
	l2.8,6.5l1.9,0.6c1.1,0.3,4.2,1.3,6.9,2.2c2.7,0.9,5,1.6,5,1.6C507.1,584.8,506.5,533.6,506.3,524.8z M186.9,562.6
	c0.5-0.1,1.1-0.2,1.2-0.3c0.1-0.1,0.3-2.4,0.3-6.5c0.1-6.3,0.1-6.3-0.3-6.3c-0.2,0-1.6,0.2-2.9,0.4c-1.4,0.2-2.5,0.4-2.6,0.3
	c-0.1-0.1,0.4-35.4,0.5-37.5c0.1-1.8-0.1-1.7,3.5-1.9l2.5-0.2l0.1-6.4c0.1-3.5,0.1-6.4,0.1-6.4c-0.1-0.1-27,1-27.1,1.2
	c0,0-0.1,3.2-0.2,6.9l-0.1,6.9l1.5-0.1c0.8-0.1,2.4-0.2,3.5-0.3l2-0.1l0,3.1c0,2.2-0.5,31.6-0.6,37.3c0,0.1-1.5,0.5-3.4,0.9
	c-1.8,0.3-3.4,0.7-3.6,0.7c-0.1,0.1-0.2,3.2-0.2,7c-0.1,6,0,6.9,0.2,6.8C164.3,567.2,183.6,563.1,186.9,562.6z M440.7,562.5
	c0-2.1-0.1-5.2-0.1-6.8l-0.1-2.9l-2.9-0.5c-1.6-0.3-2.9-0.6-3-0.7c-0.1-0.4-0.8-39.5-0.6-39.7c0.1-0.1,1.4,0,3,0.1l3,0.2l-0.2-6.7
	c-0.1-3.7-0.2-6.7-0.2-6.8c-0.1-0.1-13.2-0.6-23.2-1l-4-0.1l0.1,4.1c0.1,2.2,0.1,5.1,0.1,6.4v2.3l3.4,0.2c1.9,0.1,3.5,0.2,3.5,0.3
	c0.1,0.1,0.8,38.3,0.6,38.5c0,0-1.5-0.1-3.1-0.4s-3.3-0.5-3.5-0.5c-0.4,0-0.4,0.2-0.3,6.2c0.1,3.4,0.2,6.2,0.2,6.3s2.7,0.6,5.9,1.2
	c5.7,1,18.6,3.7,19.8,4C440.7,566.6,440.7,566.8,440.7,562.5z M198.5,560.5l2.8-0.5c4.7-0.8,12.6-2,19-2.9c3.4-0.5,6.2-0.9,6.2-0.9
	c0.1-0.1,0.2-2.8,0.2-6l0.1-5.9l-0.9,0.1c-1.8,0.3-5.9,0.6-6,0.5c-0.1-0.1,0-3.9,0-8.5l0.2-8.4l6.9,13.7c3.8,7.5,7,13.7,7.1,13.7
	c0.1,0,0.8-1.4,1.6-3.2c2.7-5.8,7.7-16.2,10.9-22.5l1.8-3.6l0,16l-1.1,0.1c-0.6,0.1-2.1,0.2-3.3,0.3c-1.2,0.1-2.3,0.2-2.4,0.3
	c-0.1,0.1-0.3,2.4-0.4,5.9l-0.2,5.7l5.1-0.5c6.9-0.7,12.5-1.1,17.9-1.4l4.5-0.3l0.1-1c0.1-0.5,0.1-3.1,0.1-5.7V541l-1.7,0.1
	c-0.9,0.1-2.5,0.2-3.6,0.2l-1.9,0.1v-4.3c0-2.4,0.1-10,0.1-17.1l0.1-12.8h1.6c0.9,0,2.4-0.1,3.5-0.1l2-0.1v-11.2l-10,0.1
	c-8.6,0.1-10,0.2-10.3,0.5c-0.1,0.2-3.4,6.6-7.2,14.3c-3.8,7.7-7,14-7.1,14c-0.1,0-7.1-14.1-11-22.1l-2.8-5.8l-1.8,0.1
	c-15.2,0.4-19.3,0.5-19.4,0.6c0,0-0.1,2.9-0.1,6.3c-0.1,4.1,0,6.3,0.1,6.2c0.1,0,1.7-0.1,3.5-0.2l3.3-0.1l0,1.9
	c-0.1,7.2-0.6,35.1-0.7,35.2c-0.1,0.1-1.6,0.3-3.4,0.6c-1.8,0.3-3.4,0.5-3.4,0.6s-0.1,2.9-0.2,6.3L198.5,560.5z M377.2,550.1
	l4.5-3.3v-8.2c0-4.5-0.1-8.3-0.1-8.5c-0.1-0.3-2.8-2.8-6.9-6.3c-0.9-0.8-1.8-1.5-1.8-1.6c-0.1-0.1-0.7-0.7-1.5-1.3l-1.4-1.2
	l-5.3-0.2c-2.9-0.1-6.7-0.3-8.4-0.4l-3-0.1l-0.1-4c-0.1-2.2-0.1-4.8-0.1-5.7v-1.7l4.9,0.1c2.7,0.1,5.9,0.2,7.1,0.3l2.2,0.1v5.8h0.6
	c0.3,0,3.5,0.1,7,0.3c3.6,0.2,6.5,0.3,6.5,0.3c0,0,0-1.9,0-4.2l-0.1-4.1l-5.5-4.7c-3-2.6-5.6-4.8-5.8-4.9s-4.7-0.2-10.1-0.3L350,496
	l-3.8,3c-2.1,1.7-4.6,3.6-5.5,4.4l-1.8,1.4v15.9l5.7,4.8l5.7,4.8l6,0.4c7.4,0.4,10.9,0.7,11,0.8c0.2,0.2,0.1,11.5,0,11.5
	c-0.1,0-3.2-0.2-7-0.5l-6.8-0.5l-0.1-2.8c0-1.5-0.1-2.8-0.2-2.9c-0.1-0.1-11.5-0.8-13.1-0.8h-0.9v7.9l3,2.6c1.7,1.4,4.3,3.6,5.7,4.9
	l2.7,2.3l4.8,0.4c2.6,0.2,7,0.6,9.6,0.9c2.6,0.3,4.9,0.5,5.2,0.5C370.5,554.9,370.6,554.8,377.2,550.1z M279,551.9l2.2-0.1
	c1.2-0.1,7.6-0.2,14.3-0.3l12-0.1v-11.2h-7.1v-11h17.1l5.6-4.3l5.6-4.3l0.1-15.9l-5.7-4.5l-5.7-4.5h-38.2v11.2h6.9v33.4l-1.8,0.1
	c-1,0.1-2.6,0.1-3.6,0.1H279V551.9z M300.4,517.9v-11h14l0.1,3.9c0.1,2.2,0.1,4.6,0.1,5.5v1.6H300.4z M334.2,488.2l1.3-1
	c0.7-0.6,1.3-1.1,1.3-1.2s-0.3-0.2-0.8-0.3c-1-0.2-5.3-1.7-6.9-2.4c-0.7-0.3-1.8-0.9-2.5-1.3c-1.2-0.8-1.7-0.8-1.7-0.2
	c0,0.1,0.3,0.5,0.6,0.8c1.1,1,5.1,3.7,6.9,4.7L334.2,488.2z M384.6,486.2L384.6,486.2c0.7-2.7,1.5-4.2,3.1-5.9
	c0.8-0.9,1.6-1.9,1.8-2.2c0.6-1.1,0.8-2.6,0.5-4c-0.3-1.8-0.2-3,0.2-3.8c0.2-0.4,1.7-2.7,3.3-5.1c2.2-3.4,3.4-4.9,4.8-6.3
	c3.2-3.2,3.5-3.8,3.6-7.6c0.1-3,0.7-4.3,2.3-5.5c0.6-0.4,1-0.9,1-1s-0.6-0.3-1.2-0.4c-0.9-0.1-1.2-0.2-1.3-0.6
	c-0.1-0.4,0-0.6,0.4-1.2c0.3-0.4,0.7-0.9,0.9-1.2c0.3-0.6,0.3-2.2-0.1-2.9c-0.2-0.3-0.3-0.7-0.3-0.9c0-0.4,0.1-0.4,1-0.3
	c0.6,0.1,1.2,0,1.5-0.1c0.7-0.3,2.2-2.6,2.9-4.6c0.7-1.9,1.1-2.4,2.9-4.2c1.8-1.7,2.1-2.4,1.7-3.4c-0.7-1.7-0.3-2.7,1.7-4.8
	c1.7-1.8,2.4-2.9,2.8-4.7c0.4-1.9-0.2-4.2-1.6-5.8l-0.7-0.8l0.8-0.6c1.1-0.8,2.1-1.9,2.1-2.2c0-0.1-0.6-0.9-1.3-1.6
	s-1.4-1.5-1.5-1.8c-0.8-1.4-1.3-7.1-0.7-7.8c0.2-0.2,0.7-0.4,1.2-0.5c0.8-0.2,0.9-0.2,1.1-1c0.1-0.6,0-1.4-0.3-2.8
	c-0.6-2.2-0.5-3,0.4-3.8c0.6-0.5,1.9-0.6,2.8-0.3c0.7,0.3,1.1-0.1,1.3-1.3c0.2-1.5-0.2-2.7-1.2-3.7c-1.1-1.1-1.2-1.6-0.6-3.1
	c0.4-1,0.5-1.9,0.5-4.3c0.1-4.6,0.6-5.8,3.3-7.8c1.6-1.2,1.8-1.8,1.2-3.2l-0.4-0.8l0.6-0.6c0.3-0.3,0.7-0.9,0.8-1.2
	c0.2-0.9-0.2-4.3-1.3-9.7c-1.2-6.3-1.6-9.4-1.4-12.8c0.1-1.5,0.2-3.1,0.3-3.4c0.2-0.6,0.2-0.6,1.8,1.7c0.9,1.3,1.6,2.4,1.6,2.4
	c0.2,0.3,1-0.5,1.2-1.2c1.3-4.7,1.7-8.3,2.4-19.6c0.3-5.6,0.1-17.1-0.3-19.5c-0.5-2.4-0.3-3.3,0.8-4.5c1-1.1,1.1-2,0.5-3.7
	c-0.4-1.1-0.5-1,1.2-2c0.5-0.3,1.1-0.9,1.4-1.4c0.7-1.2,0.9-3.5,0.4-5.1c-0.2-0.6-0.4-1.7-0.4-2.4c-0.1-1.1,0-1.3,0.7-2.4
	c0.4-0.6,0.8-1.3,0.8-1.5c0-0.6-1.2-5.2-1.6-6.1c-0.5-1.1-0.5-2.1,0-2.9c0.4-0.6,0.6-1.2,0.5-2.1c0-0.2-0.5-0.9-1-1.5
	c-0.6-0.6-1-1.2-0.9-1.5c0.1-0.2,0.8-0.7,1.8-1.3c1.6-0.8,1.7-0.9,1.8-1.6c0.1-1-0.7-3.2-2-5.2c-0.5-0.9-1-1.8-1-2
	c0-0.2,0.2-0.6,0.6-1c0.5-0.6,0.5-0.7,0.3-1.3c-0.1-0.4-0.4-0.8-0.6-0.9c-0.6-0.5-1-1.6-1.1-3.3c-0.1-1.9-0.1-1.9-2.2-2.5
	c-0.7-0.2-1.1-0.5-1.5-1c-0.4-0.7-0.5-1-0.5-3.2c0-2.9-0.1-3.2-1.8-4.5c-1.8-1.5-2-2.3-1.1-4.6c0.8-1.9,1.1-3.4,1.5-6.5
	c0.7-5.2,0.6-9.1-0.4-15.6c-0.6-3.9-1.1-5.2-2.7-6.7c-2.5-2.4-8.2-4.2-12.4-3.8c-6.1,0.5-9.1,2.6-13.8,9.7c-1.3,2-2.5,3.7-2.7,3.7
	c-0.1,0.1-0.6-0.2-1-0.7c-0.4-0.4-1.4-1-2-1.3c-1.6-0.7-7.8-6.6-8.6-8.2c-0.5-0.9-0.9-1.3-3.5-3c-4.2-2.8-15.7-8.5-20.4-10.1
	c-3.6-1.2-5.5-2.3-6.5-3.5c-1.4-1.7-5.5-5.6-6.3-6c-0.6-0.3-1.3-0.5-2.6-0.5c-0.9,0-2.2-0.2-2.7-0.3c-1.1-0.3-5.2-0.6-16-1.4
	c-3.8-0.3-6.9-0.6-7-0.6c-0.1-0.1,0.5-0.7,1.2-1.5c0.7-0.8,1.3-1.4,1.3-1.5c0-0.8-4.4,1.1-11.8,5c-3.5,1.9-6.4,3.6-9,5.6
	c-3,2.2-4.4,2.8-7.1,2.7c-3.9-0.1-14.4,2.1-22.3,4.6c-1.7,0.5-3.7,1.1-4.4,1.2c-1.9,0.3-2.4,0.6-3.2,1.4l-0.7,0.8l0.6-0.2
	c0.8-0.3,3.5-0.3,4.6,0.1l0.9,0.3l-0.8,0.6c-0.4,0.3-2.1,1.3-3.8,2.1c-3.7,1.9-6.5,3.7-11.6,7.5c-7.7,5.8-10.8,8.5-18.7,16.4
	c-4.9,4.8-8.9,9.1-13.2,14.2l-0.6,0.7l-2-1.5c-3.7-2.8-8.3-4.8-11.1-4.8c-2.7,0-6.7,0.9-9.7,2.3c-1.9,0.9-3.9,2.2-7.7,5.2
	c-1.9,1.4-4.5,3.5-5.9,4.5c-3.9,2.9-6.1,5.4-7.8,8.8c-1.1,2.3-1.6,4.1-2.3,8c-0.6,3.9-1,5.9-2.5,12.1c-1.9,8.2-2,10.8-0.1,14.7
	c0.7,1.5,0.8,1.8,0.8,3.7c0,1.1,0.1,3.4,0.3,5c0.2,2,0.3,5.5,0.3,11.2c0,9.8,0.3,13.3,1.9,19.9c0.8,3.4,3.1,10.9,3.7,12.2
	c0.8,1.6,2.2,3.2,3.7,4c0.7,0.4,1.6,1,2,1.4c0.9,0.8,2.8,3.7,2.8,4.1c0,0.2-0.2,1-0.5,1.8c-0.7,2-1,4.2-1,7.8c0,3.7-0.4,5.5-2,8.7
	c-0.6,1.2-2.2,4.4-3.5,6.9c-3.6,7.1-5.1,11.5-5.1,15.5c0,4.3,0.9,6.1,3.3,6.9c1.2,0.4,2.9,0.3,4.9-0.2c2.4-0.7,4.4,0,7.4,2.4
	c0.9,0.7,4.2,2.9,7.5,5c11.2,7.1,13.2,8.5,16.9,12.2c3.9,4,5,5.5,14,19.1c4.1,6.1,5.4,8,7.4,10.1c1.3,1.4,1.5,2,1.1,3.6
	c-0.3,1-0.3,1.4,0,2.2c0.4,1.5,1.8,3.5,3.8,5.3c1,0.9,3.1,2.9,4.7,4.5c3.7,3.6,6.8,6.3,11,9.5c8,6.1,14.9,10,21.6,12.4
	c2.6,0.9,3.3,1.4,3.9,2.5l0.4,0.9h34.4l-0.5-0.8c-0.3-0.5-1.2-2.2-2.1-3.8c-0.9-1.7-2.2-3.9-3-5.1c-2.1-3-9.4-11.2-14.5-16.4
	c-2.1-2.1-2.7-3.1-2.7-4.5c0-1.1-0.6-1.8-2.3-2.6c-1.8-0.8-3-1.9-3.6-3.3c-0.4-0.8-0.5-1.4-0.5-3.7c0-1.5,0.1-3.2,0.2-3.9
	c0.1-0.7,0.2-2.2,0.3-3.4c0.1-1.8,0-2.4-0.3-3.8c-0.2-0.9-1-3.7-1.6-6.2c-0.7-2.5-1.5-5.7-1.9-7.2c-1.9-6.7-1.9-7.4,0.3-13.4
	c1.4-3.7,2-5,3.5-6.9c1-1.3,1.9-3.1,1.9-3.8c0-0.1-0.6,0.3-1.3,1c-0.7,0.7-1.3,1.2-1.3,1.2c0-0.1,1.5-3,3.2-6.6
	c1.8-3.6,3.2-6.6,3.2-6.7c0-0.2-0.5-0.2-1.6-0.2c-2.3,0-3.3,0.6-5.4,2.9c-0.9,1-2.1,2.5-2.5,3.2c-0.5,0.7-0.9,1.2-1,1.2
	c-0.2-0.1,0.1-1.7,0.6-3.3c0.5-1.7,1.4-3.1,3.2-5c0.9-1,2.1-2.4,2.8-3.2l1.1-1.4l1.6,1.6c0.9,0.9,1.7,1.6,1.8,1.6
	c0.2,0-0.5-1.8-1.8-4.5l-1.1-2.2l1.8-2.3c4.1-5.4,8.1-12.1,9.9-16.8l0.4-1.1l-2.1,2c-4.3,4.2-9.5,11.1-12.6,16.6l-0.9,1.5l2.3,2.7
	l-1.3,1c-2.9,2.1-5.6,5.1-6.8,7.6c-0.6,1.2-1.8,3-2,3c-0.4,0-0.3-2.1,0.3-3.8c0.2-0.8,0.6-2.6,0.8-4c1-8.3,2.5-11.8,6.5-15.7
	c0.8-0.8,1.4-1.5,1.4-1.6c0-0.3-1.4-0.2-2.9,0.3c-1.3,0.4-4.3,2.1-4.8,2.8c-0.1,0.2-0.3,0.6-0.4,0.9c-0.1,0.3-0.6,1.5-1.1,2.7
	c-3.2,7-4.8,14.7-3.9,18.8c0.6,2.5,0.1,2.7-1.7,1c-1.4-1.3-2.5-3.5-3-5.9c-0.5-2.4-0.4-9.2,0.3-12.6c0.5-2.6,2.3-8.2,2.8-8.7
	c0.3-0.3,0.3-0.3,0.6,0c0.3,0.3,0.3,0.5,0,1.8c-0.2,1.1-0.3,1.7-0.1,2.5c0.2,1.3,1,3,1.3,3c0.4,0,0.9-1,0.9-1.9
	c0-0.5,0.2-2.5,0.5-4.5c0.3-2.1,0.6-4.6,0.6-6.3l0.1-2.8l1.3-2.7c0.7-1.5,2-4.1,2.7-5.7c1.5-3.4,2.4-4.8,4.5-7.2
	c1.9-2.2,4.1-3.9,9.1-7.3c3.4-2.3,4.4-2.8,5.6-3.1c2-0.5,3.9-1.5,6.1-3.2c1-0.8,1.9-1.3,2-1.3c0.1,0.1,0.2,1,0.2,2.1
	c0.1,2.2,0.4,3,1.2,3c0.6,0,1-1,1.3-3.6c0.3-2.6,0.6-3.8,1.6-5.7c1.1-2.2,3.1-4.2,7-7.1c5-3.7,7.9-6.9,8.2-8.7
	c0.1-0.7,0.1-0.9-0.3-0.9c-0.6,0-1.2,0.4-3,2.1c-2.1,2-3.8,3.3-4.3,3.3c-0.6,0-0.6-0.3-0.1-0.8c1-0.9,2.8-3.8,3.4-5.4
	c0.3-0.9-0.1-0.8-0.8,0.2c-0.4,0.5-1.5,1.6-2.5,2.4c-2.7,2.2-3.3,2.8-5.5,5.5c-3.5,4.3-5.6,5.9-13,10c-2.3,1.3-4.6,2.6-5.2,3
	c-0.6,0.5-1.3,0.8-2,0.9c-1.7,0.2-2.5,0.5-3.4,1.3c-1.3,1.1-1.7,1.2-3.6,1.2c-3.8,0-6.8,0.9-12,3.5c-3,1.5-3.7,1.9-5,3.2l-1.5,1.4
	l1.5-4.4c0.8-2.4,1.7-5,2-5.6c0.2-0.6,0.4-1.2,0.4-1.2c0,0-0.5,0.2-1.1,0.6c-1.2,0.7-2.5,2.1-4.6,4.8c-2.1,2.6-2.1,2.6-2.5,2.4
	c-0.2-0.1-0.7-0.2-1.1-0.2c-0.8,0-1.1-0.4-1.1-1.1c0-0.7-0.5-0.6-1,0.2l-0.4,0.7l-0.5-0.6c-0.7-0.8-0.7-1.5,0.2-3.9
	c2.1-6,3.6-9.3,5.5-11.4c0.8-0.9,1.4-1.7,1.4-1.8c0-0.4-1.4,0.1-2.4,0.8c-1.6,1.2-3.6,3.4-5.3,6.1c-1.6,2.5-3.1,4.1-3.3,3.5
	c-0.1-0.5,1.1-4,2.1-5.9c0.7-1.5,6.7-12,8-14.1c0.3-0.4,0.5-0.8,0.5-0.9c0-0.2-1.6,0.3-2.4,0.7c-0.8,0.4-7.4,6.8-9.3,9
	c-0.9,1-1.7,1.8-1.9,1.8s-0.4,0-0.4-0.1c0-0.4,1.2-5.6,1.5-6.8c0.6-2,2.1-4.7,3.1-5.8c2-2,2.3-4.2,1.4-8.2c-0.7-2.8-0.7-3.2-0.1-4.8
	c0.2-0.7,0.4-1.3,0.4-1.3c-0.1-0.1-0.5-0.2-1-0.3c-1.4-0.2-1.3-0.7,0.3-2.4c1.4-1.4,1.8-2.2,1.2-2.2c-0.1,0-0.6-0.1-1-0.1
	c-0.4,0-0.8-0.1-0.8-0.2c-0.1-0.1,0.1-0.5,0.5-0.9c1-1.3,1.1-1.4,0.8-1.6c-0.1-0.1-0.7-0.3-1.3-0.3c-1.2,0-2-0.3-2-0.6
	c0-0.1,1.9-2.2,4.1-4.5l4.1-4.3l-0.5-0.8c-0.4-0.7-0.4-0.8-0.2-1.1c0.2-0.2,1.5-1.8,3-3.6c4.6-5.6,7.9-8.7,11.5-11.1
	c4.8-3.1,10-4.7,16.4-4.9c5.1-0.1,7.4-0.9,12.7-4.4c5.8-3.8,14.5-7.5,19.4-8.3c2.5-0.4,11.2-0.5,12.2-0.1c0.3,0.1,0.9,0.7,1.2,1.2
	c0.4,0.5,0.7,0.9,0.8,0.9c0.1,0,0.8-0.3,1.4-0.7c1-0.5,1.5-0.6,2.8-0.6c2,0,3.2-0.3,7.8-2.2c4.2-1.7,5.2-1.9,6.6-1.2
	c1,0.5,1,0.5,2.8-0.4c2.9-1.3,4.1-1.5,8.8-1.5c6,0,8.7,0.5,17.9,3.1c2.1,0.6,5.4,1.4,7.4,1.9c2,0.4,4.3,1.1,5.3,1.4
	c2.4,0.9,5.5,2.5,7.7,4.1c1,0.7,2.1,1.4,2.3,1.6c0.3,0.2,0.2,0.3-0.8,0.5c-1.4,0.3-2.8,1-3.1,1.5c-0.3,0.6-0.3,2.1,0.2,5.8
	c0.9,7.4,1.9,11.2,5.3,22.7c0.8,2.5,1.4,4.8,1.4,5c0,0.4-0.1,0.5-0.9,0.3c-0.5-0.1-1.8-0.2-2.9-0.3c-1.6-0.1-2.2,0-3.4,0.4
	c-1.5,0.5-3.2,1.4-3.2,1.7c0,0.1,0.5,0.8,1.1,1.6c1.1,1.5,1.8,3,1.7,3.8c-0.1,0.4-0.3,0.6-1.1,0.8c-0.6,0.1-1.1,0.3-1.3,0.4
	c-0.9,0.6-0.6,3.4,0.6,6.4c0.5,1.1,1,2.5,1.2,3.2c0.4,1.3,1.5,2.5,2.4,2.7c1.3,0.3,1.7,0.7,2.9,2.9c1.8,3.2,2.2,4.7,2.1,7.5
	c-0.1,1.8-0.2,2.6-0.6,3.4c-0.6,1.3-0.8,1.4-1.7,1.1c-0.5-0.2-0.7-0.2-1,0.1c-0.2,0.2-0.8,2.8-1.5,5.7c-1.8,7.9-2.7,11.4-3.6,14.1
	c-1.1,2.9-2.8,6.6-3,6.5c-0.1,0-0.2-1.3-0.3-2.8c-0.1-2.3-0.2-2.8-0.7-3.8c-0.6-1.3-3.5-4.9-3.9-4.9c-0.1,0-0.5,0.3-0.8,0.6
	c-0.3,0.4-0.8,0.6-1,0.6c-0.3,0-0.5-0.2-0.7-1.6c-0.1-0.9-0.4-2.8-0.4-4.2c-0.2-3.2-0.5-4.3-1.5-6.5c-1.9-4-7.2-9.8-9.7-10.7
	c-0.6-0.2-0.7-0.2-0.9,0.2c-0.4,0.7,0.1,1.5,2.6,4c3.2,3.3,6.3,8,7.3,11.1c0.3,0.9,0.4,2.2,0.4,5c0.1,6.5,1.2,10.8,4.4,17.6
	c4.6,9.8,6.2,16.4,5.6,23.7c-0.2,2.8-1,7.7-1.3,8.2c-0.1,0.2-0.7-0.7-1.8-3c-0.9-1.8-2.2-4.2-2.9-5.3c-1.8-2.7-6.2-8.2-7.7-9.5
	c-4.7-4.2-17.2-7.1-28.4-6.4c-8.1,0.5-14.7,1.5-18.8,2.8c-1.1,0.4-2.2,0.6-2.4,0.6c-0.2,0-0.8,0.2-1.2,0.4c-0.4,0.2-1,0.4-1.3,0.4
	c-1,0-4.4,1.2-7.4,2.7c-3.2,1.6-6.6,3.8-9.4,6.2c-3,2.5-7.6,7.1-8.5,8.5c-0.4,0.7-1.1,1.4-1.4,1.7c-0.4,0.2-1.5,1.5-2.6,2.9
	c-1.8,2.3-2.5,2.9-3.9,3.9c-1,0.6-1.2,1.2-1,2.5c0.2,1,0.2,1.2-0.3,1.9c-0.3,0.5-1,1.8-1.5,3c-0.8,1.9-1.1,2.2-2.1,3
	c-1.8,1.3-1.8,1.4-1.7,4.2c0.1,2.2,0.1,2.5-0.4,3.7c-0.3,0.7-0.8,2.3-1,3.5c-0.3,1.2-0.8,3.5-1.2,5.2c-0.9,4-1.3,7.1-1.6,12.2
	c-0.1,2.3-0.3,4.3-0.3,4.5c-0.2,0.7-0.1,14,0,14.1c0.1,0.1,0.3,0,0.5-0.2c0.3-0.3,0.4-1,0.5-3.7c0.1-1.8,0.2-3.5,0.4-3.7
	c0.3-0.5,1.2-1.3,1.2-1.1c0,0.1,0.5,2.4,1.1,5.2c1.4,6.6,2.7,11.5,4.4,17.5c0.8,2.7,1.6,5.4,1.8,6.1c0.3,1,0.4,1.1,0.5,0.6
	c0.3-1.1,0.2-3.2-0.4-5.1c-0.3-1.1-0.8-3.5-1.1-5.5c-0.3-2-0.7-4.6-1-5.8c-0.2-1.2-0.7-4.4-1-7.1c-0.3-2.7-0.6-5.5-0.8-6.2
	c-0.1-0.7-0.3-2.4-0.3-3.7c-0.1-1.3-0.3-3.4-0.4-4.7c-0.4-2.6-0.2-3.2,0.5-2.4c0.3,0.3,0.5,1.2,0.8,2.5c0.9,4.9,2,9,4.3,15.8
	c1.3,3.9,2.9,8.2,3.5,9.6c2.5,6.4,7.2,14.4,11.2,19.3c3.5,4.2,8.1,7.4,13.3,9c5,1.6,9.4,2.4,13.5,2.6c1.5,0.1,3.2,0.2,3.7,0.3
	c0.5,0.1,2.7,0.2,4.9,0.1c3.9-0.1,7.6-0.5,15-1.7c1.8-0.3,3.2-0.4,3.2-0.3c0,0.1-0.9,1.1-2.1,2.3l-2.1,2.2l1.1,0c1.7,0,4.3,0.5,6,1
	c1.9,0.6,4.7,2.2,6.6,3.7c1,0.8,1.8,1.5,1.9,1.5C384.1,488,384.3,487.2,384.6,486.2z M234.8,487.4l1.1-1c0.6-0.5,1.7-1.4,2.5-1.8
	c0.8-0.5,2.2-1.1,3.2-1.5c3-1.1,5-1.3,13.7-1.3l7.8,0l-1.9-1.1c-3-1.8-6.9-4.5-11.1-7.6c-4.7-3.6-6.9-5.4-11.7-10
	c-2.1-2-4.6-4.4-5.6-5.3c-2-1.9-3.8-4.4-4.7-6.6c-0.6-1.5-1.2-3.8-1.2-4.9c0-0.5-0.3-1.1-1.3-2.4c-0.7-0.9-3.2-4.5-5.5-8.1
	c-8.1-12.3-9.3-13.9-12.6-17.4c-3.3-3.4-4.6-4.4-15.9-11.4c-3.2-2-6.4-4.1-7.2-4.7c-1.2-1-1.5-1.1-2-1l-0.6,0.1l1.8,3.7
	c9.9,20.6,26.5,47.7,46.2,75.3L234.8,487.4z M381.9,481.8c-0.3-0.5-0.4-3-0.1-3.7c0.4-1,1-1.5,3.7-2.9l2.1-1.2l0,0.9
	c0,2.1-1.4,4.3-3.7,5.9C382.3,482,382.1,482.1,381.9,481.8z M350.5,475.6c-0.6-0.2-1.8-0.5-2.6-0.8c-1.9-0.7-2.1-0.7-3.7,0
	c-1.7,0.7-3.4,0.7-5,0c-0.7-0.3-1.6-0.6-2-0.7c-1.1-0.2-1.9-0.7-2.3-1.3c-0.3-0.5-0.3-0.6,0-0.9c0.3-0.3,0.4-0.3,1-0.1
	c0.5,0.2,0.7,0.2,0.9,0c0.2-0.2,0.1-0.4-0.4-0.8c-0.8-0.7-1.4-0.6-2.9,0.8c-1.3,1.2-1.7,1.3-3.7,0.6c-2.6-0.9-2.3-1.6,0.9-2.4
	c1.2-0.3,3.1-1,4.4-1.6c1.2-0.6,2.3-1.1,2.3-1c0,0,0.2,0.8,0.4,1.7c0.4,1.8,1.2,3.6,1.7,4.1c0.3,0.3,0.6,0.2,2.4-0.3
	c1.2-0.4,2.2-0.8,2.5-1.1c0.3-0.3,1-0.9,1.7-1.3c0.7-0.4,1.3-0.9,1.3-1.1s0.2-0.3,0.3-0.3c0.1,0,0.7,0.8,1.4,1.9
	c1.2,1.8,2.2,2.7,2.9,2.7c0.6,0,2.3-1,4.4-2.5c2.1-1.6,2.2-1.6,3.5,0c1.1,1.2,2.4,2.1,3.1,2.1c0.4,0,1-0.5,2.5-1.9
	c1.6-1.6,2-1.9,2.6-1.9c0.4,0,0.8,0.2,1.1,0.5c0.2,0.2,0.8,0.7,1.3,1c1.1,0.6,1.3,0.5,3-1c0.6-0.6,1.2-1,1.3-1
	c0.1,0,0.8,0.3,1.6,0.7c1.5,0.7,1.9,1.3,1.2,1.9c-0.3,0.2-0.5,0.2-1.2-0.1c-0.9-0.3-0.9-0.3-1.1,0c-1,1.7-2,2.2-4.2,2
	c-1.8-0.1-2.9,0.1-4.7,1c-1.1,0.5-1.8,0.7-3.1,0.8c-2.3,0.1-3.2-0.2-4.1-1.7c-0.7-1.2-0.7-1.1-1.2-0.8c-0.3,0.2-0.4,0.4-0.3,1.1
	l0.1,0.9l-1.3,0.6c-1.3,0.6-3.4,1-4.4,1C351.9,475.9,351.1,475.8,350.5,475.6z M352.5,470.6c-0.1-0.1-0.6-0.2-1-0.2
	c-1.2-0.2-1.9-1.1-1.9-2.2c0-0.8,0.1-1.1,0.8-1.7c0.4-0.4,1-0.7,1.2-0.7c0.6,0,1.2-0.4,1.5-1c0.3-0.8,1.2-1.1,1.9-0.6
	c0.6,0.4,0.6,1-0.2,1.2c-0.4,0.1-0.3,0.2,0.9,0.5c0.8,0.2,1.8,0.4,2.2,0.4c0.8,0,1.4,0.5,1.4,1.1c0,0.7-1.2,2.1-2.4,2.7
	C355.8,470.5,353.1,470.9,352.5,470.6z M340.1,469.9c-1.2-0.5-1.4-1.8-0.7-3.8c0.5-1.3,1.9-2.7,2.6-2.7c0.2,0,0.8,0.3,1.3,0.8
	c1.2,1.1,2.6,1.7,4.1,1.6c0.7,0,1.4,0,1.7,0.2c0.4,0.2,0.3,0.3-1,1.6c-2,1.9-3.1,2.4-5.5,2.5C341.5,470,340.4,470,340.1,469.9z
	 M360.3,469.4c-0.3-0.3-0.6-0.8-0.6-1.1c0-0.6,0.7-1.6,1.5-2c0.6-0.3,0.8-0.3,2.1,0.1c1.4,0.5,1.5,0.5,2.3,0.1
	c0.4-0.2,1.1-0.8,1.5-1.2c0.6-0.8,0.8-0.8,1.7-0.8c0.7,0,1.1-0.1,1.1-0.3c0.1-0.2,0.5-0.3,1.4-0.3c1.4,0,2.5-0.4,3-0.9
	c0.1-0.2,0.4-0.9,0.5-1.6c0.2-1.2,0.3-1.3,1-1.6c0.4-0.2,0.9-0.6,1.1-0.9c1.8-2.9,3.3-5,4.8-6.4c1.8-1.9,5.3-4.9,5.6-4.9
	c0.3,0,1.4,1.2,1.4,1.5c0,0.4,0.4,0.3,0.5-0.2c0.2-0.7,0.2-2.8,0-3.1c-0.3-0.4-1-0.5-1.6-0.3c-0.3,0.1-1.4,1-2.4,1.9
	c-1.6,1.5-1.9,1.7-2.1,1.4c-0.5-0.6-0.9-2.3-0.9-4c0-0.9-0.1-2.4-0.2-3.3c-0.1-0.9-0.4-3.3-0.5-5.4c-0.2-2.1-0.5-5.3-0.6-7.1
	c-0.5-4.8-0.6-12-0.4-14.6c0.1-1.2,0.3-3.2,0.5-4.5c0.1-1.3,0.4-2.9,0.6-3.6c0.2-0.6,0.6-2.8,0.9-4.6c1.5-8.7,1.9-10.3,2.5-10.3
	s0.7,0.6,0.6,2.9c-0.1,1.3-0.2,2.5-0.3,2.6c-0.1,0.1-0.3,1.4-0.5,2.9c-0.3,2.6-0.9,5.7-1.4,7c-0.2,0.5-0.2,0.7,0,0.8
	c0.1,0.1,0.3,0.1,0.4,0.1c0.2-0.1,2.3-4.6,2.6-5.5c0.1-0.5,0.4-0.9,0.5-1.1c0.4-0.4,0.6,0.3,0.6,2.5c0,2.1-0.2,3.1-2.1,10.1
	c-0.6,2.2-1.2,4.6-1.4,5.4l-0.3,1.4l0.5-0.7c0.3-0.4,1-1.7,1.7-2.9c0.6-1.2,1.2-2.3,1.4-2.3c0.1,0,0.3,0.2,0.4,0.5
	c0.2,0.8-1.2,6.1-1.9,7.6c-0.6,1.1-0.5,2.2,0.1,2.2c0.2,0,0.4-0.2,0.5-0.5c0.1-0.3,0.5-1.1,0.9-1.8c1.2-2,3.3-7.3,3.7-9.5
	c0.2-0.9,0.9-1.8,1.2-1.5c0.1,0.1,0.2,0.7,0.1,1.7c-0.4,4.5-0.6,5.8-0.9,7c-0.4,1.5-0.3,1.9,0.3,1.2c0.4-0.4,1.9-5.5,2.1-7.2
	c0.1-0.7,0.7-1.2,1.3-1c0.4,0.2,0.7-0.7,0.7-2.1c0-0.6,0.1-1.5,0.3-1.9c0.2-0.7,0.3-0.4,0.4,2.5l0.1,3.2l0.5-0.8c1-1.6,2-6.6,2.2-11
	c0.1-1.8,0.2-3.3,0.3-3.4c0.3-0.3,1.1,2.9,1.2,5.3c0.1,2.3,0.2,2.4,0.5,2.1c0.3-0.3,0.4-0.8,0.4-4c0-2.4,0.1-4,0.3-4.9
	c0.2-0.7,0.3-1.7,0.3-2.1c0-1.6,1-0.6,1.3,1.5c0.3,1.4,0.5,2,0.9,2c0.3,0,0.3-3.4,0-4.6c-0.1-0.5-0.4-1.7-0.6-2.8
	c-0.2-1-0.5-2.2-0.7-2.7c-0.6-1.6-0.2-2.5,0.7-1.7c0.3,0.3,0.6,0.5,0.6,0.4c0.1-0.1-0.2-1-0.5-2c-0.5-1.4-0.6-2.1-0.5-2.7
	c0.2-1.1,2-4.3,2.5-4.3c0.6,0,2.5,2.2,2.8,3.2c0.4,1.4,0.3,4.8-0.3,8.5c-0.3,1.9-0.5,4.1-0.5,5c0,0.9-0.1,1.8-0.2,1.9
	c-0.1,0.2-0.5,0.4-0.9,0.4c-1.1,0.2-1.1,1.1,0,3.9c0.6,1.5,1,2.8,1.1,3.9c0.1,1,0.4,2.1,0.8,2.9c0.4,0.9,0.5,1.4,0.4,2
	c-0.1,0.4-1.1,2.5-2.2,4.7c-2.2,4.3-3.1,6.7-3.7,9.5c-0.4,2.1-0.6,2.8-1.6,4.2c-0.4,0.6-0.9,1.6-1.1,2.4c-0.4,1.2-1.1,5.3-1.5,9.9
	c-0.1,1-0.3,2.1-0.4,2.5c-0.1,0.3-1,1.4-1.9,2.4c-1,1-2,2.4-2.6,3.5c-2.6,4.8-8,13.5-8.3,13.6c-0.6,0.2-1.2-0.3-1.2-0.9
	c0-0.3,0.3-1.1,0.6-1.9c0.7-1.5,3.1-8.8,3.4-10c0.1-0.7,0.1-0.7-0.3-0.5c-0.6,0.4-1.1,1.4-1.1,2.2c0,1.1-0.3,2.1-1.2,3.4
	c-0.4,0.7-0.9,2-1.2,3c-0.9,3.6-4.1,9.2-5.7,10c-0.8,0.4-1.5,0.2-2.9-1.1c-0.7-0.6-1.4-1.1-1.5-1.1c-0.2,0-0.9,0.6-1.7,1.3
	c-0.9,0.8-1.6,1.3-1.9,1.3c-0.3,0-1.1-0.4-1.7-0.8l-1.2-0.8l-0.6,0.6c-0.9,0.9-2.7,1.4-4.8,1.6C360.9,469.9,360.8,469.9,360.3,469.4
	z M324.2,469.1c-0.9-0.6-1.9-2.1-1.9-2.9c0-0.3-0.2-1-0.4-1.7c-0.7-1.9-0.6-2.3,0.5-3.1l1-0.7l0.1,1.2c0.3,2.5,0.8,5.1,1.3,6.4
	c0.3,0.7,0.5,1.3,0.4,1.3C325.1,469.6,324.7,469.4,324.2,469.1z M326.7,468.9c-0.7-0.3-1.6-3-1.6-5.2c0-1.5,0.5-2.4,1.7-3.2
	c3.3-2.3,8.2-6.7,8.2-7.4c0-0.2-0.1-0.5-0.3-0.6c-0.2-0.2-0.1-0.4,0.7-1.1c3-2.4,5.5-5.4,5-5.9c-0.2-0.2-0.9,0.5-2.4,2.1
	c-2.1,2.2-2.9,2.7-3.3,2.1c-0.1-0.1-0.3-0.2-0.6-0.2c-0.3,0-0.4,0.2-0.4,0.6c0,1.6-1.5,2.1-2.2,0.7c-0.2-0.4-0.4-1-0.4-1.2
	c0-0.3-0.5-1.5-1.1-2.7c-1.1-2.3-1.6-3.9-1.9-5.9c-0.1-0.6-0.3-1.3-0.4-1.6c-0.2-0.3-0.4-1.3-0.5-2.3c-0.3-3-1.7-8-2.4-8.7
	c-0.1-0.1-0.2-0.5-0.2-0.9c0-1.2,0.5-0.8,2.4,2.1c0.3,0.5,0.6,0.9,0.7,0.8c0.2-0.1-0.8-3.4-1.2-4.1c-0.2-0.3-1-1-1.9-1.5
	c-2-1.1-2.9-2-3.1-3.1c-0.2-1.1-0.6-1.2-3.4-1.4c-1.1-0.1-2.1-0.1-2.1-0.2c0-0.5,0.8-2.1,1.3-2.6c3.6-3.8,6.4-5.7,9-6.2
	c0.7-0.1,1.7-0.4,2.3-0.6c1.7-0.6,4.8-0.5,6.6,0.1c0.8,0.3,1.7,0.7,2.1,1c0.4,0.3,1.4,0.9,2.2,1.5c3.2,2.1,4.5,4.8,7.2,14.6
	c0.8,3,1.6,5.6,1.7,5.8c0.6,0.9-0.3-3.5-1.7-9c-0.1-0.5-0.4-1.8-0.6-2.7c-0.2-1-0.5-2-0.7-2.4c-0.7-1.5-3.5-5.5-4.6-6.5
	c-0.6-0.5-1.1-1-1-1.1c0.4-0.4,4.4-1.2,6.6-1.3c3.8-0.2,6.7,0.6,9.8,2.7c0.7,0.5,1.4,0.9,1.5,0.9c1,0,5.2,5.8,7,9.6
	c1.4,2.9,1.6,4.2,1.4,10.3l-0.1,5.3l0.8,2.2c0.5,1.2,1.2,2.9,1.7,3.8c1.1,2.2,1.6,4,1.7,7l0.1,2.4l-1.1,1.4
	c-1.7,2.2-3.4,3.2-7.2,4.1c-3.6,0.9-9.3,1.1-12.6,0.6c-2.4-0.4-6.5-1.6-6.6-2c-0.2-0.4,0.3-0.9,0.8-0.9c0.2,0,0.7,0.1,1.1,0.3
	c0.4,0.2,0.7,0.3,0.9,0.2c0.3-0.2-0.3-1.3-1.1-2l-0.7-0.6l0.6-2.6c0.8-3.1,0.9-4.7,0.5-5c-0.3-0.2-0.4-0.1-0.6,0.9
	c-0.2,0.6-0.4,2-0.6,3c-0.3,2.5-1.1,5.1-2.4,8c-1.3,2.9-1.9,4-2.6,4.4c-0.3,0.1-0.8,0.6-1.1,1c-1.1,1.3-3.6,2.3-7.8,3.1
	C327.8,469,327.2,469.1,326.7,468.9z M187.6,464.9c0.5-0.2,1.4-0.9,2.1-1.5l1.2-1l-0.9-2.2c-0.5-1.2-1-2.2-1.1-2.3
	c-0.1-0.1-6.4,1.8-6.6,2c-0.1,0.1,0.9,3.4,1.2,4.1c0.4,0.7,1.8,1.4,2.7,1.4C186.4,465.3,187.1,465.1,187.6,464.9z M423.5,465
	c1.1-0.4,2-1.9,2.5-4.6l0.1-0.6l-3.3-1c-1.8-0.6-3.4-1-3.4-0.9c-0.1,0.1-0.6,1.1-1.1,2.3l-0.9,2.1l1.1,0.9c1.3,1.1,3,2,3.8,2
	C422.5,465.3,423.1,465.2,423.5,465z M317.4,461.3c-0.6-0.4-1.1-1.4-1.1-2.1c0-0.3-0.3-0.8-0.6-1.2c-0.3-0.4-1-1.3-1.4-2.1
	s-1.1-1.7-1.5-2.1c-0.6-0.7-0.7-0.8-0.6-2.3c0-1.4,0.1-1.6,0.7-2.1c0.4-0.3,0.6-0.8,0.6-1c0-0.7,0.7-1.1,1.8-1.1
	c0.5,0,1.1,0.1,1.2,0.2c0.4,0.3,0.7,1.1,0.7,1.8c0,0.6,0,0.7,0.8,0.5c1-0.2,1.3,0.5,0.6,1c-0.3,0.2-0.9,0.7-1.3,1.1
	c-0.6,0.5-1,0.7-1.3,0.6c-0.3-0.1-0.5,0-0.8,0.4c-0.4,0.6-0.4,1.3-0.1,1.3c0.3,0,4-2.7,5-3.7c0.9-0.9,2.6-1.1,3.2-0.4
	c0.9,1,0.2,3.4-2.5,8.4C318.9,461.8,318.5,462.1,317.4,461.3z M371.4,455.6L371.4,455.6c-0.4-1,0-5,0.6-5.7c0.5-0.6,3.7-2.1,4.4-2.1
	c0.8,0,1.7,0.8,2.1,1.6c0.4,1,0.4,3.4,0,3.7c-0.2,0.1-0.7,0.2-1.1,0.2l-0.8-0.1l0-1c0-0.6,0-1,0-1c0,0-0.8,0.9-1.6,1.9
	c-1.3,1.7-2.7,3-3.1,3C371.7,456.2,371.5,456,371.4,455.6z M370.6,448.2L370.6,448.2c-0.4-0.6-0.4-1.6,0-2c0.5-0.5,1.7-0.4,2.2,0.2
	c0.5,0.7,0.6,1.1,0.1,1.8c-0.2,0.4-0.6,0.5-1.2,0.5C371.2,448.7,370.9,448.6,370.6,448.2z M310,448.3c-0.1-0.2-0.3-0.7-0.4-1.1
	c-0.1-0.4-0.5-1.1-1.1-1.6c-1.2-1.1-1.2-1.8-0.3-3.1c0.3-0.5,0.7-1.3,0.9-1.8c0.4-1.5,1.1-1.4,2.5,0.3c0.9,1.1,0.8,1.5-0.4,1.7
	c-0.5,0.1-0.6,0.3-0.6,0.5c0.1,0.6,0.9,0.5,2.1-0.1c1.7-0.9,2.7-0.7,3.1,0.7c0.2,0.7,0,1.1-0.8,1.5c-0.4,0.2-1.4,1-2.2,1.8
	C311.3,448.8,310.4,449.1,310,448.3z M291.3,447.1c-0.1-0.5-0.2-1.9-0.2-3.2c-0.1-1.2-0.2-3.9-0.3-5.9c-0.1-2-0.3-4.6-0.3-5.7
	c-0.2-3.7-0.3-13.5-0.1-15.8c0.5-5.9,2.5-12.6,10.8-34.9c3-8.1,6.1-16.5,6-16.7c0-0.2-1.8,2.9-3.7,6.5
	c-8.3,15.9-14.7,32.4-16.1,41.6c-0.5,3.4-0.3,11.2,0.4,16.9c0.5,3.5,1,7.2,1.4,9.2c0.6,2.9,2,9.1,2.1,9.1
	C291.4,448,291.4,447.6,291.3,447.1z M266.1,444.6c-0.2-0.2-0.5-0.6-0.6-1c-0.3-0.8-0.8-0.9-1.4-0.4c-1.1,1-1.6,0.4-1.6-2
	c0-1.6-0.2-2.1-0.8-2.1c-0.4,0-0.9,1.1-0.9,2.1c0,1.8-0.6,1.7-1.6-0.2c-0.5-1-0.8-1.3-1.3-1.5c-0.5-0.1-0.7-0.3-0.9-0.9
	c-0.3-1.2-1.1-2.1-3.1-3.2c-3-1.8-6-4.4-7.4-6.5c-0.3-0.5-1.1-1.2-1.7-1.6c-0.6-0.4-1.4-1.1-1.7-1.6c-1.2-1.8-1.7-2.2-2.9-2.8
	c-0.7-0.3-1.7-0.9-2.3-1.3c-0.6-0.4-1.4-1-1.7-1.2c-0.8-0.4-1.7-1.4-2-2.2c-0.3-0.8-0.3-4.8,0-5.3c0.3-0.4,0.1-1.1-0.2-1.1
	c-0.1,0-0.3,0.2-0.4,0.6c-0.4,0.9-1,0.7-1.9-0.8c-1.1-1.8-1.2-2.4-0.9-3.6c0.4-1.2,0.4-2.4,0.1-2.9c-0.2-0.3-0.3-0.2-0.9,0.2
	c-0.4,0.3-0.8,0.4-1,0.4c-0.4-0.1-0.6-2.3-0.4-4c0.3-2.7,0.3-2.9-0.4-3c-0.8-0.1-1.2-0.8-1.4-2.4c-0.1-0.8-0.3-2.2-0.4-3.1
	c-0.2-1-0.3-2.4-0.3-3.1c0-1.6-0.2-2.2-1.6-3.9c-1.4-1.6-1.6-2.5-1.1-4.4l0.4-1.5l-0.5-0.8c-0.5-0.7-0.5-1.1-0.7-3.7
	c-0.1-3.4-0.5-4.9-2.6-11.9c-0.8-2.6-1.6-5.3-1.7-6.1c-0.4-1.9-0.4-5.5,0-7.2c0.2-0.7,0.3-1.6,0.3-1.9c0-0.4,0.3-0.9,0.9-1.5
	c0.5-0.5,1.3-1.7,1.8-2.5c1-1.8,1.4-2.4,1.6-2.4c0.1,0,0.3,0.3,0.5,0.8c0.4,1,0.9,1,1.1,0c0.1-0.4,0.6-1.6,1.1-2.5
	c1.2-2.2,2.1-4.9,2.7-7.6c0.5-2.4,1-3.2,2.1-3c0.3,0.1,0.6,0.2,0.7,0.3c0.1,0.1-0.1,0.8-0.4,1.6c-0.9,2.3-1.9,6.8-1.6,7.1
	c0.3,0.3,0.5-0.2,1.4-3.1c0.3-1.1,0.8-2.3,1-2.7l0.4-0.7l0.2,0.6c0.1,0.4,0.3,1.3,0.3,2.1c0,1.3-0.2,2.2-1.9,7.4
	c-1.8,5.6-3.2,9.7-4.2,12c-1,2.4-1.3,3.7-1.4,6.2l-0.1,2.5l1-1.5c3.7-5.8,4.9-7.3,7.4-9l1.5-1.1l0.1,1.3c0,0.8-0.1,1.9-0.4,3
	c-2.3,8.6-2.8,11.4-3,16.4c-0.1,3.1,0,4,0.3,5.7c0.2,1.1,0.4,1.9,0.5,1.6c0-0.2,0.4-3,0.8-6c0.8-5.3,1-6.3,1.8-7.7
	c0.2-0.3,0.4-0.9,0.5-1.3c0.1-0.9,0.7-1.3,1.1-0.7c0.3,0.4,0.2,2.6-0.4,7.2c-0.5,4.3-0.6,9.9-0.2,13.4c0.2,1.3,0.4,2.4,0.4,2.4
	c0.4,0,0.7-1.4,0.8-3.3c0.1-1.5,0.2-2.6,0.6-3.6c2.4-6.8,2.7-7.5,3.3-8c0.3-0.3,0.6-0.5,0.7-0.4s-0.1,0.5-0.3,1
	c-0.2,0.6-0.4,2.3-0.5,4.1c-0.1,1.7-0.3,3.4-0.4,3.7c-0.3,0.8-0.3,14.9-0.1,16.9c0.2,1.5,0.4,2.3,1.3,6.4c0.2,1.1,0.6,2.7,0.8,3.6
	c0.4,2,2.2,5.5,3.5,7.1c0.6,0.7,1.2,1.3,1.3,1.4c0.6,0.2,0.6-3.1-0.1-7c-0.6-3.1-0.6-5.8-0.1-8.2c0.2-0.9,0.3-2,0.3-2.4
	c0-0.4,0.2-0.8,0.4-1c0.5-0.4,0.6-0.3,1.3,1.1c1,2,1.2,2.9,1.2,6.4c0.1,3.7,0,3.4,2.4,11c0.8,2.5,0.9,3.7,0.6,6.1
	c-0.2,2.1,1,5.2,2.8,7c1.2,1.3,3.1,2.5,3.4,2.2c0.1-0.1,0.3-1,0.5-1.9c0.6-2.7,2-7,2.4-7.2c0.2-0.1,0.7,0.1,1.1,0.4
	c0.5,0.3,1,0.6,1.1,0.6c0.5,0,1.1,0.7,1.1,1.3c0,0.9,0.4,2.2,0.8,2.2c0.2,0,0.7-0.2,1.2-0.4c0.5-0.2,0.9-0.4,1-0.4
	c0.1,0,0.1,0.5,0.1,1.2c0,1.7,0.7,2.2,3.2,2.2c2,0,2.2,0.3,4.5,4.8c1.1,2.1,2.2,4.2,2.4,4.6l0.5,0.7l-0.5,0.1
	c-0.3,0.1-1,0.2-1.6,0.2c-2.7,0.3-6.1,2-8.7,4.4c-0.8,0.7-1.6,1.4-1.7,1.4C266.5,445,266.2,444.8,266.1,444.6z M369.2,444.4
	L369.2,444.4c-1.2-1.2-0.6-2.3,1.4-2.5c1.7-0.1,2.3,0.2,2.2,1.2c0,0.5-0.3,0.8-0.9,1.3C370.8,445.2,370,445.2,369.2,444.4z
	 M388.5,441c0.5-3,0.2-10.1-0.4-11.3c-0.6-1.2-1,9-0.5,12C387.9,443.4,388.1,443.2,388.5,441z M367.5,440.8
	c-0.7-0.8-0.8-1.1-0.5-1.6c0.3-0.4,1.2,0,1.7,0.8c0.5,0.8,0.6,1.2,0.1,1.4C368.3,441.6,368.2,441.6,367.5,440.8z M302.7,422.8
	c-0.4-1.5-0.7-3.4-0.7-4.5c0-0.6-0.2-2.5-0.4-4.1c-0.2-1.7-0.5-4.6-0.6-6.6l-0.1-3.6l0.6-0.8c0.4-0.5,0.6-1.1,0.6-1.7
	c0-0.8,0.8-2.8,1.1-2.8c0.1,0,0.3,0.2,0.5,0.4c0.4,0.4,0.4,0.5,0,2.1c-0.2,1-0.4,3-0.5,4.9c-0.1,3.3,0.3,10.9,0.6,11.8
	c0.3,0.7,0.5,4.4,0.3,5.1c-0.1,0.4-0.3,0.6-0.7,0.6C303,423.6,302.9,423.5,302.7,422.8z M376.5,419.6c-0.4-1.2-0.8-4.9-0.8-7.6
	c0-3.5,0.5-6.3,1.5-9.1c0.3-0.9,0.8-2.1,1-2.7c0.4-1.2,1.1-1.7,1.6-1.2c0.3,0.3,0.3,0.6-0.4,2.7c-1.2,4-1.5,6.1-1.8,9.8
	c-0.1,2-0.4,4.5-0.5,5.5c-0.2,1.1-0.4,2.2-0.4,2.5C376.7,420,376.7,420,376.5,419.6z M118.9,413.9L118.9,413.9
	c-6-0.3-13.2-1.2-17.1-1.9c-3-0.6-7.9-2.2-11.2-3.7c-2.9-1.3-8.9-4.7-9-5c-0.1-0.4,4.2-2.5,7.3-3.6c7.2-2.6,14.5-4.3,22.7-5.3
	c3.9-0.5,18.8-0.6,23.9-0.3c8.1,0.5,14.4,1.8,21.3,4.1c5.9,2,8.8,3.8,12.7,7.7l1.9,1.9l-2.6,1.1c-2.9,1.2-6,2.2-8.4,2.7
	c-3.6,0.7-13.9,1.8-21.5,2.3C134.6,414.1,123.3,414.1,118.9,413.9z M468.6,413.9c-8.5-0.5-18.6-1.7-22.5-2.7
	c-3.7-0.9-9.2-3.1-9.2-3.6c0-0.4,4.8-4.7,6.7-5.9c5-3.3,14.6-6.2,25-7.4c2.7-0.3,5-0.4,13.7-0.4c10.7,0,12.4,0.1,18.5,1
	c8.7,1.3,19.2,4.4,24.6,7.3c0.7,0.4,1.3,0.8,1.3,0.8c0.3,0.4-8.3,5-12.3,6.5c-6.1,2.4-13.4,3.6-25.6,4.3
	C484.6,414.1,473.4,414.1,468.6,413.9z M366.6,404.1L366.6,404.1c-0.8-0.8-1.8-1.1-3.9-1.1c-1.5,0-1.7,0-2-0.5
	c-0.5-0.8-0.7-2.1-0.6-4.1c0.1-1.5,0.1-1.7,0.6-2c0.8-0.5,1.4-0.1,1.4,0.9c0,0.4,0.1,0.8,0.2,0.8s0.2-0.6,0.2-1.4
	c0-2,0.1-2.4,0.8-2.2c0.9,0.2,1.1,0.6,1.3,1.7c0.1,0.5,0.2,1.1,0.4,1.1c0.1,0.1,1.5,0.2,3.1,0.2h2.8l0.7,0.6
	c0.5,0.5,0.7,0.8,0.7,1.5c0,1-0.8,2.3-1.6,2.6c-0.4,0.1-0.6,0.1-2.4-1.5c-1-0.9-1.5-0.9-2.4-0.3c-0.7,0.5-0.1,1,1.2,1
	c0.9,0,1.2,0.1,1.7,0.6c0.8,0.8,0.8,1.1,0.1,2C368.2,405,367.4,405,366.6,404.1z M426.2,401.5l0.6-1.2c0.4-0.7,1.4-2.8,2.2-4.8
	c11-24.4,16-43.4,18-68c0.4-4.5,0.4-21.9,0-26.7c-0.6-7.8-1.1-12.3-2.3-19.2c-0.7-4.2-0.9-5.2-1-4.2c0,0.2-0.2,0.9-0.4,1.6
	c-0.3,1-0.4,1.4-0.2,2.9c0.4,3.6-0.4,7.8-2.1,10.1c-0.5,0.6-0.8,1.4-0.9,2.1c-0.1,0.6-0.4,1.7-0.7,2.5c-0.6,1.6-0.6,1.1-0.4,9.1
	c0.1,4.1,0.1,8.2-0.1,11.2c-0.1,2.7-0.3,5.9-0.4,7.1c-0.2,4.9-0.6,7.6-1.4,11.7c-1.2,6-1.8,7.5-3.9,9.4l-0.9,0.8l0.7,3.6
	c1.4,7,1.7,10.3,1.2,12.6c-0.2,0.8-0.4,2.2-0.5,3.1c-0.4,3.1-1.4,5-3.6,7.1l-1.3,1.2l0,2.4c0,2,0,2.6,0.5,3.7
	c1.1,2.8,1.1,5.6,0.1,10.6c-0.2,1.1-0.4,2.1-0.4,2.1s-0.7,0.4-1.5,0.9c-1.3,0.7-1.5,0.9-1.5,1.4c0,0.8-0.6,2.8-1.1,3.7l-0.4,0.8
	l0.8,1.2L426.2,401.5z M372.1,397.6c-0.4-0.6-2-1-3.8-1.1c-2.1,0-2.6-0.2-3.2-1.4c-0.2-0.5-0.4-1.2-0.3-2.4c0-2.4,0.1-2.5,1.4-2.5
	h1.1v-0.7c0-0.9,0.8-1.6,1.8-1.6c0.6,0,0.6,0,0.6-1.1c0-1.4,0.5-2.4,1.2-2.4c0.4,0,0.6,0.2,0.8,0.7c0.2,0.6,0.3,0.6,0.3,0.3
	c0-0.2,0-0.5,0-0.6c-0.1-0.6,0.3-1.7,0.9-2.4c1.2-1.3,2.8-0.9,3.3,0.8c0.1,0.3,0.5,1,1,1.7c0.7,1.1,1.1,1.3,2.6,2
	c0.9,0.4,1.8,0.9,1.9,1.1c0.1,0.3-1.1,1.8-1.5,1.8c-0.1,0-0.7-0.5-1.4-1.1c-0.9-0.7-1.5-1.1-1.9-1.1c-0.7,0-2.2,0.7-1.7,0.8
	c0.2,0,0.8,0.1,1.4,0.2c1.3,0.2,2.3,1,2.3,2c0,1-1.3,1.5-2.2,0.8c-0.5-0.4-1.1-0.4-1.3-0.1c-0.1,0.1,0.2,0.6,0.8,1
	c1.1,1,1.2,1.7,0.2,2.5c-0.8,0.7-1.1,0.7-1.7,0c-1.2-1.3-3.1-1.7-5-1c-1,0.3-1,0.3-1.5-0.1c-0.6-0.6-1.3-0.4-1,0.2
	c0.2,0.4,0.5,0.4,3.1,0.5c2.7,0.1,2.9,0.1,3.6,0.6c0.8,0.6,1,1.1,0.8,1.7C374.3,397.6,372.5,398.2,372.1,397.6z M333.2,395
	c-1.2-1.2-2.3-3-2.9-4.5c-0.2-0.6-0.6-1.2-0.8-1.3c-0.7-0.4-1-1.4-0.9-3.4c0-1.9,0-2.1-1.1-5c-0.6-1.7-1.4-4.1-1.7-5.4
	c-0.5-2-0.5-2.4-0.3-3.1c0.3-0.8,0.1-1.6-0.8-3.4c-0.7-1.5-0.7-2.2,0.4-3.4c1.2-1.5,2.1-1.8,4.4-1.7c2,0.1,3.2,0.6,4.8,1.9l0.9,0.7
	l0.1-1.2c0.1-1.2,0.1-1.2,0.8-1.2c0.5,0,0.9-0.2,1.4-0.7c1.1-1.1,1.2-1.4,1.4-2.3c0.2-1.1,1-1.6,3.4-2.2c3.1-0.7,4-0.6,6,1
	c0.5,0.4,0.9,0.7,1,0.7c0.1,0,0.8-0.5,1.4-1.1c1-0.9,1.3-1.1,1.9-1c0.4,0,0.7,0.1,0.7,0.2c0,0.3-3.3,4.7-3.5,4.7
	c-0.1,0-0.9-0.5-1.6-1.1c-1.7-1.4-2.7-1.9-3.9-2.1c-0.9-0.1-1-0.1-2.4,1.2c-1.2,1.1-1.6,1.7-2.5,3.5c-0.6,1.2-1.2,2.6-1.3,3.2
	c-0.2,0.8-0.3,1-0.7,1c-0.3,0-0.6-0.2-0.7-0.5c-0.2-0.4-0.2-0.4-0.1,0.4c0.1,0.5,0.2,1.7,0.4,2.6c0.4,2,0.4,3.9,0.1,6.1
	c-0.1,0.8-0.3,3.8-0.4,6.6c-0.1,2.8-0.3,5.7-0.5,6.5c-0.1,0.8-0.3,2.1-0.4,3c-0.1,1.1-0.3,1.7-0.6,1.9
	C334.4,396.1,334.1,396,333.2,395z M389.7,395.8c0-0.1-0.5-1.1-0.9-2.2c-1-2.5-1.1-4.1-0.3-6.1c0.6-1.7,0.6-2.3-0.2-4.5
	c-1.1-3.3-1.8-7-2.4-12.7c-0.3-2.5-0.2-3.6,0.3-4.6c0.4-0.7,1.7-1.9,2.1-1.9c0.4,0,2.1,1.9,3.1,3.4c1.2,1.9,1.6,3.3,1.5,5.5
	c-0.1,1-0.2,5.2-0.3,9.4c-0.1,5.5-0.3,7.9-0.5,8.9C391.5,393,390,396.2,389.7,395.8z M310.2,388.9L310.2,388.9
	c-1.5-1.3-1.9-3.7-0.9-5.8c0.8-1.6,2.7-4.4,3.7-5.5c1-1.1,1.6-1.2,3.7-0.5c1.8,0.6,3.3,2,4,3.6c0.4,1,0.5,1.7,0.5,3.7
	c0,2.8-0.3,3.7-1.3,4.1c-0.8,0.3-4.8,0.3-5.7,0c-0.6-0.2-0.8-0.2-1.3,0.3C312.1,389.6,311.1,389.6,310.2,388.9z M119,387.5
	c-1-0.1-3.7-0.5-6.2-0.9c-12.7-2.1-23.2-5.3-33.2-10.1c-5.5-2.6-9-5.4-11.3-8.8l-1.1-1.6l0.5-0.3c0.8-0.4,5.7-2,8.3-2.7
	c3.1-0.8,7.1-1.6,10.6-2.1c4-0.5,14-0.5,17.9,0c14.8,2,27.6,7.8,39.6,17.8c2,1.7,7,6.5,7,6.7c0,0.1-0.9,0.6-2.1,1.1l-2.1,0.9
	l-13.1,0.1C126.6,387.6,120,387.6,119,387.5z M460.5,387.2c-2-0.8-3.5-1.5-3.5-1.6c0-0.1,1.2-1.3,2.8-2.8
	c15.8-15.1,34.7-22.8,54.8-22.2c6.6,0.2,12,1,18.4,2.8c3.3,0.9,7.4,2.3,7.8,2.6c0.3,0.3-1.8,3.2-3.4,4.9c-2.6,2.6-6.3,4.8-13,7.6
	c-9.2,3.9-19.1,6.6-32.1,8.7c-2.9,0.5-3.6,0.5-16.7,0.5C461.9,387.6,461.7,387.6,460.5,387.2z M379.1,386.1c-0.3-0.2-0.6-1.4-1.3-5
	c-0.5-2.6-0.9-5-0.9-5.2c0-0.7,1.6-2.4,2.3-2.4c0.7,0,0.7,0.3,0.5,2c-0.2,1.3-0.2,1.5,0.3,2.4c0.8,1.7,1.2,0.9,0.8-1.7
	c-0.2-1.3,0.2-1.9,1.3-1.9c0.8,0,0.9,0.1,1.7,2.4c0.5,1.4,0.6,1.9,0.6,4.3c0,2.6,0,2.8-0.6,3.6c-0.8,1.2-1.1,1.3-1.7,0.6
	c-0.2-0.3-0.6-0.6-0.9-0.6c-0.4,0-0.4,0.1-0.3,0.9l0.2,0.9h-0.7C379.8,386.4,379.3,386.3,379.1,386.1z M122.3,380.1
	c1.1-0.5,1.9-1.7,2.1-3.1c0.1-0.8,0.1-0.9-0.8-1.8c-1.2-1.1-2.1-1.6-2.9-1.6c-1.6,0-3.3,1.8-3.3,3.6c0,1.2,0.6,2.6,1.3,3
	C119.5,380.7,121.2,380.7,122.3,380.1z M489.9,380c0.2-0.2,0.6-0.9,0.8-1.5c0.4-1.5,0.1-2.6-1-3.8c-1.5-1.5-2.7-1.4-4.7,0.2l-1.2,1
	l0.1,1.1c0.1,1.3,0.9,2.5,2.1,3.1C487,380.7,489.2,380.6,489.9,380z M317.2,376.1c-1.4-0.8-1.9-1.3-1.7-1.4c0.2-0.1,0.9-0.4,1.7-0.6
	c1.4-0.5,1.5-0.5,2.1-0.1c0.6,0.3,0.8,0.3,1.4,0c1-0.5,1.3-0.1,1.2,1.4c-0.1,1.6-0.5,1.9-1.5,1.1c-1-0.8-1.2-0.7-1.1,0.2
	c0.1,0.4,0.1,0.8,0,0.8C319.2,377.4,318.3,376.8,317.2,376.1z M510.9,375l0.9-0.1c0.5-0.1,1.4-0.3,1.9-0.6c0.6-0.3,1.2-0.8,1.5-1.1
	c0.5-0.7,0.8-2.3,0.5-3.5c-0.2-1.1-1.4-2.4-2.5-2.7c-1.4-0.4-2.4,0-4.1,1.6l-1.5,1.4l1.7,2.5L510.9,375z M98.9,372.5
	c1.9-2.8,1.9-2.5-0.2-4.2c-1.9-1.6-3.5-1.8-5-0.6c-1.2,1-1.8,3.2-1.1,4.8c0.6,1.4,2.3,2.5,4,2.5C97.2,375,97.4,374.8,98.9,372.5z
	 M342,374.2c-0.1-0.2-0.5-1.6-0.8-3c-0.3-1.4-0.7-3.1-0.9-3.7c-0.2-0.6-0.3-1.4-0.3-1.7c0-1.2,1.8-2.5,4.2-3.1
	c1.4-0.3,1.5-0.3,2.4,0.1c2,0.9,2.9,2.8,3.1,6.2c0.1,2.2,0.2,2.1-1.8,3.5c-1,0.7-1.4,0.8-2,0.2c-0.6-0.6-0.9-0.5-1.8,0.6
	C343.3,374.6,342.4,374.9,342,374.2z M458.6,373.3c0.1-0.2,0.4-1.8,0.8-3.6c0.8-4,1.2-5.5,2.8-9.6c2.1-5.3,4.8-10.4,7.9-14.7
	c6.9-9.6,17.8-18.4,28.5-22.9c4.9-2,15.1-5,19.3-5.5c2.8-0.4,7,0,7,0.7c0,0.7-3.4,8.5-5.2,12c-5.1,9.9-7.1,12.5-14.3,18.5
	c-8.5,7-19.9,13.3-33.2,18.2c-6.1,2.2-10.6,4.6-12.7,6.6C458.6,373.8,458.4,373.9,458.6,373.3z M148.9,373.1c-0.9-1-4.7-3.4-7.1-4.4
	c-1.3-0.6-4.1-1.7-6.2-2.5c-16.8-6.3-29.4-13.9-38.7-23.5c-2.8-2.9-4-4.6-7-10.2c-3.4-6.3-7.1-14.8-6.5-15.1
	c0.6-0.4,3.8-0.7,5.6-0.6c4.1,0.3,14.5,3.2,20.1,5.5c5,2.1,10.3,5.2,15.6,9.3c3.2,2.4,9.8,9,12,11.9c4.5,5.9,7.9,12.5,10.6,20.3
	c0.5,1.4,2.3,9.6,2.2,9.8C149.5,373.6,149.2,373.4,148.9,373.1z M382.7,371.2c-0.2-0.2-1.4-1.1-2.6-1.9c-2.9-1.9-3.7-3.2-3.7-5.4
	c0-1.4,0.6-2.4,1.8-3c0.7-0.3,1.2-0.4,1.7-0.3c1,0.2,2.2,1.1,2.9,2.1c0.6,0.9,0.6,0.9,0.7,5c0,2.2,0,4-0.1,4
	C383.3,371.7,383,371.5,382.7,371.2z M170.1,367.1c0.6-1.2,1.8-3.5,2.7-5.1c2.4-4.4,2.5-4.8,2.5-8.5c0-1.8,0.1-4,0.3-5l0.3-1.8
	l-1-0.7c-1.8-1.1-4.1-3.9-5.3-6.2c-1.7-3.3-4.4-12.3-5.5-18.5c-1.1-6-1.1-6.4-1.3-17.4c-0.2-10.6-0.4-14.3-0.7-13.2
	c-0.2,0.6-0.7,6.1-1.1,11.1c-0.4,5.6-0.3,20.6,0.1,26.2c0.9,10.9,2.4,20.4,4.7,30.2c0.9,3.8,3,11.3,3.2,11.2
	C169,369.2,169.5,368.2,170.1,367.1z M351.5,368.2c-0.5-1.1-0.5-2.9-0.1-4.5c0.7-2.4,3.3-4.2,6.1-4.5c2.5-0.2,3.5,0.3,5.3,2.5
	c0.4,0.5,0.6,0.7,0.7,0.5c0.1-0.2,0.3-0.4,0.5-0.6c0.5-0.5,0.3-1.3-0.2-1.3c-0.2,0-0.8-0.3-1.2-0.8c-0.5-0.4-1.4-1.2-2.2-1.7
	c-1.4-0.9-1.4-1-1.2-1.6c0.1-0.3,0.6-0.3,3.2-0.3c2.7,0,3.2-0.1,4.1-0.5c0.7-0.3,1.5-0.5,2.6-0.5c1.5,0,1.7,0,3.5,1
	c1.1,0.6,2.1,1,2.3,1c0.2,0,0.6,0.2,1,0.6c0.7,0.6,0.7,0.6,1.5,0.2c0.9-0.4,2.9-0.7,4-0.5c0.9,0.2,2.8,1.8,3.4,3
	c0.5,1,1.1,1.4,2.1,1.2c0.7-0.1,0.9-0.1,1.1,0.3c0.2,0.3,0.1,0.5-0.3,0.9c-0.3,0.3-0.9,1-1.3,1.6c-1.1,1.6-1.4,1.9-1.5,1.8
	c-0.1-0.1-0.5-1.1-0.9-2.3c-1.2-3.6-2.4-5.2-3.9-5.2c-0.8,0-1.2,0.2-3,1.6c-0.6,0.4-1.2,0.8-1.4,0.8c-0.2,0-0.9-0.7-1.7-1.4
	c-1.9-1.9-3.1-2.7-4.2-2.7s-3.5,1-3.6,1.5c-0.1,0.6,0.5,0.7,2.1,0.5c2.6-0.3,4.9,0.6,6,2.4c0.3,0.5,0.8,1.6,1,2.4
	c0.5,1.7,0.4,1.8-1.1,1.9c-5.5,0.1-5.4,0.1-6.8,0.8c-1.5,0.8-1.8,0.7-2.5-0.7c-0.7-1.4-1.1-1.2-1.1,0.5c0,0.5-0.1,0.9-0.4,1.2
	c-0.4,0.3-0.4,0.3-0.9-0.1c-0.7-0.5-2.7-0.6-4.9-0.1c-1.8,0.4-2.4,0.6-3.6,1.5C352.6,369.4,352,369.3,351.5,368.2z M314.5,367.3
	l1.4-1c0.8-0.6,2.9-2,4.7-3.3c8.6-5.8,17.4-9.4,28.2-11.9l3.2-0.7l-1.3-0.2c-2.1-0.3-8-0.2-10.3,0.2c-9.5,1.7-18.1,6.5-23.4,13.2
	c-1,1.2-2,2.6-2.2,2.9L314.5,367.3z M395.8,361.4L395.8,361.4c-0.9-2.4-2.1-4.2-4.3-6.3c-1.2-1.2-2.8-2.6-3.5-3
	c-3.3-1.9-7.2-3.1-10.4-3l-1.7,0l2.5,0.7c7.2,2.1,12.3,5.4,16.3,10.6c0.7,0.9,1.3,1.6,1.3,1.6S395.9,361.7,395.8,361.4z
	 M398.7,361.9l0.1-1.1c0-0.6,0-1.7-0.2-2.5c-0.9-5.1-6-10.1-12.4-12.1c-2.1-0.7-2.4-0.6-0.8,0.3c4.9,2.8,9.2,6.5,11.1,9.7
	c1,1.6,1.2,2.4,1.9,4.7L398.7,361.9z M291.3,354.8c0.8-0.3,1.5-1.6,1.3-2.3c-0.2-0.5-0.7-0.5-1,0c-0.3,0.5-0.9,0.6-1.1,0.2
	c-0.1-0.1,0.3-0.8,0.8-1.6c1.2-1.8,2.2-4.5,2.2-5.9c0-0.8-0.1-1.4-0.6-2.2c-0.4-0.7-0.5-1.2-0.4-1.5c0.1-0.2,1.2-1.5,2.5-2.8
	c2.3-2.3,2.3-2.4,2.2-3.2c-0.1-0.4,0-1.2,0.2-1.8c0.5-1.8,0-1.6-3.1,1.6c-5.3,5.4-12.2,15.5-11.4,16.7c0.1,0.2,0.3,0.2,0.9-0.2
	c0.6-0.4,0.9-0.5,2.3-0.5c2,0,2.4,0.3,2.6,2.1c0.1,1.1,0.2,1.3,0.7,1.5C290,355.1,290.5,355.1,291.3,354.8z M322.9,350.2
	c0.4-0.3,0.5-0.5,0.5-1.9v-1.6l-2-1.2c-2.7-1.6-4.2-2.8-5.8-4.7c-2.8-3.2-4.2-5.9-4.5-8.8l-0.1-1.3l-0.6,0.3
	c-0.5,0.2-0.6,0.5-0.8,1.5c-0.6,3.2-0.5,4.7,0.6,7c0.5,1.1,1.3,2,3.7,4.3c1.6,1.6,3,3.1,3,3.2s-0.4,0.2-1,0.2
	c-1.5,0-2.4,1.1-1.5,1.9c0.5,0.4,1.8,1,3.2,1.4C319,350.8,322.2,350.7,322.9,350.2z M203.8,347.6c-1.8-0.4-4.4-1.5-6.1-2.6
	c-0.7-0.5-1.8-1.2-2.5-1.6c-1.3-0.8-1.8-1.5-2.5-3.7c-0.4-1.3-2-3-3.2-3.6c-0.5-0.2-1.4-0.5-2.1-0.7c-4.2-0.9-5.9-4.2-8.5-17
	c-0.7-3.3-0.8-4.1-0.9-8.6c-0.1-2.7-0.2-6.2-0.3-7.8c-0.1-1.5-0.2-5.6-0.2-9.1c0-5.5-0.1-6.6-0.5-9.2c-0.7-3.8-0.7-11-0.1-15.1
	c0.2-1.5,0.5-3.9,0.7-5.3c0.9-7.5,3-12.6,7.4-17.8c3.4-4.1,9.6-9.1,13.5-10.9c5.1-2.3,11.3-1.8,16.3,1.5c2.3,1.5,6.2,5.6,7.7,8
	c0.6,1.1,1.7,2.5,2.3,3.1c1.2,1.3,1.6,1.9,1.6,2.6c0,0.3-0.5,1.8-1,3.4c-0.9,2.6-1,3-0.7,3.6c0.6,1.5,0.6,1.8,0.2,2.7
	c-0.5,1-4.5,5.3-6.4,6.7c-1.2,1-1.3,1-0.7,1.1c0.3,0,0.8-0.1,1.1-0.3c0.6-0.4,1.4-0.5,1.1-0.1c-0.1,0.1-0.4,1-0.7,1.9
	c-0.3,0.9-0.7,1.8-0.9,2.1c-0.2,0.2-0.4,0.5-0.3,0.6c0.1,0.1,0.9-0.5,1.8-1.4c1.2-1,1.7-1.4,1.7-1.2c0,0.2-0.5,1.5-1.1,2.9
	c-1.9,4.3-1.8,4.1-1.6,4.5c0.5,0.7,0.9,0.8,1.6,0.3c1.1-0.8,1.2-0.3,0.4,1.5c-0.4,0.9-1.1,2.7-1.7,4.2c-0.6,1.4-1.4,3.3-2,4.2
	c-0.5,0.9-1.5,2.7-2.1,3.9c-1.3,2.6-1.4,2.7-3.7,2.9c-2.6,0.2-4.5,1.6-6.8,5c-1.1,1.6-1.1,2.3-0.2,5.8c0.7,2.8,1.2,4,2.3,6.2
	c0.8,1.6,1.6,2.3,2.6,2.1c0.6-0.1,0.6-0.8-0.2-2.6c-0.6-1.3-0.6-1.6-0.6-3.9c0-2.2,0.1-2.6,0.4-3.1c0.2-0.3,0.5-0.6,0.7-0.7
	c0.3-0.1,4.2,7.9,4.3,9c0.3,2-0.9,4.4-3.5,7.2c-2.3,2.5-8.1,7.2-8.4,6.9c0-0.1-0.4-0.7-0.9-1.3c-0.8-1.1-3-3.4-3.4-3.4
	c-0.1,0-0.4,0.2-0.6,0.4c-0.6,0.6-0.6,2.2,0,3.5c0.5,1.2,0.7,2.5,0.7,6.5c0,3.5,0.1,3.6,1.5,3.1c2.3-0.9,4.9-2.9,9.2-7.2l4.2-4.1
	l0.5,0.7c1.5,2,1.7,3.6,0.6,6.1c-0.8,1.8-0.8,2.4-0.3,3.8c0.2,0.6,0.3,1.8,0.4,3.6c0,2.6,0,2.6-0.7,3.7c-0.4,0.6-0.8,1.4-0.9,1.8
	c-0.3,0.9-0.2,2.7,0.1,2.7c0.1,0,0.8-0.9,1.4-1.9c1-1.6,2.6-3.1,2.6-2.7c0,0.4-1.6,3.2-2.5,4.4c-1.2,1.7-2.4,2.6-3.8,2.9
	C208.7,348,205.6,348,203.8,347.6z M365.4,345.9c0.8-0.7,0.7-1.1-0.2-3.3c-0.5-1.3-0.8-2.4-0.9-3.7c-0.1-1.6-0.2-1.8-0.7-2.1
	c-0.7-0.4-1.5-0.1-1.8,0.7c-0.6,1.5,0.5,6.4,1.8,8.4C364.2,346.6,364.7,346.6,365.4,345.9z M374.3,344.7c0.8-0.3,1.2-0.8,2.6-3
	c0.9-1.5,2.3-3.5,3.1-4.7c1.8-2.8,2.2-3.6,2.4-5c0.1-0.7,0.4-1.9,0.7-2.7c1.7-3.9,1.9-8.4,0.6-13.1c-0.6-2.3-1.4-3.6-3-5.2
	c-1.6-1.6-3.4-2.7-6.2-3.7c-1.7-0.6-2.2-0.7-4-0.7c-3.3,0-6.1,1.2-6.9,2.9c-0.2,0.5-0.7,1.5-1,2.2l-0.6,1.3l1-0.3
	c0.5-0.2,1.3-0.3,1.6-0.3c0.4,0,1.6-0.2,2.6-0.5c2.5-0.6,4.9-0.5,6.4,0.2c0.5,0.3,1.4,0.5,1.8,0.5c1.3,0,2.1,0.6,2.8,2.1
	c1.2,2.5,2.3,7.5,2.3,10.3c0,1.1-0.4,2.1-1.1,2.9c-0.2,0.2-0.5,0.9-0.6,1.4c-0.3,1.5-1.1,2.4-3.4,4.1c-4.1,3.1-5.5,4.8-5.5,6.9
	c0,0.9,0.7,3.1,1.3,4.1c0.4,0.6,0.5,0.7,1.3,0.7C373,345.1,373.9,345,374.3,344.7z M350.6,339.9L350.6,339.9
	c0.7-0.8,2.2-3.2,2.7-4.2c0.6-1.3,0.6-3.4,0-4.9c-0.2-0.6-0.9-1.9-1.5-2.9c-1-1.8-1-1.8-2.4-2.3c-0.8-0.3-2.2-0.9-3.1-1.4
	c-0.9-0.5-2.3-1-2.9-1.2c-2.7-0.9-4.2-1.9-5.5-3.9c-0.8-1.2-1.8-1.8-2.1-1.3c-0.2,0.3-0.1,1.7,0.1,3.2c0.1,0.6,0,0.9-0.6,1.8
	c-2.1,2.9-2,2.6-2,4.4c0,2,0.7,4.3,1.7,5.8s2.6,2.3,4.4,2.2c0.7,0,1.6-0.2,2-0.4c0.4-0.2,1.1-0.6,1.6-0.8l1-0.5l2.1,0.5
	c3,0.7,3.8,1.1,4.3,2.4c0.3,0.9,0.3,1.1,0,2c-0.4,1.1-0.5,2.1-0.2,2.1C350.1,340.4,350.3,340.2,350.6,339.9z M328.1,339.3
	L328.1,339.3c0.1-0.4-0.3-1.1-0.9-2.2c-2.6-4.2-2.8-5.7-1.2-9.5c0.9-2.1,1-2.4,1-4.4c0.1-2.5,0.5-3.5,2-5c1.3-1.3,3.1-2.4,7.1-4.1
	c4-1.8,4.6-1.8,6.5-0.3c1.7,1.3,2.5,1.7,3.6,1.7c1.1,0,1.8-0.3,1.1-0.5c-0.3-0.1-1.4-1-2.4-2c-2.9-2.7-4.1-3.1-7.1-2.2
	c-0.8,0.2-2.7,0.7-4.2,1c-3.3,0.6-4.1,1-6,2.7c-2.7,2.5-4.1,4.6-5.7,9c-0.6,1.6-1.4,3.6-1.9,4.5c-0.9,1.8-0.9,2.5-0.4,4.1
	c0.8,2.3,3.4,5.3,6.1,7.2C326.8,340.2,328,340.2,328.1,339.3z M361.7,335.5c0.2-0.2,1-1.4,1.8-2.6c0.8-1.2,2.1-3.1,3-4.1
	c1.8-2.2,2.4-3.2,3.2-5.4c0.8-2,1.4-2.8,2.9-4c1-0.8,1.2-1,1.2-1.6c0-1-0.9-2.4-1.5-2.5c-0.7-0.1-1,0.3-1.2,1.4
	c-0.1,0.5-0.2,1.1-0.4,1.3c-0.1,0.2-1.5,1-3,1.8c-4,2.1-5.9,3.9-6.9,6.8c-0.4,1.2-0.5,1.8-0.4,5c0,2,0.1,3.8,0.2,4
	C360.7,336,361.3,335.9,361.7,335.5z M223,331.9l-0.6-1.2l0.5-0.9c1.4-2.4,2.1-1.6,1.3,1.5C223.7,333.3,223.6,333.3,223,331.9z
	 M221.4,328.7c-0.4-1-0.3-1.7,0.3-2.3c0.7-0.7,1.9-2.9,1.9-3.3c0-0.2-0.2-0.5-0.4-0.8l-0.4-0.5l-1,1.1c-0.6,0.6-1.1,1.1-1.2,1.1
	c-0.5,0,0-1.4,1-2.7c0.5-0.7,1.4-3.6,1.4-4.7c0-0.4-0.2-0.7-0.5-1c-1.1-0.7-1-1.2,0.7-3c1.7-1.8,1.9-2.3,1.6-3.5
	c-0.3-1.1,0.2-2.1,1.4-2.8c0.9-0.5,2.2-0.5,3.1,0c0.7,0.5,0.7,1,0.2,2.3c-1.8,4.3-2.4,5.8-3,8c-0.9,3-1,3.6-1.1,6.6
	c-0.1,1.6-0.2,2.6-0.4,3c-0.3,0.6-2.8,3.1-3,3.1C221.7,329.4,221.5,329.1,221.4,328.7z M186.2,325.1L186.2,325.1
	c-0.5-1.6-1.3-4-1.7-5.2l-0.8-2.3l-0.2-5.5c-0.1-3-0.3-7.4-0.4-9.7c-0.1-2.3-0.2-6.4-0.2-9c0-2.8-0.1-5.6-0.3-6.9
	c-0.4-2.9-0.3-6.8,0.3-9.1c0.6-2.2,2.2-5.6,3.7-7.5c0.9-1.2,1-1.5,0.7-1.5c-0.5,0-2.2,1.7-3.4,3.5c-1.7,2.4-2.4,4.4-3.3,9
	c-0.4,2.1-0.4,3-0.4,10.6c0,5.6,0.1,9.2,0.3,11.1c0.2,1.5,0.4,4.3,0.4,6.2c0.2,6.2,1.1,10.2,3.4,16.2c0.7,1.8,1,2.3,1.5,2.6
	C187.2,328.5,187.3,328.3,186.2,325.1z M354.9,319.9c0.1-0.3,0.7-1.6,1.3-2.8c1.1-2.4,1.4-4.1,1-5.6c-0.2-0.5-0.3-3.1-0.4-7
	c-0.1-4.7-0.2-6.5-0.5-7.5c-0.9-3.1-2.7-5.6-5.2-7.2c-0.7-0.5-1.5-1-1.7-1.2c-0.4-0.5-0.3-1.8,0.2-4.4c0.2-1.1,0.5-2.4,0.5-2.8
	l0.1-0.8l-0.8,0.7c-1.2,1.1-1.7,2.1-3,6.1c-0.7,2-1.5,4.3-1.9,5.2c-0.5,1.3-0.7,1.9-0.7,3c0,1.9,0.5,3,2.6,5.3
	c2.1,2.3,3.1,4,3.9,6.4c1.7,5.7,2.8,9.1,3.5,11C354.6,320.5,354.6,320.5,354.9,319.9z M295,318.1c1.9-1.4,5.1-4,7.5-6.4l2-1.9
	l-1.7,0.8c-0.9,0.4-2.4,1.2-3.2,1.7c-3.8,2.3-8,6.8-6.4,6.8C293.4,319.2,294.2,318.7,295,318.1z M198.8,318.2
	c0.1-0.2-0.2-0.9-0.5-1.6c-0.9-1.8-1.8-4.4-1.8-5.4c0-0.9-1.1-3.6-1.5-3.7c-0.4-0.1-1.7,0.7-1.7,1.1c0,0.6,1,4.3,1.5,5.7
	c0.7,1.8,1.8,3.4,2.6,3.8C198.3,318.6,198.7,318.6,198.8,318.2z M399.4,313.5c1.4-0.4,2.9-1.7,3.8-3.2c0.9-1.5,0.8-1.8-0.3-1
	c-1.9,1.3-2.8,1.6-4.4,1.7c-2.6,0-2.6,0-0.1-2.9c3.4-3.9,4.9-6.5,5.3-9c0.2-1,0.3-1.1-1.6,0.5c-1,0.9-2.6,1.7-3.9,2.1
	c-1.5,0.4-5.5,0.9-9.2,1.1c-3.3,0.2-4.8,0.4-4.8,0.9c0,0.1,0.7,0.4,1.6,0.6c0.9,0.3,1.8,0.6,2.2,0.8c1.2,0.6,2.4,1.9,3.2,3.5
	c1.6,3.2,4,5.1,6.5,5.2C398.1,313.8,398.8,313.6,399.4,313.5z M287.9,308c0.1-1,0.4-1.1,1.9-0.2l1.5,0.8h3.6c3.1,0,3.8-0.1,5.4-0.5
	c3.1-0.9,4.2-2.5,1.4-2c-2.7,0.5-5.7,0.7-6.6,0.6c-1.5-0.2-2.8-0.9-3.9-2c-0.5-0.5-1.7-1.5-2.6-2.1c-0.9-0.6-1.8-1.4-2-1.7
	c-0.2-0.3-1.2-2.4-2.2-4.8c-1.7-4-1.8-4.3-1.8-5.8c0-1.4,0.1-1.8,0.6-2.8c0.7-1.3,0.7-2.2,0.2-3.4c-0.5-1.2-0.3-2,1.3-4.2
	c0.8-1.2,1.6-2.6,1.9-3.5c0.9-2.6,1.9-3.4,4.6-3.4c2.5,0,5.4,0.8,7,1.9l0.5,0.3l-1.2,0.7c-2.8,1.6-4.7,3.7-7.9,8.9
	c-2.7,4.5-3,5.3-1.5,5.3c1,0,3.1,0.6,4,1.1c0.4,0.3,1.5,1,2.3,1.7c1.9,1.5,3.3,2,5.4,2c2,0,6.2-1.1,8.5-2.2c1-0.5,1.8-0.8,1.8-0.8
	c0,0.3-0.7,1.4-1.2,1.9c-0.9,0.9-1.8,1.2-4.1,1.7c-3.5,0.7-4.1,1.5-1.2,1.5c2.1,0,4.2-0.6,5.6-1.6c0.6-0.4,2.6-2.4,4.6-4.4
	c3.5-3.5,3.6-3.7,4.5-3.7c0.9,0,1.4,0.2,3.1,1.8c1.3,1.2,2.5,1.7,4.1,1.7c1.2,0,1.4-0.1,1.5-0.4c0.2-0.6-0.4-1.4-1.1-1.8
	c-0.6-0.3-1.1-0.9-0.9-1.1c0.1-0.1,0.9-0.1,1.8-0.1c0.9,0,2-0.1,2.5-0.2c0.7-0.2,1-0.1,1.9,0.4c1.2,0.7,2,0.8,2.5,0.4
	c0.2-0.1,1.2-1.2,2.2-2.4c2.1-2.5,4-5.1,4.8-6.9c1.4-3.1,2.2-7.4,1.6-8.8c-0.3-0.8-1.5-1.7-1.5-1.1c0,0.1-0.8,1.2-1.7,2.4
	c-1,1.2-2.1,2.9-2.5,3.7c-1.8,3.4-7.5,6.6-11.8,6.6c-1.4,0-1.9,0.4-1.7,1.5c0.2,1-0.2,1.6-0.9,1.6c-0.5,0-2.1-1.4-2.1-1.8
	c0-0.4-0.9-1.1-2.3-1.8c-1.9-0.9-2.8-1.6-5-3.4c-3.5-2.9-6-4.2-12.1-6.1c-1.8-0.6-3.5-1.2-3.8-1.4l-0.5-0.4l0.6-0.2
	c0.4-0.1,1.1-0.1,1.6,0s1.1,0.1,1.4,0c0.4-0.1,0.4-0.2,0.1-0.6c-0.7-0.8-1.7-1.2-3.4-1.6c-2.4-0.5-3.5-0.2-5.1,1.3
	c-0.8,0.8-1.3,0.8-1.3,0c0-0.7-1.2-1.8-2.6-2.5c-1.7-0.8-1.9-0.7-1.6,1.2c0.3,1.6,0.1,2.1-1.2,2.8c-1.3,0.7-3.7,2.9-5.4,5
	c-0.9,1.1-1.7,2-1.8,2c-0.1,0-0.2-0.2-0.3-0.4c-0.2-0.7-1.3-1.4-2.5-1.7c-2.9-0.7-4.5-4.3-3.9-8.5c0.3-1.9,0.9-3.3,3-6.7l1.5-2.5
	l-0.6-0.1c-0.9-0.1-1.4,0.2-2.3,1.7c-0.5,0.7-1.5,2.3-2.4,3.5c-2.2,3-3.2,4.9-4,6.9c-0.7,1.8-1.4,4.4-1.2,4.9c0,0.2,0.4,0.4,0.8,0.6
	c0.7,0.2,0.8,0.3,1,1.8c0.3,1.9,0.7,2.6,1.7,3.5c1.1,1,2.6,1.3,5.2,1.3c2.6,0,3.7,0.4,4.7,1.9c0.9,1.2,1,3.1,0.3,4
	c-0.5,0.7-0.7,0.7-2.6,0.1c-0.8-0.2-1.4-0.2-3,0c-1.1,0.1-3.5,0.3-5.4,0.4c-1.9,0.1-3.6,0.3-3.9,0.4c-1.8,0.9,0,4.3,2.2,4.3
	c1.1,0,2.5,0.9,4.2,2.8c1,1,2.3,2.7,3.1,3.8c1.5,2.2,2.4,2.9,4.3,3.5c1.2,0.4,1.6,0.6,4,3c1.5,1.4,2.9,2.7,3,2.8
	c0.2,0.1,1,0.1,1.7,0.1C287.8,308.5,287.9,308.5,287.9,308z M305.7,306.4c0.3-0.1,0.5-0.3,0.6-0.3c0,0-0.1-0.8-0.3-1.7
	c-0.5-2.3-0.5-2.5,1.7-3.6c3.6-1.8,7.1-5.2,8.1-7.9c0.3-0.7,0.4-1.3,0.4-1.3c-0.2-0.2-2.4,0.9-2.8,1.4c-0.2,0.2-0.7,1-1.1,1.7
	c-1.6,2.7-4.2,4.7-7.1,5.4c-2.3,0.6-3.6,1.4-4,2.3c-0.1,0.3,0,0.4,0.6,0.2c1.3-0.2,1.8,0.3,3,3.2
	C305.2,306.6,305.3,306.7,305.7,306.4z M192.1,306c0.5-0.5,0.2-2-1-5.8c-0.7-2.1-1.5-4.6-1.7-5.6l-0.5-1.8l0.7-4.6
	c0.7-4.7,1.3-7.9,2.3-10.8c1.7-5.4,3.9-9.9,6.8-13.8l1.3-1.8l-0.8,0.2c-1.1,0.2-2.8,0.9-3.9,1.6c-1.2,0.8-3.5,4.1-5.1,7.3
	c-1,1.9-1.6,3.7-2.6,7c-2.4,8.3-3.6,14.4-3.8,19.1c-0.2,4.6,0.5,7.2,2.2,8C187.8,306,191.6,306.6,192.1,306z M222.2,305.9
	c-0.1-0.2,0.3-1.1,0.8-2c0.5-0.9,0.9-2,0.9-2.4c0-0.7,0-0.7-0.8-0.7c-0.8,0-0.8,0-0.7-0.5c0.4-1.8,0.4-2.3-0.2-2.8
	c-0.5-0.4-0.6-0.5-0.3-1.1c0.2-0.5,0.2-0.8,0-1.3c-0.4-1.2-0.3-2.8,0.3-4c0.3-0.6,0.5-1.3,0.4-1.5c-0.4-1-1.9,0.2-2.3,1.8
	c-0.1,0.5-0.6,1.2-1,1.6l-0.8,0.8l-0.1-0.6c-0.2-1.6,2.2-4.7,5.5-7.2c1.6-1.2,1.9-1.6,2.6-3.7c0.3-0.8,7.9-8.4,10.9-11
	c2.3-2,7.6-7.2,8-7.9c0.2-0.4,0.2-0.7,0-1c-0.1-0.2-0.3-1-0.4-1.6l-0.1-1.2l-0.8,0.1c-1.8,0.1-0.5-1.3,1.9-2.2
	c1.6-0.6,1.7-0.6,2-0.2c0.2,0.2,0.3,0.8,0.3,1.4c0,0.8,0.1,1,0.3,1c1.1,0,7.8-2.7,10.6-4.2c0.6-0.3,1.6-0.9,2.2-1.2
	c2.4-1.3,6-3.6,9.4-6c5.4-3.8,5.7-3.9,16.1-5.6c7.9-1.3,11.6-2,13.3-2.5c1.2-0.4,2.2-0.4,2.2-0.1c0,0.3-1.2,1.3-2.2,1.7
	c-1.1,0.5-6.1,1.4-9.6,1.8c-5.9,0.6-10,1.9-13.7,4.4c-1.4,1-8.8,8.3-12.9,12.9c-2,2.2-4.2,4.5-5,5.3c-1.9,1.7-4.8,3.7-6.2,4.2
	c-2.5,0.9-4.3,2.4-7.2,5.9c-0.9,1.1-2.8,3.1-4.2,4.5c-3.2,3.3-4.7,5.1-6.4,7.7c-0.7,1.1-2.4,3.2-3.7,4.6c-3.7,4-5.2,6.2-5.8,8.6
	c-0.3,1.4-0.6,1.8-1.8,3.5C223.1,306.2,222.4,306.6,222.2,305.9z M378.1,301L378.1,301c0-1.1-1.2-3.2-2.3-4.3
	c-0.6-0.5-2.4-1.8-4-2.8c-5.7-3.4-7-4.4-7.7-5.9c-0.5-1.1-0.5-1.9-0.1-2.9c0.7-1.6,2.2-1.1,4.2,1.6c1.5,2,2.5,2.5,5.5,2.9
	c2.2,0.3,4.1,0.1,6.2-0.5c1.1-0.3,2.2-1,2.2-1.4c0-0.1-1.9-0.2-4.3-0.3c-3.9-0.1-4.4-0.1-5.4-0.6c-0.6-0.3-1.3-0.7-1.6-1l-0.4-0.5
	l1-0.5c0.7-0.4,1.6-0.5,3.3-0.6c3.9-0.2,5.5-0.8,8.5-3c0.9-0.7,2.1-1.5,2.8-1.8c2.6-1.3,2.8-2.3,1.2-6.6c-0.7-1.8-1.8-3.6-2.9-4.8
	c-0.5-0.5-0.9-1-0.8-1c0,0,1.2-0.5,2.7-1c1.8-0.6,2.6-0.8,2.7-0.6c0.1,0.5,1.4,1.7,2.2,2.1c1.3,0.7,1.3,1.3,0.3,3.2
	c-0.8,1.5-1.6,2.5-2.3,2.7c-0.2,0.1-0.2,0.2,0,0.7c0.1,0.4,0.7,0.9,1.7,1.5c2,1.2,2.2,1.5,1.1,3.5c-0.4,0.7-0.6,1.4-0.6,1.5
	c0.1,0.2,0.6,0.4,1.1,0.4c2.2,0.3,2.9,1.1,2.5,2.7c-0.3,1.2-1.3,3.1-2.1,4c-0.3,0.4-0.9,1.1-1.4,1.7c-1,1.3-3,2.3-4.9,2.5
	c-1.9,0.2-2.8,0.5-3.7,1.2c-1,0.8-1.1,1.7-0.4,2.1c0.7,0.3,2.9,0.1,4.6-0.5c4-1.5,6.6-4.1,9.2-9.4c1.5-3.1,2.9-4.9,4.2-5.7l0.6-0.4
	l-1-0.8c-0.6-0.5-1-1-1-1.3c0-0.3,0.8-1.2,2.7-3c2.9-2.8,3.6-3.7,4.8-6.5c0.9-2.2,0.9-2.4,0.2-3.2L406,264l-0.6,0.8
	c-1.6,2.1-2.5,2.9-3.6,3c-0.6,0.1-2.2,0.7-3.7,1.3c-3.6,1.4-4.3,1.4-3.2-0.1c0.7-1,0.7-1.7-0.1-2.9c-0.5-0.8-0.6-1.1-0.5-1.8
	c0.2-1.4,2.1-4.9,2.7-4.9c0.1,0,0.5,0.2,0.8,0.5c1.2,1,1.8,0.6,1.2-0.8c-0.4-1.1-0.8-1-3.5,0.1c-2.8,1.2-7.5,2.9-11.7,4.1
	c-3.8,1.1-3.7,1.1-6,2.7c-2.2,1.6-4.3,2.7-7.3,4c-2.8,1.1-6.7,2.5-7.2,2.5c-0.7,0-0.5-0.6,0.7-2.5c0.7-1.1,1.4-2.4,1.6-2.9
	c0.5-1.2,0.5-3.3,0-4.4c-0.4-0.9-1.8-2.9-2.9-4.2l-0.6-0.8v4.1c0,2.2-0.1,4-0.2,4c-0.4,0-0.7-0.4-1.5-1.9c-1.5-3-3-5.1-5.8-8
	c-2.4-2.5-2.8-3.2-2.8-5.9c0-1.9-0.1-2.1-0.9-3.8c-1.9-3.8-4-6.3-6.1-7c-1.9-0.7-9-1.5-10.9-1.2c-1.3,0.2-1.1,0.7,0.5,1.1
	c4,1.1,6.1,2.3,8.5,4.6c2,2,3.1,3.8,3.8,6.2c0.7,2.5,0.1,5.4-2,9.7c-2.6,5.1-4.7,7.4-7.2,7.7c-1.2,0.1-1.4,0.3-1.6,1.7
	c-0.1,0.9,0.2,1.8,0.7,2c0.1,0,0.9-0.5,1.7-1.2c0.8-0.7,1.7-1.4,2-1.4s0.6-0.4,0.8-0.6c0.6-1.1,2.7-2.2,5.1-2.7
	c1.8-0.4,2.6-0.8,4.1-2.4c0.7-0.7,1.3-1.3,1.4-1.3c0.7,0,2.3,2.3,3.5,4.9c1.3,2.8,1.6,4.6,1.6,8.3c0,3.2,0,3.4-0.5,4.4
	c-0.3,0.6-0.7,1.2-0.9,1.4c-0.7,0.6-0.1,2.2,0.8,2.2c0.7,0,1.7-1.2,2.2-2.6c0.2-0.6,0.8-2.1,1.4-3.1l1-2l0.8,0.6
	c1,0.8,1.2,1.5,0.9,2.4c-0.1,0.4-0.7,1.8-1.2,3.3c-0.8,2.4-0.9,2.8-0.9,4.8c0,2,0.1,2.3,0.6,3.4c1.2,2.4,3,3.9,9.5,7.5
	c3.3,1.8,5.5,3.3,6.6,4.4C377.8,302,378.1,302,378.1,301z M331.8,300.3c0.9-0.1,1.2-0.3,3.3-2.4c1.3-1.2,2.8-2.6,3.3-3
	c0.6-0.4,1-0.9,1-1.1c0-0.3-0.2-0.4-1.2-0.4c-1.8,0-1.8-0.2-1.3-3.9c0.2-1.2-0.1-1.7-1.1-1.7c-0.6,0-0.8,0.1-1.1,0.7
	c-0.2,0.4-0.4,1-0.5,1.5c0,0.4-0.5,1.6-0.9,2.6c-0.5,1-0.9,2-0.9,2.2c0,0.2-0.4,1.5-0.9,2.8c-0.5,1.4-0.9,2.6-0.9,2.7
	C330.8,300.4,331.2,300.4,331.8,300.3z M200.2,294c0.1-0.2,0.4-0.8,0.6-1.4c0.4-1.2,2.1-3.8,3-4.7c0.6-0.6,0.8-0.6,2-0.6
	c1.1,0,1.7,0.2,3.2,0.8c2.7,1.2,3.1,1.3,4,0.9c0.4-0.2,1.1-0.7,1.4-1.1l0.6-0.8l-0.8-0.9c-0.6-0.7-0.9-1.2-1-2
	c-0.2-1.4,0.1-13.2,0.4-15.4c0.6-4.2,0-13.5-1.1-16.9c-0.6-2.1-1.9-4-3.7-5.6c-3.5-3.3-8.1-4.5-12.3-3.3
	c-7.7,2.2-12.8,6.9-15.4,14.2c-0.4,1-1.1,3.7-1.7,5.8c-0.8,3.3-1,4.4-1.1,6.7c-0.1,2.4-0.1,2.8,0.3,3.1c0.5,0.5,0.9,0.5,1.8-0.1
	c0.7-0.5,1.3-1.2,2.9-3.7c1.2-1.9,3.9-4.7,6.1-6.2c2-1.4,5.9-3.4,7.5-3.8c2.1-0.5,5.5-0.4,8.1,0.5c2.4,0.8,3.2,3.1,2.5,6.6
	c-0.3,1.6-0.5,1.8-1.7,1.5c-1.4-0.3-2.5-0.3-3.2,0.1c-0.8,0.4-2.4,2.6-3.4,4.4c-0.9,1.7-2.1,5.7-2.6,8.2c-0.6,2.9-0.5,6.5,0.2,9.4
	c0.3,1.3,0.6,2.6,0.7,2.8c0.1,0.2,0.3,0.8,0.5,1.1c0.3,0.6,0.6,0.7,1.2,0.7C199.6,294.3,200.1,294.2,200.2,294z M456,290.3l0.4-0.6
	c0.2-0.4,1-1.7,1.8-3c2.3-4,4.3-6.5,10.4-13.2c2-2.2,3.7-4.2,3.8-4.3c0-0.2-0.1-0.4-0.3-0.7c-0.3-0.4-0.6-0.2-6.3,2.9
	c-6.4,3.5-8,4.3-10.4,4.9c-0.8,0.2-1.6,0.4-1.7,0.5c-0.1,0.1,0.2,1.9,0.6,4c0.4,2.1,0.9,4.8,1.1,5.9c0.2,1.1,0.4,2.4,0.5,2.8
	L456,290.3z M153,285.9c0.4-2.3,0.9-5.2,1.2-6.6l0.5-2.4l-0.9-0.2c-2.5-0.6-5.1-1.8-8.6-3.6c-9.5-5.2-8.7-4.8-9.2-4.4
	c-0.5,0.5-0.6,0.4,3.1,4.5c4.3,4.7,6.1,6.8,7.9,9.2c1.6,2.1,4.8,7.4,4.8,7.8c0,0.1,0.1,0.1,0.1,0.1
	C152.2,290.1,152.6,288.1,153,285.9z M298.9,288.1c-1.1-0.4-2.4-0.7-3-0.8c-1-0.1-1.5-0.5-1.5-1.3c0-0.2,0.5-0.9,1.1-1.5
	c2-2.2,5.1-3.2,8.2-2.7c1.9,0.3,2.4,0.5,4.3,2.2c1.6,1.4,1.9,2,1.5,3c-0.5,1.2-1.5,1.5-5.3,1.6C300.9,288.7,300.8,288.7,298.9,288.1
	z M199.7,287.8c-1-4.2,0.6-12.1,3.3-16c1-1.4,1.3-1.3,2.3,0.5c1.2,2.3,2.3,2.9,3.3,1.9c0.6-0.7,0.9-1.6,1-3c0.1-1.3,0.3-1.8,0.9-1.6
	c0.4,0.1,0.4,0.9,0.4,6.1c0,2.9-0.6,9.8-0.8,9.8c0,0-0.9-0.2-1.9-0.5c-3.2-1-3.7-0.8-6.7,2c-0.8,0.7-1.5,1.3-1.5,1.3
	S199.8,288.1,199.7,287.8z M370.4,281.4c-0.2-0.4-0.7-1.1-1.1-1.7l-0.7-1.1l0.8-0.7c0.9-0.8,7.9-4.7,8.8-4.8c0.3-0.1,0.9,0,1.3,0.2
	c0.4,0.2,1,0.4,1.2,0.5c0.5,0.1,0.5,0.2,0.4,1.3c-0.1,1.2-0.1,1.2-1.4,2.3c-1.1,0.9-8.3,4.7-8.9,4.7
	C370.8,282,370.6,281.7,370.4,281.4z M346,278.3c0.4-0.7,1-2.1,1.4-3.2c0.6-1.8,0.7-2.4,0.8-4.9c0.1-2.1,0-2.9-0.1-2.9
	c-0.1,0-0.6,0.2-1.1,0.4c-0.8,0.4-0.8,0.5-1.4,2.8c-0.8,3.6-1.9,8.7-1.9,9.2c0,0.3,0.1,0.6,0.3,0.8
	C344.3,280.8,344.8,280.3,346,278.3z M181.3,266c0.3-1.8,2.2-6.8,3.4-9.2c3.2-6.5,8.3-10.9,13.3-11.6c1.4-0.2,2-0.2,3.4,0.1
	c4.6,0.9,7.5,3.7,8.7,8.2c0.3,1.2,0.5,5.9,0.2,5.9c-0.1,0-0.5-0.4-1-0.8c-1.7-1.7-3.7-2.2-8-2.2c-4.4,0-7.1,0.7-10.3,2.6
	c-1.6,1-5.4,4.2-7.9,6.7c-0.9,1-1.8,1.8-1.9,1.8C181.1,267.5,181.1,266.9,181.3,266z M228.2,263.5l0.2-0.6c0.3-1.2,1.3-2.6,3.3-4.7
	c1.5-1.5,2.5-2.3,3.5-2.8c2.3-1.1,2.4-0.8,0.4,0.9c-1,0.8-2.6,2.3-3.5,3.4c-1,1-2.2,2.3-2.8,2.8L228.2,263.5z M251.9,255.7
	c0-0.7,7.4-9.3,8-9.3c0.3,0,0.2,1.3-0.2,2.2c-0.5,0.9-0.6,1.7-0.2,1.7c0.1,0,0.8-0.5,1.5-1c0.7-0.6,2.3-1.7,3.6-2.6
	c1.8-1.2,3.1-2.3,5.1-4.3c3-3,5.4-5.1,9.4-7.9c1.4-1,3.2-2.3,4-2.8c1.7-1.2,3.4-1.9,4.9-1.9c1.6,0,1.6,0.4-0.2,1.6
	c-1.2,0.8-2.3,1.9-2,1.9c0.1,0,1.1-0.4,2.3-0.9c2.7-1.1,4.2-1.3,6-0.8c1.2,0.4,4.2,1.8,4.2,1.9c0,0.4-1.8,0.9-5.1,1.4
	c-4.8,0.8-5.6,1-6.3,1.4c-0.6,0.4-0.6,0.5-0.2,1.1c0.3,0.4,0.7,0.4,6.1,0.5c5.2,0.1,5.8,0.1,5.9,0.5c0.1,0.4-0.6,0.7-3.4,1.1
	c-1,0.2-3.6,0.6-5.7,1c-4.5,0.8-7.7,1.3-8.6,1.3c-0.8,0-0.8-0.4,0.2-1.3c1.4-1.3,0.8-1.8-1.1-1.1c-1.8,0.7-2.7,1.2-5.8,3.7
	c-5.2,4.1-12.4,8.6-18.4,11.5C253.2,255.8,251.9,256.1,251.9,255.7z M137.6,254.4c1.6-0.8,2.7-2.6,2.4-3.9c-0.2-0.8-1.2-1.8-2.2-2.3
	c-1.7-0.8-3.9-0.4-4.7,1c-0.2,0.4-0.5,1.3-0.6,2.1c-0.2,1.2-0.1,1.4,0.2,1.9c0.6,0.7,2.5,1.6,3.4,1.6
	C136.6,254.8,137.2,254.6,137.6,254.4z M474.6,253.8l1.2-0.8l-0.1-1.2c-0.2-1.6-0.9-3-1.8-3.5c-2.2-1.3-5.8,0.5-5.7,2.9
	c0,0.9,0.4,1.9,1.1,2.5C471,255.1,472.7,255.1,474.6,253.8z M239.3,245.4c2.1-2.2,2.1-1.4,0.1,1.5c-1,1.4-3.6,3.7-3.6,3.2
	C235.9,249.8,238.2,246.6,239.3,245.4z M157,241.7c-5-1.7-7.1-3.4-11.5-9c-5.7-7.2-9.9-16-11.7-24.4c-0.7-3.1-1.6-8.8-1.9-12.2
	c-0.4-3.7-0.1-10.3,0.7-18.1c0.7-6.5,1.1-9.4,2.3-14.1l0.6-2.4l2.1,2.7c11.8,15.4,19.7,32,22.6,47.4c0.9,5.2,1.3,8.8,1.3,14.2
	c0,5.4-0.2,8.3-1.1,13c-0.6,3.2-0.7,3.7-0.9,3.7C159.3,242.4,158.2,242.1,157,241.7z M448.3,240.9c-1.1-5.1-1.3-7.6-1.3-15
	c0-7.5,0.1-9.1,1.2-14.6c2.5-13,8.1-26,16.7-39c2.5-3.8,7.7-10.8,7.8-10.6c0.1,0.1,1.3,5,1.8,7.5c0.2,1.1,0.7,5,1.1,8.5
	c0.6,5.7,0.7,7.3,0.7,12.9c0,5.6-0.1,6.8-0.5,9.7c-0.6,4.3-1.6,9.1-2.3,11.6c-2,7-6,14.7-10.8,20.9c-4.7,6-7.2,7.8-13.6,9.6
	C448.7,242.4,448.6,242.3,448.3,240.9z M243.7,240.4c0.3-1.3,1.1-2.7,2.9-4.9c1-1.3,1.8-2.4,1.8-2.6c0-0.6-1-0.1-3.7,1.9
	c-1.6,1.2-3.1,2.4-3.3,2.6c-0.5,0.4-1.6,0.8-1.6,0.5c0-0.1,2.2-2.4,5-5.1c2.7-2.7,5-5,5-5.1c0-0.5-0.6-0.3-1.6,0.5
	c-3.7,2.7-5.1,3.6-5.4,3.6c-0.2,0-0.4-0.3-0.5-0.7c-0.1-0.6-0.2-0.6-0.7-0.3c-0.3,0.2-0.7,0.3-0.8,0.2c-0.9-0.4,0.4-2.7,2.4-4.1
	l1.4-1.1l-0.7-0.1c-0.9-0.1-2.4,0.5-4,1.5c-0.8,0.5-1.4,0.8-1.5,0.8c-0.2-0.2,0.4-2.6,0.8-3.3c1.8-2.6,18.9-15,23.9-17.4l1.8-0.9
	l0.9,0.5c1.3,0.6,1.9,0.5,5.8-1.2c1.8-0.8,4.6-2,6.3-2.7c3.7-1.5,5.4-1.7,4.1-0.5c-0.7,0.7-1.6,1.1-3.6,1.6
	c-2.1,0.5-3.5,1.2-4.9,2.4c-0.6,0.5-1.9,1.2-3,1.7c-2.5,1.1-3.5,1.7-5.6,3.9c-2.2,2.2-7.4,8.6-7.4,8.9c0,0.3,0.7,0.1,2.1-0.7
	c1.1-0.6,1.7-0.8,2.5-0.8c0.7,0,1.5-0.2,2.3-0.5c1.4-0.6,2.4-0.7,2.3-0.3c0,0.2-2.6,2.4-5.7,4.9c-9.3,7.6-12.7,10.9-15.9,15.2
	C243.5,241.2,243.6,241.2,243.7,240.4z M419.5,232.1c-0.4-0.2-0.7-0.5-0.8-0.6c-0.1-0.1,0.2-0.7,0.6-1.3c0.9-1.3,1.1-2,1.5-4.9
	c0.5-3.4,0.6-6.3,0.3-8c-0.4-2.3-1.8-5.1-2.7-5.1c-0.8,0-4.4,4.9-5.8,7.8c-0.5,1-1,2.4-1.2,3.1c-0.4,1.5-0.6,1.8-1.1,1.8
	c-0.5,0-2.5-1.4-3.8-2.6c-1.4-1.3-3.3-2.5-5.4-3.2c-2.7-1-3.1-1.2-3.5-1.9c-0.4-0.5-0.4-0.6,0.1-2.1c0.8-2.3,2.6-5.9,3.8-7.4
	c2-2.5,3.7-3.4,5.7-2.9c0.6,0.2,3.1,0.3,5.9,0.4c4.4,0.1,5,0.2,5.9,0.6c1.5,0.7,2.2,1.2,2.6,2.1c0.8,1.7,1.5,13.5,1,17.9
	c-0.2,2.3-1.1,5.8-1.6,6.4C420.8,232.6,420.3,232.6,419.5,232.1z M254.8,231.9c-0.1-0.1-0.1-0.3-0.1-0.3c0,0,2.6-2.1,5.7-4.7
	c6.1-5.1,12-9.5,13.4-10.1c0.5-0.2,1.6-0.6,2.5-0.7c0.9-0.2,2-0.5,2.5-0.7c1.7-0.9,3.3-1.2,5.5-1.1c2.1,0.1,5.6,0.9,5.6,1.3
	c0,0.5-1.7,1.7-4.9,3.4c-1.9,1.1-3.9,2.3-4.5,2.8c-1.6,1.3-1.9,1.4-3.2,1.2c-0.9-0.1-1.3-0.3-1.9-0.8c-0.6-0.6-0.7-0.7-1.3-0.4
	c-0.5,0.2-0.7,0.2-1-0.2c-0.6-0.6-1-0.5-1.9,0.5c-0.9,1-2.3,1.7-4.5,2.2c-2.1,0.5-2.6,0.8-4.9,3c-2.1,2-3.7,3.3-5.4,4.3
	C255.3,232.1,255,232.2,254.8,231.9z M380.9,227.2L380.9,227.2c-0.5-0.2-1.2-0.4-1.6-0.4c-0.8-0.2-0.8-0.9,0-1.2
	c0.5-0.2,0.8-0.2,1.6,0.1c0.6,0.2,1.3,0.4,1.6,0.4c0.8,0,1.1,0.5,0.8,1.1C383,227.6,382.4,227.6,380.9,227.2z M360.2,222.2
	c0-0.1,0.3-0.6,0.7-1.2c1.9-2.9,2-3.2,1.1-3.7c-0.3-0.2-1.1-0.9-1.7-1.6l-1.1-1.2l-1.2,0.1l-1.2,0.1l0.1-1.3
	c0.1-1.2,0.1-1.3-0.7-2.2c-1.4-1.5-2-1.4-4.6,0.8c-0.8,0.7-1.5,1.3-1.6,1.3c-0.3,0-0.1-1.5,0.3-2.6c1-2.7,1-2.7-0.6-2.9
	c-1.3-0.2-2-0.7-2-1.6c0-0.7-0.3-0.9-1.6-0.9c-1.2,0-1.7-0.3-2.1-1.1c-0.4-0.8-0.7-0.8-1.8-0.1c-1.4,0.9-1.6,0.8-1.6-0.9
	c0-0.8-0.1-1.5-0.3-1.7c-0.1-0.1-1.1-0.3-2.3-0.4c-1.6-0.1-2.2-0.2-3.2-0.8c-1.4-0.8-1.8-1.3-1.6-2.3c0.2-0.9-0.1-1.6-0.8-1.8
	c-0.7-0.2-2.3,0.6-3.8,2c-0.8,0.7-1.5,1.3-1.6,1.3c-0.5,0-0.5-0.4-0.2-1c0.3-0.5,0.3-0.6,0-0.9c-0.2-0.2-0.5-0.3-0.8-0.2
	c-0.4,0.1-2.7,2.3-3.8,3.6c-0.5,0.6-0.7,0.7-1.2,0.6c-0.8-0.2-4.8-2.1-4.8-2.4c0-0.1,0.2-0.4,0.5-0.6c2.2-1.9,4.5-4.2,5.3-5.5
	c0.5-0.8,1.1-1.6,1.4-1.7c0.2-0.1,1.4-0.2,2.6-0.2c2.4,0,2.7,0.2,1.5,1.1c-0.4,0.3-0.7,0.6-0.8,0.8c-0.2,0.6,1.8,0.9,7.2,1.3
	c2.9,0.2,5.5,0.4,5.8,0.5c0.2,0.1,0.5,0.5,0.6,0.9c0.2,0.8,0.3,0.8,4.4,1.3c2.8,0.3,3.6,0.7,5.1,2.8c1.8,2.4,2.8,3,5.7,3.4
	c0.5,0.1,1.5,0.6,2.5,1.3c2,1.4,3,1.7,4.3,1.6l1-0.1l1.9,1.8c3,2.9,4.6,3.9,11.6,7.7c1.8,1,3.1,1.8,3.4,2.2c0.5,0.7,1.1,2.3,0.9,2.5
	c0,0.1-1.9-0.2-4-0.6c-3-0.5-4.8-0.7-7.5-0.8c-3.4-0.1-3.6-0.1-3.7,0.3c-0.1,0.3,0,0.6,0.6,1.1c0.8,0.7,0.8,0.7,0.3,0.9
	C365.7,222.1,360.2,222.7,360.2,222.2z M168.7,217.2c-5.4-8.1-8.5-16.8-9.7-26.6c-0.4-3.7-0.4-11.3,0-15c1-9.2,3.6-17.9,7.8-26.3
	c1.8-3.5,4.3-8,4.6-8c0.2,0,2.6,6.4,5.3,14.2c3.2,9.1,6,20,6.9,26.9c0.4,2.6,0.2,6.1-0.5,9.3c-2.4,11.7-4.6,16.8-10.5,25.2
	c-1,1.5-1.9,2.6-2.1,2.6S169.6,218.5,168.7,217.2z M189.6,198.2c-0.1-0.3-0.6-1.7-0.9-3c-2.4-8-2.7-15.9-1-25.1
	c2.9-15.3,9.1-28.8,19.5-42.6c1.2-1.6,2.2-2.9,2.3-2.9c0.2,0,2.1,4.4,3.2,7.5c2.8,7.8,3.9,14.7,3.7,22.2c-0.2,5.6-0.8,9.4-2.6,14.6
	c-0.9,2.8-3.3,7.6-4.9,10.2c-3,4.7-7.7,10.2-12.1,14.2c-2.7,2.4-6.3,5.4-6.6,5.4C189.9,198.8,189.7,198.5,189.6,198.2z M231.3,167.5
	l0.1-0.6c0.1-0.4,0.6-2,1.2-3.7l1-3.1l-3-2.2c-1.7-1.2-3.1-2.3-3.1-2.4s1.6-0.2,3.8-0.2h3.9l1.1-3.6c0.6-2,1.2-3.6,1.3-3.6
	s0.6,1.6,1.3,3.6l1.1,3.6h3.9c2.1,0,3.9,0.1,3.9,0.2c0,0.1-1.4,1.1-3,2.3s-3,2.3-3,2.4c0,0.1,0.5,1.7,1.1,3.5c0.6,1.8,1.1,3.4,1,3.5
	c0,0.2-1.4-0.7-3-1.9c-1.6-1.2-3-2.1-3.2-2.1c-0.1,0-1.4,0.8-2.8,1.8c-1.4,1-2.8,2-3.1,2.2L231.3,167.5z M369,167.2
	c0-0.2,0.5-1.8,1.1-3.5c0.6-1.8,1.1-3.3,1.1-3.5c0-0.1-1.4-1.2-3-2.4s-3-2.2-3-2.3c0-0.1,1.7-0.2,3.8-0.2h3.9l1.1-3.6
	c0.6-2,1.2-3.6,1.3-3.6c0.1,0,0.6,1.6,1.3,3.6l1.1,3.6h3.9c2.1,0,3.9,0.1,3.8,0.2c-0.1,0.1-1.5,1.2-3.1,2.4l-3,2.2l1.2,3.5
	c0.6,1.9,1.1,3.6,1.1,3.7c0,0.1-1.4-0.8-3.1-2c-1.6-1.2-3.1-2.2-3.2-2.2c-0.2,0-3.9,2.7-5.9,4.2C369.1,167.4,369,167.4,369,167.2z
	 M335.6,148.1c0.6-2,1.2-3.7,1.2-3.7c0-0.1-1.4-1.1-3-2.3c-1.7-1.2-3-2.2-3-2.3c0-0.1,1.7-0.2,3.8-0.2l3.8-0.1l1.2-3.5
	c0.6-1.9,1.2-3.4,1.4-3.3c0.1,0.1,0.7,1.7,1.3,3.6l1.1,3.4l7.8,0.1l-3.1,2.3c-1.7,1.2-3.1,2.3-3.2,2.3c0,0,0.5,1.7,1.1,3.7
	c0.6,2,1.1,3.7,1.1,3.7c0,0-1.5-1-3.2-2.2c-1.9-1.4-3.2-2.2-3.3-2.1c-0.7,0.5-6,4.3-6,4.3C334.5,151.7,335,150,335.6,148.1z
	 M276.2,150.2c-1.1-0.8-2.5-1.8-3.1-2.3l-1.1-0.8l-3.1,2.3c-2.9,2.1-3.2,2.3-3.2,2.2c0,0,0.5-1.7,1.2-3.7c0.6-2,1.2-3.7,1.1-3.7
	c0,0-1.5-1-3.2-2.3l-3.1-2.3l3.9-0.1l3.9-0.1l1.1-3.4c0.6-1.9,1.2-3.5,1.3-3.6c0.1-0.1,0.7,1.4,1.3,3.3l1.2,3.5l3.8,0.1
	c2.1,0,3.8,0.1,3.8,0.2c0,0.1-1.4,1.1-3,2.3c-1.7,1.2-3,2.2-3,2.3c0,0.1,0.5,1.7,1.2,3.7c0.6,2,1.1,3.6,1.1,3.6
	C278.3,151.7,277.4,151,276.2,150.2z M297.5,146.8c0-0.1,0.7-2.4,1.6-5.1c0.9-2.7,1.6-5.1,1.5-5.2c-0.1-0.1-2-1.6-4.3-3.3
	c-2.3-1.7-4.2-3.1-4.2-3.2c0-0.1,2.4-0.2,5.4-0.2h5.5l1.7-5.2c0.9-2.9,1.8-5.1,1.8-5c0.1,0.1,0.9,2.5,1.8,5.2l1.6,5h5.5
	c3,0,5.5,0.1,5.4,0.2c0,0.1-1.9,1.5-4.2,3.2c-2.3,1.7-4.3,3.1-4.3,3.3c-0.1,0.1,0.6,2.5,1.5,5.3c0.9,2.8,1.6,5.1,1.6,5.1
	c0,0.1-2-1.3-4.4-3.1c-2.4-1.7-4.4-3.1-4.5-3.1s-2.1,1.4-4.5,3.1C297.8,146.8,297.5,147,297.5,146.8z"/>
</svg>
